<svg id="Layer_1" data-name="Layer 1" xmlns="http://www.w3.org/2000/svg" width="0.8in" height="0.8in" viewBox="0 0 55.1 55"><title>facebook icon</title><g id="Group_20" data-name="Group 20"><path id="Path_326" data-name="Path 326" d="M.1,25.1A27.6,27.6,0,0,0,17.7,53.3v-.4c0-.3-.1-.7-.1-1v-1a3.8,3.8,0,0,1-.1-1,3.7,3.7,0,0,0-.1-1.1V35.4H9.1a.5.5,0,0,1-.5-.4V31.5a.7.7,0,0,0-.1-.5V29.8c-.1-.1-.1-.2-.1-.4v-.8h.1c0-.1.1-.1.2-.2h.2a.1.1,0,0,0,.1.1h8.5V27a14.8,14.8,0,0,1,.1-2.1V23.7a1.7,1.7,0,0,1,.1-.7V20c0-.5.1-.9.1-1.4v-.8a17,17,0,0,1,.4-2.2c0-.3.1-.5.1-.7a2.9,2.9,0,0,0,.2-.9l.3-1c.1-.3.3-.5.4-.8l.2-.4.2-.4a4.3,4.3,0,0,0,.4-.7l.6-.8.5-.7h.1l.2-.2.4-.3.7-.5.7-.4.6-.3L25,6.9h5.1a3.1,3.1,0,0,1,1.3.3l.9.2.7.4h.1l.8.4.7.6.5.5.3.4.4.7.3.6a4.2,4.2,0,0,1,.4,1h0a8.3,8.3,0,0,1,.6,2.1l.3,2.1h0v.2h0a3.8,3.8,0,0,0,.1,1v.9h0v.4h0c0,.2.1.4.1.7h0c0,.2.1.5.1.7s.1.5.1.8v1a.8.8,0,0,1-.2.4l-.4.2H33.5a.1.1,0,0,0,.1-.1l-.8.2H30.7c-.1-.1-.1-.1-.1-.2a3.4,3.4,0,0,1,0-1,3.1,3.1,0,0,0,.1-1V18.5h0a.6.6,0,0,0-.1-.4h.1a1.3,1.3,0,0,1-.1-.6,1.3,1.3,0,0,1-.1-.6c-.1-.3-.1-.6-.2-.9l-.3-.4-.3-.3v-.2l-.2-.2H28.1l-.5.2h.1l-.6.4-.3.3-.2.2h0c-.1.2-.3.4-.3.5a1.9,1.9,0,0,0-.3,1,4.1,4.1,0,0,0-.1,1.1c0,.4-.1.8-.1,1.2s-.1,1.6-.1,2.4v2.2a2.8,2.8,0,0,1-.1.9v1.4c0,.4-.1.7-.1,1v.7h8.6v1h0v.5h0v1.1h0v.5h0v.7h0v.4h0v1.1h0c0,.3-.1.6-.1.8v.8a.1.1,0,0,0-.1.1.5.5,0,0,1-.4.3H25.8v2.7c0,.2,0,.3-.1.4V45c0,.1.1.3.1.4v1.5a.4.4,0,0,0,.1.3v1.9a1.7,1.7,0,0,1,.1.7,2.8,2.8,0,0,0,.1.9v2.1c0,.2.1.4.1.6v.5a2.8,2.8,0,0,0,.1.9h3.5A27.6,27.6,0,0,0,30,.1H27.5A27.6,27.6,0,0,0,.1,25.1Z" fill="#ca4742"/><path id="Path_327" data-name="Path 327" d="M21.2,9.1Z" fill="#ca4742"/><path id="Path_328" data-name="Path 328" d="M21.2,9.1Z" fill="#ca4742"/><path id="Path_332" data-name="Path 332" d="M33.7,29.4h0Z" fill="#ca4742"/><path id="Path_333" data-name="Path 333" d="M9.3,35.4Z" fill="#ca4742"/><path id="Path_334" data-name="Path 334" d="M9.6,35.5h0Z" fill="#ca4742"/><path id="Path_335" data-name="Path 335" d="M27.4,35.6H23.5a1.1,1.1,0,0,0,.1.5.5.5,0,0,0,.5.3h4a.8.8,0,0,0,.7-.8.4.4,0,0,0-.1-.3Z" fill="#ca4742"/><path id="Path_336" data-name="Path 336" d="M23.8,35.8h-.4a.4.4,0,0,0-.1.3v2.4c0,.3.1.6.1,1a7.1,7.1,0,0,1-.1,1.4V44c0,.6.1,1.3.1,2s0,1.2.1,1.8v2.1c0,.5.1.9.1,1.4s.1.8.1,1.2.1,1.1.2,1.6h0c0,.1.1.2.1.3v-.2a.4.4,0,0,0,.1.3h1.7a.6.6,0,0,0,.6,0h.5a.6.6,0,0,0,.4-.9.7.7,0,0,0-.9-.5H25.3v-.5a8.8,8.8,0,0,1-.2-1.6c-.1-1.3-.1-2.7-.2-4V45.4a10.9,10.9,0,0,1-.1-1.8V36c0-.1,0-.2-.1-.2Z" fill="#ca4742"/><path id="Path_337" data-name="Path 337" d="M23.9,54.1h0Z" fill="#ca4742"/><path id="Path_338" data-name="Path 338" d="M25.9,55a.1.1,0,0,1-.1-.1A.1.1,0,0,0,25.9,55Z" fill="#ca4742"/><path id="Path_339" data-name="Path 339" d="M24.5,36.5a17.9,17.9,0,0,0-.2,2.3v4.1a7.4,7.4,0,0,0,0,2.1v1.1a3.8,3.8,0,0,0,.1,1V49c.1.9.1,1.7.2,2.5s.1.7.1,1,.1.6.2.9a.8.8,0,0,0,.2.5c0,.1.1.3.2.3a.9.9,0,0,0,.7.3.8.8,0,0,0,.7-.4.9.9,0,0,0,.3-.7v-.7l-.3-2c0-.7-.1-1.4-.1-2.1s.1-3,.1-4.4V41a4.9,4.9,0,0,0-.1-1.2v-.6a.9.9,0,0,0,.1-.5.7.7,0,0,0-.5-.9h-.4v-.5a.9.9,0,0,0,.1-.5.7.7,0,0,0-.5-.9h-.2a.7.7,0,0,0-.7.6Zm1.7,16.1h0Z" fill="#ca4742"/><path id="Path_340" data-name="Path 340" d="M35.2,34.9a2.7,2.7,0,0,1-.9,0h-11v1.3H35.2l.5-.2a1.4,1.4,0,0,0,.2-.6.8.8,0,0,0-.7-.7h0Z" fill="#ca4742"/><path id="Path_341" data-name="Path 341" d="M34.9,29.1H23.1v1.3H35.3a.8.8,0,0,0,.5-.9.8.8,0,0,0-.7-.5Zm0,0h0Z" fill="#ca4742"/><path id="Path_342" data-name="Path 342" d="M31.2,30v6a.8.8,0,0,0,.2.5l.5.2a.9.9,0,0,0,.6-.3.8.8,0,0,0,.2-.5V32.4c0-.3-.1-.6-.1-.8s.1-.5.1-.8v-.4c0-.1-.1-.1-.1-.2a.7.7,0,0,0-.5-.8h-.2a.9.9,0,0,0-.7.6Zm1.4.3Z" fill="#ca4742"/><path id="Path_343" data-name="Path 343" d="M33.6,27.2l-.5.2h-.8l-.3.3a.7.7,0,0,0-.1.5v2.6a20.1,20.1,0,0,1,.1,2.5v2.8a.7.7,0,0,0,.1.6c.1.1.2.3.4.3h.3c0,.2,0,.3.1.4a.7.7,0,0,0,.9.5c.2,0,.3-.1.4-.3a.4.4,0,0,0,.1-.3h.4a.8.8,0,0,0,.4-.7v-.7A2.2,2.2,0,0,1,35,35c-.1-.6-.1-1.2-.2-1.8l-.3-3.7c0-.1-.1-.2-.1-.3V28.1a1.4,1.4,0,0,0-.2-.6.6.6,0,0,0-.6-.3ZM32,35.7v0Z" fill="#ca4742"/><path id="Path_344" data-name="Path 344" d="M9.6,27.2a.8.8,0,0,0-.7.8h0a4.1,4.1,0,0,1-.1,1.1v1.8A4.1,4.1,0,0,0,8.7,32v2c0,.4.1.8.1,1.2v1.3a.8.8,0,0,0,.8.7.7.7,0,0,0,.7-.7,5.7,5.7,0,0,0-.1-1.3V33.5c0-.2-.1-.4-.1-.6a1.7,1.7,0,0,0,.1-.7V30.3c0-.3.1-.6.1-1s.1-.9.1-1.3a.8.8,0,0,0-.8-.7Zm-.8,3.9Z" fill="#ca4742"/><path id="Path_345" data-name="Path 345" d="M8.6,27l-.4.4a3.8,3.8,0,0,0-.3,1c0,.5-.1,1.1-.1,1.6v3.9a2.8,2.8,0,0,1,.1.9,11,11,0,0,0,.2,1.8.7.7,0,0,0,.9.5.8.8,0,0,0,.5-.9H9.4V34.8c0-.5-.1-1-.1-1.5V29.5c0-.3.1-.7.1-1.1a4.3,4.3,0,0,0,.1-.5c0,.1,0,.2-.1.2h.1c0-.2.1-.4,0-.6s-.2-.3-.3-.4H8.6Z" fill="#ca4742"/><path id="Path_346" data-name="Path 346" d="M11.2,29.5H8.7A.8.8,0,1,0,8.6,31h0A.3.3,0,0,0,9,31h8a.6.6,0,0,0,.8-.5.6.6,0,0,0-.4-.9.4.4,0,0,0-.5,0H14.5a3.3,3.3,0,0,1-1,0H11.2ZM16.9,31Zm.3,0h0Zm-.1,0ZM17,31Z" fill="#ca4742"/><path id="Path_347" data-name="Path 347" d="M16,26.8c-.1.1-.3.2-.3.3h-.9l-.4-.2a.5.5,0,0,0-.6.1h-.9c-.1-.2-.3-.2-.6-.2h-.4a.7.7,0,0,0-.6-.1H9.8a.5.5,0,0,0-.3.5,2,2,0,0,0-.1,1.1v.5c0,.2.1.4.1.6a.9.9,0,0,0,.6.6.7.7,0,0,0,.6-.1h.2a.7.7,0,0,0,.6-.1l.4.2h.5c.2,0,.3.1.5,0a.7.7,0,0,0,.5.4H14c.1-.1.2-.1.2-.2h.9l.2.2h.6l.4-.3h.6c.4,0,.8-.3.7-.7v-.6a1.3,1.3,0,0,0-.1-.6h0V28a.6.6,0,0,0-.1-.4,1,1,0,0,0-.4-.5h-.3l-.5-.2Z" fill="#ca4742"/><path id="Path_348" data-name="Path 348" d="M27,11.4l-.9.5-.9.7-.6.6c0,.1-.1.2-.1.3v.2l-.2.3v.2h0a.7.7,0,0,0-.1.5.6.6,0,0,0-.1.4c-.1.7-.3,1.3-.4,2V18a1.7,1.7,0,0,0-.1.7c0,.3-.1.5-.1.8v.4c0,.2-.1.3-.1.4v.9c0,.3-.1.6-.1.8h0v.9c0,.3-.1.6-.1.9h0v1.5h0v3.7c0,.2.1.4.1.7v1.1h.2a.8.8,0,0,0,.4-.4.7.7,0,0,0,.1-.5h0a1.7,1.7,0,0,0-.1-.7v-.8a2.8,2.8,0,0,0-.1-.9V23a2.2,2.2,0,0,1,.1-.8v-.9c0-.4.1-.7.1-1.1v.2a17,17,0,0,1,.4-2.2l.3-1.1a3.5,3.5,0,0,1,.3-1.1v.2a1.4,1.4,0,0,0,.2-.6l.4-.7.3-.6h.1l.6-.6,1-.7h1.4l.4.3a1.6,1.6,0,0,1,.4.7l.3.9h0v.2h0c0,.2.1.5.1.7s.1.5.1.7v.1h0a.7.7,0,0,1,.1.5h0c0,.1.1.2.1.3h0v.2h0c0,.3.1.5.1.8v4.4a2.8,2.8,0,0,0,.1.9c0,.2.2.3.3.4h.6a.8.8,0,0,0,.4-.4,1.3,1.3,0,0,0,.1-.6h0v-5c-.1-.3-.1-.7-.2-1h0v-.2h0V17h0c0-.2-.1-.4-.1-.6h0v-.3h0c-.1-.3-.1-.6-.2-.9s-.1-.5-.1-.7h0c-.1-.3-.1-.6-.2-.9l-.5-.9-.6-.7-.4-.3-.6-.2-.9-.2H27Zm-2,4.1h0ZM23.1,22ZM23,25.2Z" fill="#ca4742"/><path id="Path_353" data-name="Path 353" d="M25.7,14.3h-.1c.1,0,.1,0,.1-.1Z" fill="#ca4742"/><path id="Path_354" data-name="Path 354" d="M24.1,14.3Z" fill="#ca4742"/><path id="Path_355" data-name="Path 355" d="M31.2,14.6h0Z" fill="#ca4742"/><path id="Path_359" data-name="Path 359" d="M30.2,17.4h0Z" fill="#ca4742"/><path id="Path_361" data-name="Path 361" d="M31.8,23.4h0Z" fill="#ca4742"/><path id="Path_362" data-name="Path 362" d="M23.8,29.9h0Z" fill="#ca4742"/><path id="Path_363" data-name="Path 363" d="M28.2,11.2H26.8l-1.1.4-.5.5h0l-.2.2h-.1a.1.1,0,0,1-.1.1l-.2.4c0,.1-.1.2-.2.3h0v.2l-.2.3a.4.4,0,0,0-.1.3h0a1.3,1.3,0,0,0-.1.6.6.6,0,0,0-.1.4,14.2,14.2,0,0,0-.4,2,2.2,2.2,0,0,1-.1.8v.7c0,.3-.1.5-.1.8v.4c0,.2-.1.3-.1.4v.9a2.5,2.5,0,0,0-.1.8h0v.9c0,.3-.1.6-.1.9h0v1.5h0v1.6h.1a.5.5,0,0,0,.3-.5,1.3,1.3,0,0,0,.1-.6v-.3h0c.1-.5.1-1,.2-1.6V22.6h0a4.9,4.9,0,0,0,.1-1.2,2.8,2.8,0,0,1,.1-.9h-.1a2.2,2.2,0,0,0,.1-.8c.1-.5.1-1,.2-1.5a5.9,5.9,0,0,1,.2-1.3,5.3,5.3,0,0,1,.3-1.2,11.7,11.7,0,0,1,.5-1.1c.3-.3.4-.7.7-1a1.8,1.8,0,0,1,.5-.7l.5-.3.4-.3.4-.2h1.8l.3.3a5.3,5.3,0,0,1,.6,1,3.8,3.8,0,0,1,.3,1h0c0,.1.1.2.1.4a1.7,1.7,0,0,0,.1.7,5.1,5.1,0,0,0,.2,1.3h-.1a1.3,1.3,0,0,1,.1.6v-.2a12.3,12.3,0,0,1,.2,1.9c0,.3.1.6.1.8s.1.7.1,1a17,17,0,0,1,.1,2.2,2.8,2.8,0,0,1,.1.9v.8a.8.8,0,1,0,1.5-.1c-.1-.2,0-.5,0-.8s-.1-.6-.1-.8-.1-.8-.1-1.2h-.1c-.1-.1-.3-.2-.3-.4h.1a.1.1,0,0,0-.1-.1h0v-.3h0v-.2h0V19.4c0-.3-.1-.6-.1-.9v-1h0c0-.2-.1-.3-.1-.5h0v-.4h0a.3.3,0,0,0-.1-.2h0v-.4l-.3-1.2a.4.4,0,0,0-.1-.3.6.6,0,0,0-.1-.4,4.3,4.3,0,0,1-.1-.5h0l-.5-.9h-.1v-.2h0c-.1-.1-.2-.3-.4-.4l-.2-.2-.3-.2H28.2Zm-.3.7h0Zm-.2.1h0Zm-.1,0Zm-2.4.4h0Zm1.1.4Zm-.5.7h0Zm6.7,7.6h0Z" fill="#ca4742"/><path id="Path_364" data-name="Path 364" d="M32.1,16.4h0Z" fill="#ca4742"/><path id="Path_367" data-name="Path 367" d="M32.6,21.5Z" fill="#ca4742"/><path id="Path_370" data-name="Path 370" d="M25,12.6Z" fill="#ca4742"/><path id="Path_371" data-name="Path 371" d="M25,12.6Z" fill="#ca4742"/><path id="Path_372" data-name="Path 372" d="M24.9,12.7Z" fill="#ca4742"/><path id="Path_373" data-name="Path 373" d="M24.4,13.6h0Z" fill="#ca4742"/><path id="Path_374" data-name="Path 374" d="M23.9,20.3Z" fill="#ca4742"/><path id="Path_375" data-name="Path 375" d="M30.6,14.5h0Z" fill="#ca4742"/><path id="Path_376" data-name="Path 376" d="M23.7,22.6Z" fill="#ca4742"/><path id="Path_377" data-name="Path 377" d="M23.5,25.4h0Z" fill="#ca4742"/><path id="Path_378" data-name="Path 378" d="M28.4,5.4l-1.5.2H25.2l-.8.2-1,.4-.8.5-.8.5-.8.6a9.3,9.3,0,0,0-1.6,1.8,5.7,5.7,0,0,0-.8,1.3,2,2,0,0,0-.4.8l-.3.9-.3.9c0,.4-.1.7-.1,1.1L17.2,17a24.2,24.2,0,0,0-.3,2.5c.1,0,.1-.1.1-.2s-.1,1.5-.2,2.2h0c-.1,1.1-.2,2.3-.2,3.5a3.4,3.4,0,0,0-.1,1v2.9a6.5,6.5,0,0,0,0,1.4.7.7,0,0,0,.7.7.9.9,0,0,0,.8-.8h0a1.7,1.7,0,0,1-.1-.7v-.8a4.1,4.1,0,0,0,0-1.1v-.8a3.4,3.4,0,0,1,.1-1V24.6c0-.5.1-1,.1-1.6a5.7,5.7,0,0,0,.1-1.3h0a.4.4,0,0,1,.1-.3c0,.1-.1.1-.1.2s.1-1.4.2-2.2v.2c0-.4.1-.8.1-1.2v-.7a6.8,6.8,0,0,0,.2-1.4c.1-.5.1-.9.2-1.4l.3-1.5a4.9,4.9,0,0,1,.4-1.1v.2a8.6,8.6,0,0,1,1.1-1.9l.7-.9.8-.7.4-.3.6-.4.6-.4.6-.3.9-.3h.5l.5-.2h.9a10.3,10.3,0,0,1,2.5-.1l1.9.4.6.3h.3l.5.4.5.6.2.3h0l.6,1a3.3,3.3,0,0,1,.6,1h0c.1.1.1.3.2.4h0v.2H35a19.9,19.9,0,0,1,.9,2.6,1.9,1.9,0,0,0,.2.7,1.3,1.3,0,0,0,.1.6c.1.3.1.7.2,1a3.4,3.4,0,0,0,.1,1h0a13.6,13.6,0,0,1,.2,2,3.4,3.4,0,0,1,.1,1c.1.5.1,1,.2,1.5a2.8,2.8,0,0,0,.1.9v1.1a.8.8,0,1,0,1.5-.1c0-.3-.1-.7-.1-1.1v-.5c0-.2-.1-.4-.1-.6h0a5.7,5.7,0,0,1-.1-1.3c0-.3-.1-.6-.1-.9l-.3-2.1h0a1.3,1.3,0,0,0-.1-.6,2.5,2.5,0,0,0-.1-.8c0-.2-.1-.4-.1-.6s-.1-.5-.2-.7-.3-1.3-.5-1.9-.1-.5-.2-.7a3.9,3.9,0,0,0-.4-.9h.1a.8.8,0,0,1-.2-.4h-.1l-.3-.6-.3-.6A9.4,9.4,0,0,0,34.6,8h.1c-.1-.1-.2-.3-.4-.4L34,7.3a2.7,2.7,0,0,0-.8-.7h.1L33,6.5h0a3.5,3.5,0,0,0-1.4-.6l-1.5-.3H28.4Zm4.8,1.2ZM24.3,7.7h0Zm9,.9h0Zm.3.5h0ZM20.7,10.5h0Zm14.1.3h0ZM37,21.9Zm-18.7-.4Zm-1.5-.1h0Zm21.6,0h0Zm-1.9-4.1h0Zm1.4-.3h0ZM35,11.5h0Zm-.2-3.3h0Zm-2.5-.5a.1.1,0,0,1-.1-.1Zm-.1-.1ZM26.7,7h0Zm.4,0h0ZM33,6.4h0Zm-6.8-.7h.1A.1.1,0,0,0,26.2,5.7Zm.6-.1Z" fill="#ca4742"/><path id="Path_379" data-name="Path 379" d="M33.8,21.8H31.1c-.4,0-.6.4-.6.8s.4.7.8.6h7.3a.7.7,0,0,0,.6-.1.8.8,0,0,0,.2-.5.4.4,0,0,0-.1-.5.5.5,0,0,0-.5-.3H37.7a4.8,4.8,0,0,0-1.2,0H33.8Z" fill="#ca4742"/><path id="Path_380" data-name="Path 380" d="M36.8,15.3l-.4.3a.7.7,0,0,0-.1.6h0a17.7,17.7,0,0,0,.1,2.3v.1a4.1,4.1,0,0,0,.1,1.1v3.2a1.4,1.4,0,0,0,.2.6l.5.2A.8.8,0,0,0,38,23a4.8,4.8,0,0,1,0-1.2v-.7a10.3,10.3,0,0,0-.1-1.7v.2a5.7,5.7,0,0,0-.1-1.3V17.1c0-.4-.1-.8-.1-1.2a.9.9,0,0,0-.3-.5h-.6Z" fill="#ca4742"/><path id="Path_381" data-name="Path 381" d="M28.7,12.1l-.2.2a.9.9,0,0,0-.7-.3h-.3l-.4.2a1,1,0,0,0-.6.5l-.7.9-.5.8-.3.6a7.6,7.6,0,0,0-.8,2.1.3.3,0,0,1-.1.2c-.3.1-.6.3-.6.6h0a1.7,1.7,0,0,0-.1.7,2.2,2.2,0,0,1-.1.8v.4c0,.2,0,.3-.1.4v.9c0,.2-.1.5-.1.7h0v1.8h0a2.8,2.8,0,0,0-.1.9h0V25a4.9,4.9,0,0,0,.1,1.2c0,.1.1.2.1.3v.4a4.1,4.1,0,0,1,.1,1.1v.2a3,3,0,0,0,.2,1,.7.7,0,0,0,.7.6c.2,0,.5,0,.6-.2h.1l.4.2a.4.4,0,0,0,.5,0l.3-.3.3-.2a1.1,1.1,0,0,0,.3-.8v-.8a4.5,4.5,0,0,0,.1-1.1V26c0-.2-.1-.3-.1-.5a.6.6,0,0,0-.1-.4c0-.1-.1-.1-.1-.2l-.4-.2v-.2h0c0-.2.1-.3.1-.5a4.3,4.3,0,0,0,.2-1.1,15.7,15.7,0,0,0,.4-2.3l.3-2.5a.8.8,0,0,1,.1-.4h0l.3-.5a.9.9,0,0,0,.8.6l.5-.2.3-.4h.1v.4a3.7,3.7,0,0,0-.1,1.1.8.8,0,0,0,.8.7.7.7,0,0,0,.7-.7V17.7c.1-.3.1-.6.2-.9v-1a1.3,1.3,0,0,0,.1-.6,1.3,1.3,0,0,0-.1-.6,1.3,1.3,0,0,0-.1-.6l-.5-.4h0a2.3,2.3,0,0,0-.3-1.1l-.4-.3h-.8ZM23.1,25.9h0Z" fill="#ca4742"/><path id="Path_382" data-name="Path 382" d="M31.9,27.1l-2.1.2H26.7l-.5-.2h-.7l-.7.4a1,1,0,0,0-.2.7.9.9,0,0,0-.3.6.8.8,0,0,0,.5.8h7.3c.2,0,.3-.1.4-.3h2.1a.9.9,0,0,0,.8-.8.8.8,0,0,0-.8-.7H33.5c0-.2,0-.3-.2-.4l-.4-.3h-1Z" fill="#ca4742"/></g></svg>