<svg id="Layer_1" data-name="Layer 1" xmlns="http://www.w3.org/2000/svg" width="5.2in" height="2.5in" viewBox="0 0 371.1 180.2"><title>footer-logo-2</title><g id="Group_41" data-name="Group 41"><circle id="Ellipse_1" data-name="Ellipse 1" cx="66.7" cy="58.9" r="56.4" fill="none" stroke="#ca4742" stroke-miterlimit="10" stroke-width="5"/><g id="Group_2" data-name="Group 2"><path id="Path_2" data-name="Path 2" d="M41.1,37.7a1.8,1.8,0,0,0-.9,1,3.6,3.6,0,0,0-.2,1.1,22.6,22.6,0,0,0-.1,2.6c-.1,1-.1,2-.1,3s-.2,2.3-.2,3.5v3.4c0,1.2,0,2.3.1,3.5V56c.1,1.5.1,2.9.1,4.4a19.3,19.3,0,0,0-.1,2.4c0,.8.1,1.6.1,2.3a33.9,33.9,0,0,1-.2,4.5c0,1-.1,1.9-.1,2.9v2.7a16.1,16.1,0,0,0,0,2.2,12.8,12.8,0,0,1-.1,1.9V81c0,.7-.1,1.3-.1,2-.1,2.9,0,5.8-.2,8.7s.1,3.6,0,5.4-.1,3-.1,4.6,0,2.7-.1,4.1,0,2.9-.1,4.3a20.9,20.9,0,0,1-.1,2.5c0,1,.1,1.9.1,2.9s-.1,4.2-.1,6.2a48.6,48.6,0,0,1,0,5.4,20.8,20.8,0,0,1,0,2.5v3.2c0,1.6,0,3.3.1,5s.1,2,.2,3a.6.6,0,0,0-.1-.4,9.7,9.7,0,0,1,.1,1.7,16.4,16.4,0,0,0,.2,2.3v2.5a1.7,1.7,0,0,0,1.5,1.8,1.7,1.7,0,0,0,1.9-1.6h0v-2.2a16.4,16.4,0,0,0-.2-2.3,21.7,21.7,0,0,0-.1-2.6v-1.5a16.4,16.4,0,0,0-.2-2.2v-5.4c0-1.7,0-3.5.1-5.2a25.3,25.3,0,0,0-.1-2.8V120c.1-1.1.1-2.1.1-3.2s-.1-2-.1-3,.1-3.3.2-4.9v-2.3c0-.6.1-1.2.1-1.8v-4.3a17.7,17.7,0,0,1,.1-2.3V92.9c0-.8.1-1.6.1-2.5V86.2c0-1.4.1-2.8.2-4.2V80.1a10.9,10.9,0,0,0,.1-1.8c-.1-1.5,0-3,0-4.5s0-2,.1-3,.1-1.6.1-2.4a30.9,30.9,0,0,0,0-4.3c0-.9.1-1.7.1-2.6V59.1c0-1.1-.1-2.2-.1-3.2h0A2,2,0,0,0,43,55h0V49.7a9.7,9.7,0,0,1,.1-1.7c.1-1.1.1-2.2.1-3.4s.1-1.9.1-2.8a8.1,8.1,0,0,1,.1-1.6h0a1.1,1.1,0,0,1,.1-.5h0v-.2c0,.1,0,.1.1.2l-1.1-1.6-.3-.6h-.3l-.7.2Zm2.3,2.1Z" fill="#ca4742"/><path id="Path_3" data-name="Path 3" d="M43.1,55.8h0v-.2Z" fill="#ca4742"/><path id="Path_5" data-name="Path 5" d="M43.1,56.1v0Z" fill="#ca4742"/><path id="Path_6" data-name="Path 6" d="M41.2,37.3a1.5,1.5,0,0,0-.3,1.3,1.4,1.4,0,0,0,.6,1.1c.8.8,1.6,1.5,2.3,2.3l2.6,2.8L49.6,48l2.2,2.3L54,52.4l2.3,2.2,2.4,2L61,58.4l2.3,1.8c1.5,1.2,3.1,2.2,4.6,3.3l-1.2-1-1.2-.9-.8-.6-.6-.5a6.9,6.9,0,0,1-1.3-1.1.1.1,0,0,0,.1.1L61.2,58l-1.3-1.2-1.4-1.3-1.4-1.3h0L55,52.4l-1-1a6,6,0,0,0-.8-.8,4.7,4.7,0,0,0-1-1l-.8-1-1.1-1.1-.9-1-.9-.9-.7-.8-1.6-1.7-1.5-1.7a12.7,12.7,0,0,1-1.3-1.9v.2c-.3-.6-.7-1.1-1-1.6a7.5,7.5,0,0,1-.7-1.2l-.5.4Z" fill="#ca4742"/><path id="Path_7" data-name="Path 7" d="M39.9,54.9a1.7,1.7,0,0,0,.3,2.4c1.3.9,2.7,1.9,4.1,2.7l2.5,1.6h0c2.2,1.3,4.5,2.3,6.8,3.4l3.6,1.5,3.9,1.4H61l2.3.8,2.6.9h0l1.2.3h.4l2.6.8A38.4,38.4,0,0,0,79,72.2h2.7l-1-.5L78,70.2l-2.7-1.5-.5-.3-3.4-.8h0c0-.1-.1-.1-.2-.1h-.1l-2.8-.9h0L67,66.3h0l-2.6-.9L62,64.7h.2a23.5,23.5,0,0,1-3.7-1.4l-3.6-1.4c-2.1-1-4.3-2-6.3-3.2-.1,0-.1,0-.1-.1l-2.9-1.7h.2c-1.2-.7-2.3-1.6-3.5-2.4a2,2,0,0,0-1.1-.3,1.6,1.6,0,0,0-1.3.6Zm8.2,3.5h0Z" fill="#ca4742"/><path id="Path_8" data-name="Path 8" d="M46.7,61.5h0Z" fill="#ca4742"/><path id="Path_9" data-name="Path 9" d="M46.9,61.6Z" fill="#ca4742"/><path id="Path_10" data-name="Path 10" d="M68.7,66.9h0Z" fill="#ca4742"/><path id="Path_11" data-name="Path 11" d="M71.4,67.6h0Z" fill="#ca4742"/><path id="Path_12" data-name="Path 12" d="M61,67.9Z" fill="#ca4742"/><path id="Path_13" data-name="Path 13" d="M65.9,69.5Z" fill="#ca4742"/><path id="Path_14" data-name="Path 14" d="M67.2,69.9h0Z" fill="#ca4742"/><path id="Path_15" data-name="Path 15" d="M67.3,70h0Z" fill="#ca4742"/><path id="Path_17" data-name="Path 17" d="M48.6,53.4a1.8,1.8,0,0,0-.3,1.2,1.7,1.7,0,0,0,.6,1.2,2,2,0,0,0,1.3.4,1.9,1.9,0,0,0,1.1-.7,1.7,1.7,0,0,0,.4-1.2,1.9,1.9,0,0,0-.7-1.2,1.7,1.7,0,0,0-1.2-.3,1.4,1.4,0,0,0-1.2.6Z" fill="#ca4742"/><path id="Path_18" data-name="Path 18" d="M43.9,41.3a2.4,2.4,0,0,0-1.1.6h-.4a1.9,1.9,0,0,0-1.6.6c-.6.7-.3,1.9-.2,2.8a17,17,0,0,0,.4,2.2c.2,1.4.3,2.7.6,4.1a3.2,3.2,0,0,0,.3.9v.5a.4.4,0,0,0,.1.3,2,2,0,0,0-.5.9v.5a1.9,1.9,0,0,0,.7,1.2l1,.6,1.3.7,2.8,1.6,5.8,3.5H53l2.1,1.2a3.6,3.6,0,0,0,2.7.8l.6.4.9.6a5.7,5.7,0,0,0,1.3.8,1.9,1.9,0,0,0,1.8-.3l.7.4,3.1,1.3a1.7,1.7,0,0,0,1.6-.7h0l.4.2,1.3.7a4.6,4.6,0,0,0,2,.5h.4l2.1.9a18,18,0,0,0,2.2.6h.2l.6.2h.8l-2.5-1.4-2.5-1.6c-.8-.6-1.7-1.1-2.5-1.8l-2.4-1.8-1.2-1-1.2-.9-.8-.6-.6-.5-1.3-1.1h.1A12.2,12.2,0,0,1,61.2,58l-1.3-1.2-1.4-1.3-1.4-1.3h0L55,52.4l-.9-1-.9-.8-.9-1-.4-.5-.4-.3.3.3-1.5-1.6h0l-.9-1-.9-.9-.7-.8-1.6-1.7-1.4-1.6-.8-.2Z" fill="#ca4742"/><path id="Path_19" data-name="Path 19" d="M52.9,62.3h0Z" fill="#ca4742"/><path id="Path_20" data-name="Path 20" d="M53,62.4h0Z" fill="#ca4742"/><path id="Path_21" data-name="Path 21" d="M47.1,61v3a24.5,24.5,0,0,1,.2,2.7v14a20.9,20.9,0,0,1-.1,2.5c-.1,1.1-.1,2.2-.1,3.2s-.1,2-.2,3-.1,2.1-.1,3.1,0,2.2-.1,3.3-.1,2-.1,3-.1,2.1-.1,3.1a24.4,24.4,0,0,0-.1,2.7c0,.9-.1,1.8-.1,2.6s-.1,4.4-.1,6.6v19.1c.1.8.1,1.5.2,2.2s.1,1.6.1,2.4.2,2.8.2,4.2a12.1,12.1,0,0,0,.1,1.9,7.6,7.6,0,0,0,.1,1.5v1.3c.1.4.1.8.2,1.2v.3a2,2,0,0,0,1.2,1.2h.9a1.8,1.8,0,0,0,1.1-.8h0a1.5,1.5,0,0,0,.1-1.3h0c0-.2-.1-.3-.1-.5a9.2,9.2,0,0,0-.1-1.6c-.1-.7,0-1.5-.1-2.2V140c-.1-1.1-.2-2.1-.2-3.1s-.1-2.1-.2-3.1-.1-2.3-.1-3.5v-19c0-1.1,0-2.2.1-3.3s.1-1.8.1-2.6v-2.7c.1-1,.2-2.1.2-3.1a28.1,28.1,0,0,1,.1-2.9c0-1.1.1-2.2.1-3.3V90.2a28.3,28.3,0,0,0,.2-2.9c0-.5.1-1,.1-1.5a10.9,10.9,0,0,1,.1-1.8c0-.8.1-1.7.1-2.6V68.5c0-1.2,0-2.5-.1-3.7s-.1-1.1-.1-1.7V61a1.7,1.7,0,0,0-3.4,0Zm3.2,85.1h0Zm.1.9h0v0Z" fill="#ca4742"/><path id="Path_22" data-name="Path 22" d="M41.3,136l-3.2.7-3,.9-2.9,1.3c-.9.4-1.9.7-2.8,1.2a22.8,22.8,0,0,0-3,1.7L24,143.7l-2.4,2.1-2.3,2a18.9,18.9,0,0,0-2,2,13.7,13.7,0,0,0-2.6,5.9,15.5,15.5,0,0,0-.6,3.1,8.1,8.1,0,0,0,0,3.1,13.6,13.6,0,0,0,1.1,2.8,9,9,0,0,0,1.7,2.6,8.6,8.6,0,0,0,2,1.8,8.5,8.5,0,0,0,3,1.5,16.4,16.4,0,0,0,6.6,1.1,12.3,12.3,0,0,0,3.2-.7,12.5,12.5,0,0,0,2.5-.9,18.2,18.2,0,0,0,4.7-3.1h-.1l.2-.2h.1l1.9-1.9,1.7-1.9c1-1.2,2.1-2.3,3-3.5s1-1.6,1.4-2.4l1-2.1a4.1,4.1,0,0,0,.5-.9,4.2,4.2,0,0,0,.4-1,19.5,19.5,0,0,0,.8-2.2,10.6,10.6,0,0,0,.4-1.9,11,11,0,0,0,.2-1.8,2.4,2.4,0,0,0-.6-1.1,2,2,0,0,0-1.3-.4,2.4,2.4,0,0,0-1.1.6,1.3,1.3,0,0,0-.4,1h0a7.7,7.7,0,0,1-.2,1.5,11.6,11.6,0,0,1-.4,1.8,6.9,6.9,0,0,1-.5,1.3,8.9,8.9,0,0,1-.8,1.7L43.3,157a30.7,30.7,0,0,1-2.9,3.4l-1.8,2.1-2,2,.4-.3-.6.5.3-.3a18.6,18.6,0,0,1-2.8,2.1,20.9,20.9,0,0,1-4.4,1.6,6.4,6.4,0,0,1-2,.3,18.6,18.6,0,0,1-3.4-.6l-1.4-.5-1.6-.7a9.7,9.7,0,0,1-2.7-3,9.5,9.5,0,0,1-.9-2.1,6.2,6.2,0,0,1-.1-1.3,8.3,8.3,0,0,1,.3-2.2,20.5,20.5,0,0,1,.5-2.4,13.9,13.9,0,0,1,1.2-2.8,10.8,10.8,0,0,1,1.6-2l1.8-1.6,2.3-2,2.3-1.9a14.3,14.3,0,0,1,2.4-1.6l2.1-1,2.4-1.1,2.5-1,2.6-.7h-.1l2.4-.6,2.4-.2a1.7,1.7,0,0,0,1.1-.6,2,2,0,0,0,.4-1.3,2.4,2.4,0,0,0-.6-1.1,2,2,0,0,0-1.3-.4h-.1a8.5,8.5,0,0,0-2.3.3Zm-7.2,30.4h0Zm-.2.1h0Zm-6.3,1.9h0Zm11.5-1.6Z" fill="#ca4742"/><path id="Path_23" data-name="Path 23" d="M36.4,135.3a27.3,27.3,0,0,0-5.6,1.5,19.9,19.9,0,0,0-2.6.9l-2.4,1A52.4,52.4,0,0,0,21,141l.4-.2-1.5.8-1.3,1c-.8.5-1.5,1.2-2.3,1.8a18,18,0,0,0-5.1,7,19.6,19.6,0,0,0-1.2,3.4,22.7,22.7,0,0,0-.6,3,12.2,12.2,0,0,0-.2,3.3,13.5,13.5,0,0,0,.4,2.9,10.9,10.9,0,0,0,1,2.5,7.9,7.9,0,0,0,1.4,2.3l1.7,1.7a13.8,13.8,0,0,0,2.4,1.4,15.8,15.8,0,0,0,3.1.9l3,.4a16,16,0,0,0,3.1,0,24.8,24.8,0,0,0,5.9-1.7l2.4-1.4.9-.6,1.2-1h-.2a41.1,41.1,0,0,0,2.9-3,12.2,12.2,0,0,0,1.5-1.7,24.3,24.3,0,0,1,1.4-2,1.7,1.7,0,1,0-2.6-2.2h0l-1.4,1.9-1.4,1.8-2.7,2.8h0a18.8,18.8,0,0,1-2.3,1.6,23.9,23.9,0,0,1-4.4,1.8l-2.9.3a22.5,22.5,0,0,1-5.2-.8,7.2,7.2,0,0,1-2-.9l-1.6-1.3-.9-1.3a10.9,10.9,0,0,1-1.1-2.7,13.6,13.6,0,0,1-.3-2.9,18.5,18.5,0,0,1,.4-2.3,18.4,18.4,0,0,1,.5-2.5l.9-2.4,1.1-2.2a18.6,18.6,0,0,1,2.6-3.1l2.1-1.8a22,22,0,0,1,2.5-1.7l.6-.3-.4.2,2.9-1.5,2.9-1.2,3.3-1.2a28,28,0,0,1,3.1-.9l2.8-.5,2.5-.2,1.2.2a1.7,1.7,0,1,0,.6-3.4l-2.2-.2-3.5.3Zm-14,8.7h0Zm-6.8,6.3v0Zm-3.1,9.9v0Zm20.7,6-.3.2Zm-9.5,3.7h0Zm11.6-1.1.2-.2Zm-2-2.7.2-.2Z" fill="#ca4742"/><path id="Path_24" data-name="Path 24" d="M42.2,137.2a3.5,3.5,0,0,0-1.4.6H39.6l-1.1.2-1,.6a9.5,9.5,0,0,0-1.6,1.2,3.8,3.8,0,0,0-1.5-.1,5.1,5.1,0,0,0-2.1,1l-.3.3-.4-.2h-.8l-1.1.3-.6.3a1.7,1.7,0,0,0-1.8-1l-1.7.4L23.4,142a11.8,11.8,0,0,0-2.7,2.3l-.5.4h-.1l-.4.3a20.3,20.3,0,0,0-5.7,4.4,13.7,13.7,0,0,0-1.3,2,11.1,11.1,0,0,0-.7,1.6,12.3,12.3,0,0,0-.4,3.8,14.8,14.8,0,0,0,.1,2.1,13.5,13.5,0,0,0-.5,5.3,7.5,7.5,0,0,0,1.8,4.3,2.8,2.8,0,0,0,1.2.8,3.1,3.1,0,0,0,1.9.1,1.3,1.3,0,0,0,.7.6,1.8,1.8,0,0,0,2-.1,1.6,1.6,0,0,0,.6-.8l.2-.3.4.2h.6a.9.9,0,0,1,.1.5,1.8,1.8,0,0,0,2.3.9l.7-.5.5-.7a1.7,1.7,0,0,0,2,.5l.5-.2h0a1.4,1.4,0,0,0,1.2.3,1.8,1.8,0,0,0,1.2.3,2,2,0,0,0,1.5-.6l1.2-.8.3-.4a2,2,0,0,0,1.3.1l1.6-1,1.1-1,2.7-2.6c1.4-1.4,3-2.9,4.3-4.4a24.5,24.5,0,0,0,3.8-5.3l.6-1.5a7.8,7.8,0,0,0,.7-2.5,8.1,8.1,0,0,0-.1-2.2,4.8,4.8,0,0,0-.7-2,1.8,1.8,0,0,0-1-.7,2,2,0,0,0-.2-1.3,1.8,1.8,0,0,0-.5-.7v-.4a1.1,1.1,0,0,0-.3-1.1,2.1,2.1,0,0,0-.4-.6l-.6-.3a1.7,1.7,0,0,0,.1-.7,2.3,2.3,0,0,0-1.2-2.7H42.2Zm.9,3.2h0Z" fill="#ca4742"/><path id="Path_25" data-name="Path 25" d="M43.1,106.8a.9.9,0,0,0-.7.3,1.6,1.6,0,0,0-1.6.5,2.2,2.2,0,0,0-.4,1.3c0,1.2,0,2.5.1,3.7s.1,2.3.2,3.4a9.2,9.2,0,0,0,.1,1.6,6.1,6.1,0,0,0-.1,1.4c-.1,1.2-.1,2.4-.2,3.5a.6.6,0,0,1,.1-.4,27.1,27.1,0,0,0-.1,2.9v-.5a136.7,136.7,0,0,0,.5,14.3,1.8,1.8,0,0,0,1.9,1.5l.7-.2v.3c0,.6.1,1.1.1,1.6s.1.2.1.3a6.6,6.6,0,0,0,.1,1.4,2,2,0,0,0,.9,1.3,6.9,6.9,0,0,1-.2,1.3c-.2.7-.3,1.4-.5,2a1.5,1.5,0,0,0,.3,1.3,1.4,1.4,0,0,0,1.1.7,1.3,1.3,0,0,0,1.2-.3,1.9,1.9,0,0,0,.7-1.1c.3-1.1.6-2.2.8-3.3l.3-3.6a62.6,62.6,0,0,0-.2-7.5l-.6-7.2c-.2-1.3-.4-2.6-.5-3.8s-.3-2.4-.5-3.5a29.3,29.3,0,0,0-.5-2.9,1.8,1.8,0,0,0-.7-.8v-1.8a19.3,19.3,0,0,0-.1-2.4v-1.5c0-.5-.1-.9-.1-1.4s-.1-.5-.1-.7l-.2-.4a.9.9,0,0,0-.3-.6,1.7,1.7,0,0,0-1.4-.7Z" fill="#ca4742"/><path id="Path_26" data-name="Path 26" d="M43.4,56.5l-.6.7a2.8,2.8,0,0,0-.1.9,3.7,3.7,0,0,0-.1,1.1h0a1.4,1.4,0,0,0-.2.6,17.5,17.5,0,0,0-.5,4c-.1,1.3-.2,2.7-.2,4s-.1,2.7-.2,4v2.3c0,.7-.2,1.9.6,2.4l.7.3v.5a2.3,2.3,0,0,0-1.5,1,9.3,9.3,0,0,0-.4,2.3,8.8,8.8,0,0,0-.2,1.7,16.4,16.4,0,0,1-.2,2.3c0,1.3-.1,2.6-.1,3.8s-.2,5.1-.2,7.7.1,5,.3,7.5.2,4.8.4,7.2l.3,4.1c.1,1.4.3,2.8.5,4.3a1.6,1.6,0,0,0,1.3,1.4,3.4,3.4,0,0,0,.6,1.5,2,2,0,0,0,1.6.7,1.9,1.9,0,0,0,1.5-1.4,19.3,19.3,0,0,0,.1-2.4V104.1a.5.5,0,0,0,.2-.4,3.5,3.5,0,0,0,.3-1.1v-.4a2.2,2.2,0,0,1,.1-.8,13.7,13.7,0,0,1,.2-1.9c.1-1.1.1-2.3.1-3.5s.1-5.3.1-7.9,0-4.6,0-7V73.3c.1-2.1.1-4.2.1-6.3V64.1c0-1.2,0-2.5-.1-3.7a1.8,1.8,0,0,0-1.6-1.5L46,57.3a1.6,1.6,0,0,0-1.6-1.1,1.7,1.7,0,0,0-1,.3Z" fill="#ca4742"/><path id="Path_27" data-name="Path 27" d="M40.9,35.6a1.8,1.8,0,0,0-.8,2.3c.6.9,1.1,1.8,1.7,2.6l1.5,1.8c1,1.3,2,2.5,3.1,3.7l3.5,3.9a20.9,20.9,0,0,1,2,2.2c.8.8,1.5,1.6,2.3,2.3L59.3,59l-.3-.2,4.4,3.6,4.2,3,4.7,3.1,4.8,2.9,2.6,1.4,2.5,1.3h.1l.5.3,4.8,2.2L90.8,78a2,2,0,0,0,1.3.2,1.7,1.7,0,0,0,1.3-2,1.9,1.9,0,0,0-.7-1.1l-1.8-.8L89,73.5l-2-1-2.4-1-.7-.3h0l-.5-.3-4-2.1L74.6,66c-3-1.9-5.9-4-8.9-6.1l-3.1-2.5-1.8-1.5h-.1l-2-1.8-2.4-2.2L54,49.3l-2-2.1c-2.2-2.4-4.4-5-6.5-7.5L44,37.8l-.8-1.4a1.8,1.8,0,0,0-1.6-.9ZM62.6,57.4l.3.3ZM83.4,70.9l.4.2ZM59.4,59h0Zm1.4-3.2h0c0-.1-.1-.1-.1-.2Z" fill="#ca4742"/><path id="Path_28" data-name="Path 28" d="M44.5,57.3a1.6,1.6,0,0,0-.1,2.4,15.2,15.2,0,0,0,2.2,2.2l1.9,1.4A38.7,38.7,0,0,0,52.8,66l2.4,1.2a26.4,26.4,0,0,0,2.9,1.5l2.3,1,2.5,1,2.5,1,2.7,1.1,2.6,1,2.4.9a73.2,73.2,0,0,0,9.2,2.4,34.7,34.7,0,0,0,4.5.6l1.7.2,2.2.2a1.8,1.8,0,0,0,1.8-1.6,1.7,1.7,0,0,0-1.6-1.8h0l-1.2-.2h-1l-1.9-.2L84.4,74l-2.1-.3a85.2,85.2,0,0,1-9-2.6l-2.5-.9-2.6-1-2.6-1.1-2.5-1-4.2-1.7-3-1.6-2.8-1.6-2.6-1.6-2.2-1.7-1.4-1.5a1.6,1.6,0,0,0-2.4-.1Zm14.2,8h0Zm.3.1h0Zm22.9,8.2h0Z" fill="#ca4742"/><path id="Path_29" data-name="Path 29" d="M67.6,68.4a1.7,1.7,0,0,0,1.1,2.1c2.2.8,4.2,2,6.4,2.7l3.2.9,1.5.5,1.4.4A1.7,1.7,0,0,0,83,72.1h0a4.9,4.9,0,0,0-1.7-.6l-1.7-.6L76.4,70c-2.3-.7-4.3-1.9-6.6-2.7h-.5a1.8,1.8,0,0,0-1.7,1.2ZM81,74.9Z" fill="#ca4742"/><path id="Path_30" data-name="Path 30" d="M46.3,61.8a1.7,1.7,0,0,0-1.3,2,1.9,1.9,0,0,0,.7,1.1l2.7,1.3,2.8,1.4h-.1l.7.3h.4l.6.3,1.6.7a25.2,25.2,0,0,0,2.9,1.2l2.9,1,6,1.8,5.7,1.5,4.5,1h.3l1.1.2h-.1l4.2.6,1.9.2,2,.3a1.8,1.8,0,0,0,1.8-1.6,2,2,0,0,0-.4-1.3,1.7,1.7,0,0,0-1.2-.5l-1.9-.3L82.3,73a26,26,0,0,1-3.9-.5h.4l-1.3-.2h-.3c-3.5-.7-7-1.6-10.5-2.6l-6-1.8a42.4,42.4,0,0,1-5.9-2.3l-1.1-.5-.3-.2H53l-2.9-1.4.4.2L47.6,62a1.7,1.7,0,0,0-1-.3ZM77.4,72.4h0Z" fill="#ca4742"/><path id="Path_31" data-name="Path 31" d="M41.1,132.7h-.8l-2.8.3-3.1.7-2.9.6-2.8.9-3.2,1c-.9.4-1.9.7-2.8,1.2l-2.6,1.2-3,1.3a16.4,16.4,0,0,0-2.9,1.6,26.9,26.9,0,0,0-2.7,2,43.5,43.5,0,0,0-4.1,3.4l-2,1.9a16.9,16.9,0,0,0-2,2.5,21,21,0,0,0-1.5,3,15.2,15.2,0,0,0-.9,2.8c-.2.6-.3,1.3-.5,1.9s-.3,1.4-.4,2.1a21.7,21.7,0,0,0-.1,2.6A5.9,5.9,0,0,0,.2,165l.3,1.3.6,1.5a7.5,7.5,0,0,0,.7,1.2,12.6,12.6,0,0,0,3.1,3,12.8,12.8,0,0,0,2.5,1.5l2.4.9,3.1.5,2.9.4,2.5.2h4.5l2-.5a27.4,27.4,0,0,0,4-1.5,26,26,0,0,0,4-2.3c1-.7,1.9-1.5,3-2.2l1.1-.8a1.7,1.7,0,0,0-2.2-2.6l-.9.6-1.6,1.2-1.7,1.3a28.3,28.3,0,0,1-5.8,2.8l-1.9.5-1.9.2H19.8a35.5,35.5,0,0,1-4.6-.3l-2.2-.3-1.9-.3A16.6,16.6,0,0,1,8,170a13.7,13.7,0,0,1-2.4-1.8L4.5,167a8.4,8.4,0,0,1-.6-1.4,8.7,8.7,0,0,1-.5-2.2,15.5,15.5,0,0,1,.3-3.1l.3-1.2A22.1,22.1,0,0,1,5.8,154a15.1,15.1,0,0,1,1.8-2.6,16.2,16.2,0,0,1,1.9-1.8l2-1.8a18.4,18.4,0,0,1,2.2-1.7,24.8,24.8,0,0,1,2.6-1.9,14.3,14.3,0,0,1,2.7-1.5l3.3-1.4,2.8-1.3,3-1.1a55,55,0,0,1,5.8-1.6l3.3-.8a11.5,11.5,0,0,1,2.6-.3l2-.2a1.9,1.9,0,0,0,1.1-.7,1.8,1.8,0,0,0-.5-2.4l-.9-.2Zm-.9,3.4h0ZM28,138.9h0ZM7.8,151.2h0Zm-4.1,9.3h0Zm-.3,2.9v.1Zm.9,3.3a.1.1,0,0,1,.1.1A.1.1,0,0,0,4.3,166.7Zm1,1.3.2.2ZM0,163.9v0Z" fill="#ca4742"/><path id="Path_32" data-name="Path 32" d="M39.7,158.5a7.6,7.6,0,0,1-1.1,1.4l-1.2,1.7a1.8,1.8,0,0,0,.5,2.4,1.6,1.6,0,0,0,2.3-.4l1.2-1.7,1.1-1.4a1.7,1.7,0,0,0-.4-2.4,1.7,1.7,0,0,0-1-.3,1.9,1.9,0,0,0-1.4.7Z" fill="#ca4742"/><path id="Path_33" data-name="Path 33" d="M19.9,141.4H18.2l-1.7.5-1.3.7-1.6,1A26.1,26.1,0,0,0,9,147.9c-.6.6-1.1,1.3-1.7,2H7.1l-.7.6a2.7,2.7,0,0,0-.7.8,4.7,4.7,0,0,0-.5,1,16.2,16.2,0,0,0-1,1.8,11.1,11.1,0,0,1-.7,1.6l-.6,1.8a23.4,23.4,0,0,0-.9,3.8,11.4,11.4,0,0,0-.2,3.7,2.6,2.6,0,0,0,1.6,2.1,2.2,2.2,0,0,0,.1.8,2.3,2.3,0,0,0,1.4,1.8,3.2,3.2,0,0,0,1.4.1,5.1,5.1,0,0,0,1.8.9h.6l1.3.7c.1.1.2.3.4.4a3.3,3.3,0,0,0,1.5,1.1,4.3,4.3,0,0,0,1.9.4h1.6a12.8,12.8,0,0,0,5.5-.3,19.2,19.2,0,0,0,3.9-1.7,1.6,1.6,0,0,0,.8-2.2,1.7,1.7,0,0,0-2.3-.8h0l-3.2,1.4-1,.2a2.5,2.5,0,0,0-.1-.8,4.2,4.2,0,0,0-.9-1.4h-.2a3.9,3.9,0,0,0-1-1.6l-1.7-1.1h0a7.7,7.7,0,0,0,.2-1.5,4.4,4.4,0,0,0-1.6-3.4l-.8-.5.3-1c.2-1.2.4-2.4.5-3.5s.1-2.5-.8-3.1l-.3-.2.3-1.2a4.1,4.1,0,0,0,.1-1.9l.9-.8a9.5,9.5,0,0,1,2-1.5,9.4,9.4,0,0,1,2.2-1.2l1.1-.2h.4a1.7,1.7,0,0,0,1.2-.4,1.7,1.7,0,0,0,.2-2.4h0a1.4,1.4,0,0,0-1.2-.6Zm-8,21.4H12a1.3,1.3,0,0,1-.1.6,3,3,0,0,1-.2,1l-.7.4h-.2c.4-.7.7-1.5,1.1-2.3Zm.1.3h0Zm8,6.7h0Z" fill="#ca4742"/><path id="Path_34" data-name="Path 34" d="M47,148a5.9,5.9,0,0,1-.2,1.4c-.1.5-.1,1-.2,1.4a11.8,11.8,0,0,1-.7,2,10.8,10.8,0,0,1-.8,1.9l-.6,1.3v-.2l-.2.4h0a29,29,0,0,1-2,3.3,22.6,22.6,0,0,1-2.5,2.9l.3-.3-1.4,1.6a29.1,29.1,0,0,1-3.1,3l-3,2.2L30,170.4l-2.9,1.4a34.9,34.9,0,0,1-7.2,1.2,17.2,17.2,0,0,1-3.9-.4H14.9l-1.4-.4h-.2c-.1-.1-.1-.1-.1-.2a5.6,5.6,0,0,1-.5-.8,1.6,1.6,0,0,0-2.2-.8,1.7,1.7,0,0,0-.8,2.3,3.9,3.9,0,0,0,.8,1.4,3.4,3.4,0,0,0,1.6,1.3,7.7,7.7,0,0,0,2.6.7,14.5,14.5,0,0,0,3,.5h3.6a42.3,42.3,0,0,0,6.2-1.1,12,12,0,0,0,3.1-1.3l2.4-1.3a22.6,22.6,0,0,0,2.6-1.6l2.3-1.7a36.6,36.6,0,0,0,4.4-4.4l2.8-3.3a46.4,46.4,0,0,0,2.5-4.2v.2l.2-.4h0a9.1,9.1,0,0,1,.7-1.4c.2-.5.5-1.1.7-1.7a10.9,10.9,0,0,0,.5-1.7,11.6,11.6,0,0,0,.4-1.8l.3-1.2a4.8,4.8,0,0,0,0-1.2,1.7,1.7,0,0,0-1.5-1.8h-.1a1.8,1.8,0,0,0-1.8,1.6Zm-.2,1.6h0Zm-.2.9v0Zm-14,18.4Zm-5.3,2.8h0Zm-.2.1h0Zm-12.8,3.9h0Zm1.7-3.1Zm31.7-15.4v0Zm-3.3-1Z" fill="#ca4742"/></g></g><g id="music_magic" data-name="music magic" style="isolation:isolate"><g style="isolation:isolate"><path d="M177.6,59.7c2.4-3.6,5.3-5.4,8.6-5.4A12.5,12.5,0,0,1,197.8,61a14.1,14.1,0,0,1,2-2.4,15.3,15.3,0,0,1,3.7-2.8,10.8,10.8,0,0,1,5.4-1.5A12.9,12.9,0,0,1,219,59c2.8,3.1,4.1,8.3,4.1,15.5V87.8a18.6,18.6,0,0,1-.1,2.6,6,6,0,0,1-.7,2c-.7,1.4-2.6,2.1-5.8,2.1s-5.2-.7-5.9-2.2a4.1,4.1,0,0,1-.6-2,15.1,15.1,0,0,1-.2-2.6V74.4c0-4.4-1.5-6.6-4.7-6.6a4,4,0,0,0-3.6,1.7,11.5,11.5,0,0,0-.9,5V87.8c0,1.2-.1,2.1-.1,2.6a6.4,6.4,0,0,1-.8,2c-.7,1.4-2.7,2.1-5.9,2.1s-5.1-.7-5.8-2.2a6,6,0,0,1-.7-2,17.8,17.8,0,0,1-.1-2.6V74.4c0-4.4-1.6-6.6-4.7-6.6s-4.6,2.2-4.6,6.6V87.9a18.6,18.6,0,0,1-.1,2.6,6.9,6.9,0,0,1-.7,2c-.8,1.3-2.8,2-5.9,2s-5.2-.7-5.9-2.1a4.1,4.1,0,0,1-.6-2,14.2,14.2,0,0,1-.2-2.6V61a16.1,16.1,0,0,1,.2-2.6,4,4,0,0,1,.7-1.9q1-2.1,5.4-2.1c2.8,0,4.7.5,5.5,1.4A5.3,5.3,0,0,1,177.6,59.7Z" fill="#ca4742"/><path d="M247.6,94.3a16.1,16.1,0,0,1-12.7-5.8,20.8,20.8,0,0,1-5.1-14.2V61c0-1.2.1-2.1.1-2.6a6.9,6.9,0,0,1,.7-2c.7-1.4,2.7-2.1,5.9-2.1s5.6,1,6.2,2.9a9.6,9.6,0,0,1,.5,3.9V74.4a6.6,6.6,0,0,0,1.8,4.9,6.9,6.9,0,0,0,4.8,1.7,6.5,6.5,0,0,0,4.8-1.8,6.2,6.2,0,0,0,1.9-4.8V61a19.4,19.4,0,0,1,.1-2.7,8,8,0,0,1,.7-2c.7-1.3,2.6-2,5.9-2s5.1.7,5.8,2.1a6.9,6.9,0,0,1,.7,2,18.6,18.6,0,0,1,.1,2.6V87.9a18.6,18.6,0,0,1-.1,2.6,5.6,5.6,0,0,1-.7,1.9c-.8,1.3-2.7,2-5.9,2s-5-.6-5.7-1.8a6.2,6.2,0,0,1-.7-3.1L255.3,91a14.6,14.6,0,0,1-2.1,1.6A9.5,9.5,0,0,1,247.6,94.3Z" fill="#ca4742"/><path d="M276.8,90.9a3.1,3.1,0,0,1-1.4-2.9c0-1.3.9-3.3,2.8-6a3,3,0,0,1,2.7-1.3,10.4,10.4,0,0,1,5.1,1.9,11.8,11.8,0,0,0,5.8,1.8c3.1,0,4.6-.6,4.6-1.8s-1.7-1.7-5.1-2.1a26.5,26.5,0,0,1-9.5-3.6,9.2,9.2,0,0,1-3.6-4.3,14.7,14.7,0,0,1-1.5-6.9q0-12,16.5-12a27,27,0,0,1,11.1,2.5c1.8.9,2.7,1.9,2.7,3.1a9.4,9.4,0,0,1-1.7,4.5c-1.1,1.7-2.3,2.6-3.4,2.6a11.2,11.2,0,0,1-3.4-1.1,12.2,12.2,0,0,0-5.4-1.2c-3,0-4.4.6-4.4,1.7s1.7,2.5,5.1,3a25.9,25.9,0,0,1,9.7,2.9,8.3,8.3,0,0,1,3.7,3.7,12.8,12.8,0,0,1,1.5,6.5,14.2,14.2,0,0,1-1.5,6.8,9.5,9.5,0,0,1-4.1,4.1,27.6,27.6,0,0,1-12.2,2.4A26.4,26.4,0,0,1,276.8,90.9Z" fill="#ca4742"/><path d="M326.8,47a3.6,3.6,0,0,1-2,1.6,14.1,14.1,0,0,1-3.9.4,12.9,12.9,0,0,1-3.8-.4,3,3,0,0,1-2-1.6,8,8,0,0,1-.7-2,19.4,19.4,0,0,1-.1-2.7,18.6,18.6,0,0,1,.1-2.6,8.2,8.2,0,0,1,.6-1.9q1-2.1,6-2.1c3.1,0,5.1.7,5.7,2.1a4.4,4.4,0,0,1,.7,2,15.1,15.1,0,0,1,.2,2.6,14.2,14.2,0,0,1-.2,2.6A5.6,5.6,0,0,1,326.8,47ZM314.3,61.1a17.8,17.8,0,0,1,.1-2.6,8.9,8.9,0,0,1,.6-2c.7-1.3,2.7-2,6-2s4.1.4,5.1,1.3a4.3,4.3,0,0,1,1.4,3.3c0,.5.1,1.2.1,2.2V87.9a16.1,16.1,0,0,1-.2,2.6,4.8,4.8,0,0,1-.7,2c-.6,1.3-2.6,2-5.8,2s-5.2-.7-5.9-2.1a8.9,8.9,0,0,1-.6-2,17.1,17.1,0,0,1-.1-2.6Z" fill="#ca4742"/><path d="M346.8,74.4a6.4,6.4,0,0,0,2.1,5.1,6.7,6.7,0,0,0,4.5,1.7,7.5,7.5,0,0,0,4.5-1.4,7,7,0,0,1,3.4-1.4c1.5,0,3.4,1.4,5.6,4.1a6.9,6.9,0,0,1,1.7,3.9q0,2.8-4.2,5.4a18.2,18.2,0,0,1-10.6,3.1,21.7,21.7,0,0,1-13.6-5.1,18.5,18.5,0,0,1-5.1-6.5,20.5,20.5,0,0,1-2-9,20.1,20.1,0,0,1,2-8.9,17.3,17.3,0,0,1,5.1-6.4,20.9,20.9,0,0,1,13.4-5,18.3,18.3,0,0,1,5.7.8,18.9,18.9,0,0,1,4,1.5l1.2.8,2.1,1.4a4.5,4.5,0,0,1,2,3.5,8.2,8.2,0,0,1-1.6,4.4c-1.8,2.7-3.6,4.1-5.2,4.1a8.3,8.3,0,0,1-4.1-1.6,5.7,5.7,0,0,0-4-1.3,7.3,7.3,0,0,0-4.7,1.8A6.1,6.1,0,0,0,346.8,74.4Z" fill="#ca4742"/></g><g style="isolation:isolate"><path d="M177.6,127.5c2.4-3.6,5.3-5.4,8.6-5.4a12.6,12.6,0,0,1,11.6,6.6,14.1,14.1,0,0,1,2-2.4,18.7,18.7,0,0,1,3.7-2.7,10.8,10.8,0,0,1,5.4-1.5,12.9,12.9,0,0,1,10.1,4.7c2.8,3.1,4.1,8.2,4.1,15.4v13.3a19.4,19.4,0,0,1-.1,2.7,8,8,0,0,1-.7,2c-.7,1.3-2.6,2-5.8,2s-5.2-.7-5.9-2.1a4.5,4.5,0,0,1-.6-2,16.1,16.1,0,0,1-.2-2.6V142.2c0-4.5-1.5-6.7-4.7-6.7a3.8,3.8,0,0,0-3.6,1.8,11,11,0,0,0-.9,4.9v13.3c0,1.2-.1,2.1-.1,2.7a7.5,7.5,0,0,1-.8,2c-.7,1.3-2.7,2-5.9,2s-5.1-.7-5.8-2.1a6.9,6.9,0,0,1-.7-2,18.6,18.6,0,0,1-.1-2.6V142.2c0-4.5-1.6-6.7-4.7-6.7s-4.6,2.2-4.6,6.7v13.4a17.8,17.8,0,0,1-.1,2.6,6,6,0,0,1-.7,2c-.8,1.4-2.8,2-5.9,2s-5.2-.7-5.9-2a4.5,4.5,0,0,1-.6-2,16.5,16.5,0,0,1-.2-2.7V128.8a14.2,14.2,0,0,1,.2-2.6,4.4,4.4,0,0,1,.7-2c.7-1.3,2.5-2,5.4-2s4.7.4,5.5,1.3A5.5,5.5,0,0,1,177.6,127.5Z" fill="#ca4742"/><path d="M254,126.4q.5-4.2,6-4.2a16.3,16.3,0,0,1,4.4.4,3.3,3.3,0,0,1,2,1.6,8,8,0,0,1,.7,2,19.4,19.4,0,0,1,.1,2.7v26.6a18.6,18.6,0,0,1-.1,2.6,10.8,10.8,0,0,1-.6,2c-.8,1.3-2.5,2-5.2,2s-4.7-.4-5.6-1.1a3.7,3.7,0,0,1-1.6-3c-1.9,2.7-5,4.1-9.4,4.1s-8.5-2-12.2-6a20.2,20.2,0,0,1,0-27.9c3.8-4,7.9-6,12.5-6a10.7,10.7,0,0,1,4.7,1,8.1,8.1,0,0,1,2.9,1.7A9.6,9.6,0,0,1,254,126.4Zm-13.8,15.8a6.5,6.5,0,0,0,1.9,4.6,6.9,6.9,0,0,0,4.8,2,5.9,5.9,0,0,0,4.7-2.1,6.9,6.9,0,0,0,1.9-4.5,6.9,6.9,0,0,0-1.8-4.6,6,6,0,0,0-4.8-2.1,6.4,6.4,0,0,0-4.9,2.1A7,7,0,0,0,240.2,142.2Z" fill="#ca4742"/><path d="M297.5,157.2c-2,2.5-5,3.8-9.2,3.8s-8.2-1.9-11.8-5.8a19.3,19.3,0,0,1,0-27.2c3.7-3.9,7.7-5.8,12.2-5.8a12.3,12.3,0,0,1,4.7.9,9.7,9.7,0,0,1,2.9,1.8l1.2,1.4a4.9,4.9,0,0,1,1.6-3.2,6.9,6.9,0,0,1,4.3-1.1,14.3,14.3,0,0,1,4.3.5,3.5,3.5,0,0,1,2,1.5,6.3,6.3,0,0,1,.6,2,14.2,14.2,0,0,1,.2,2.6V160a18.2,18.2,0,0,1-6.1,14.1,20.1,20.1,0,0,1-13.7,5.4,24,24,0,0,1-11-2.8c-3.5-1.9-5.3-3.6-5.3-5.1a7.4,7.4,0,0,1,2.3-5.3,20.9,20.9,0,0,1,2.3-2.2,2.8,2.8,0,0,1,1.8-.6,3.5,3.5,0,0,1,2.2.9,12.7,12.7,0,0,0,7.9,2.8,5.6,5.6,0,0,0,4.7-2.2,8.4,8.4,0,0,0,1.9-5.5Zm-13.6-15.5a6.2,6.2,0,0,0,2,4.4,6.3,6.3,0,0,0,4.7,2,6.1,6.1,0,0,0,4.6-2,6.6,6.6,0,0,0,1.8-4.4,7.2,7.2,0,0,0-1.7-4.5,5.9,5.9,0,0,0-4.7-2.1,6.3,6.3,0,0,0-4.8,2A6.5,6.5,0,0,0,283.9,141.7Z" fill="#ca4742"/><path d="M327.8,114.8a3.2,3.2,0,0,1-2,1.5,12.5,12.5,0,0,1-3.8.5,13.7,13.7,0,0,1-3.9-.5,3.2,3.2,0,0,1-2-1.6,6,6,0,0,1-.7-2c0-.6-.1-1.4-.1-2.6s.1-2.1.1-2.6a6,6,0,0,1,.7-2c.7-1.3,2.7-2,5.9-2s5.1.7,5.8,2a8,8,0,0,1,.7,2,19.4,19.4,0,0,1,.1,2.7,18.6,18.6,0,0,1-.1,2.6A6.9,6.9,0,0,1,327.8,114.8Zm-12.5,14.1c0-1.2.1-2.1.1-2.7a8,8,0,0,1,.7-2c.7-1.3,2.7-2,5.9-2a8.6,8.6,0,0,1,5.2,1.3,4.6,4.6,0,0,1,1.4,3.3v28.8a17.8,17.8,0,0,1-.1,2.6,6,6,0,0,1-.7,2c-.7,1.4-2.6,2-5.9,2s-5.1-.7-5.8-2a6.9,6.9,0,0,1-.7-2c0-.6-.1-1.5-.1-2.7Z" fill="#ca4742"/><path d="M346,142.2a6.1,6.1,0,0,0,2.2,5,6.8,6.8,0,0,0,4.5,1.8,8.2,8.2,0,0,0,4.5-1.4,7.1,7.1,0,0,1,3.3-1.4c1.6,0,3.4,1.3,5.6,4a6.5,6.5,0,0,1,1.7,4c0,1.9-1.4,3.7-4.1,5.4a18.5,18.5,0,0,1-10.7,3c-4.7,0-9.2-1.7-13.6-5.1a17.6,17.6,0,0,1-5.1-6.5,20.5,20.5,0,0,1-2-9,19.6,19.6,0,0,1,2-8.8,18.5,18.5,0,0,1,5.1-6.5,21.5,21.5,0,0,1,13.5-5,21,21,0,0,1,5.6.8,16.3,16.3,0,0,1,4,1.6l1.2.7,2.2,1.5a4.2,4.2,0,0,1,1.9,3.4,7.9,7.9,0,0,1-1.6,4.4c-1.8,2.8-3.5,4.2-5.2,4.2s-2.3-.6-4.1-1.7a5.3,5.3,0,0,0-3.9-1.3,7.6,7.6,0,0,0-4.8,1.8A6.6,6.6,0,0,0,346,142.2Z" fill="#ca4742"/></g></g></svg>