<svg id="Layer_1" data-name="Layer 1" xmlns="http://www.w3.org/2000/svg" width="1.9in" height="3.4in" viewBox="0 0 137.4 244.3"><title>footer-logo-1</title><g id="Group_19" data-name="Group 19"><circle id="Ellipse_1" data-name="Ellipse 1" cx="72.1" cy="47" r="45" fill="none" stroke="#ca4742" stroke-miterlimit="10" stroke-width="4"/><g id="Group_2" data-name="Group 2"><path id="Path_2" data-name="Path 2" d="M51.7,30a1.8,1.8,0,0,0-.7.8,2.9,2.9,0,0,0-.2.9c0,.7-.1,1.4-.1,2.1v2.4c0,.9-.2,1.8-.2,2.8v2.7a26.2,26.2,0,0,0,.1,2.8v7.4a21.7,21.7,0,0,1-.1,3.6c0,.8-.1,1.5-.1,2.3v5.4c0,.4-.1.9-.1,1.4v1.6c-.1,2.3-.1,4.6-.2,6.9s.1,2.8,0,4.3S50,79.8,50,81s0,2.2-.1,3.3v3.5a12.7,12.7,0,0,0-.1,2v2.3c.1,1.6,0,3.3,0,4.9v8.8c0,1.4,0,2.7.1,4a19.3,19.3,0,0,0,.1,2.4v1.1c.1.6.1,1.2.2,1.8a13.4,13.4,0,0,1-.1,2,1.5,1.5,0,0,0,1.3,1.5,1.3,1.3,0,0,0,1.4-1.3h0a10.9,10.9,0,0,0,.1-1.8,13.7,13.7,0,0,0-.2-1.9v-1.7a7.6,7.6,0,0,1-.1-1.5,10.9,10.9,0,0,0-.1-1.8v-13c0-.8.1-1.6.1-2.5s-.1-1.6-.1-2.4.1-2.6.1-3.9V85c0-.5.1-1,.1-1.5V80.1a12.8,12.8,0,0,1,.1-1.9V74.1c0-.7.1-1.4.1-2V68.7c0-1.1,0-2.3.1-3.4a6.6,6.6,0,0,1,.1-1.4V58.8a19.3,19.3,0,0,1,.1-2.4c0-.6.1-1.2.1-1.9a19.3,19.3,0,0,0,0-3.4V44.5h0a1.1,1.1,0,0,1-.1-.5h0V39.6a5.7,5.7,0,0,1,.1-1.3c0-.9.1-1.8.1-2.7V33.3c0-.4.1-.8.1-1.3v.2c0-.2,0-.3.1-.4v-.2h-.1a.1.1,0,0,0,.1.1l-.9-1.2-.3-.5h-.7Zm1.8,1.7h0Z" fill="#ca4742"/><path id="Path_3" data-name="Path 3" d="M53.3,44.5Z" fill="#ca4742"/><path id="Path_5" data-name="Path 5" d="M53.3,44.8v0Z" fill="#ca4742"/><path id="Path_6" data-name="Path 6" d="M51.8,29.8a1.4,1.4,0,0,0-.3.9,1.9,1.9,0,0,0,.5,1l1.9,1.8,2,2.2,2.6,2.6,1.7,1.8,1.7,1.6,1.9,1.8,2,1.6,1.8,1.5L69.4,48,73,50.6l-.9-.7-1-.8-.6-.5-.5-.4-1-.9c0,.1,0,.1.1.1l-1.4-1.1a9.4,9.4,0,0,0-1-1l-1.1-1-1.2-1.1h0c-.5-.5-1.1-.9-1.6-1.5L62,41a4.6,4.6,0,0,0-.7-.7l-.7-.8a4.6,4.6,0,0,1-.7-.7l-.9-1-.7-.7-.7-.8-.6-.6-1.2-1.4A7.4,7.4,0,0,1,54.6,33l-1.1-1.5h.1l-.9-1.2a4.1,4.1,0,0,1-.5-.9c-.2,0-.3.1-.4.3Z" fill="#ca4742"/><path id="Path_7" data-name="Path 7" d="M50.7,43.8a1.4,1.4,0,0,0,.3,1.9l3.2,2.2,2.1,1.2h0c1.7,1,3.5,1.8,5.3,2.7L64.5,53l3.1,1.1h0l1.8.7,2.1.6h0l.9.3h.3l2.1.6a24.5,24.5,0,0,0,7.1,1.1H84l-.7-.4L81.1,56,79,54.7l-.5-.2a19.8,19.8,0,0,1-2.6-.6h-.3l-2.2-.7h0l-1.1-.3h.1l-2.1-.7-2-.7h.2l-3-1.1-2.8-1.2-5.1-2.5h0l-2.3-1.3h.2l-2.8-2-.9-.2a1.3,1.3,0,0,0-1.1.5Zm6.6,2.8h0Z" fill="#ca4742"/><path id="Path_8" data-name="Path 8" d="M56.1,49h0Z" fill="#ca4742"/><path id="Path_9" data-name="Path 9" d="M56.3,49.1Z" fill="#ca4742"/><path id="Path_10" data-name="Path 10" d="M73.7,53.3h0Z" fill="#ca4742"/><path id="Path_11" data-name="Path 11" d="M75.9,53.9h0Z" fill="#ca4742"/><path id="Path_12" data-name="Path 12" d="M67.6,54.1Z" fill="#ca4742"/><path id="Path_13" data-name="Path 13" d="M71.5,55.4h0Z" fill="#ca4742"/><path id="Path_14" data-name="Path 14" d="M72.5,55.7h0Z" fill="#ca4742"/><path id="Path_15" data-name="Path 15" d="M72.5,55.8h0Z" fill="#ca4742"/><path id="Path_17" data-name="Path 17" d="M57.7,42.6a1.5,1.5,0,0,0-.3,1,2,2,0,0,0,.5.9,1.3,1.3,0,0,0,1.9-.2,1,1,0,0,0,.3-1,1.1,1.1,0,0,0-.5-.9,1,1,0,0,0-1-.3A1.2,1.2,0,0,0,57.7,42.6Z" fill="#ca4742"/><path id="Path_18" data-name="Path 18" d="M53.9,32.9a2,2,0,0,0-.9.5h-.3a1.2,1.2,0,0,0-1.2.5c-.5.5-.3,1.5-.2,2.2l.3,1.8c.1,1,.3,2.1.5,3.2a.9.9,0,0,0,.3.7.6.6,0,0,0-.1.4.4.4,0,0,1,.1.3,1.1,1.1,0,0,0-.3.7c0,.1-.1.3-.1.4a1.9,1.9,0,0,0,.5.9l.9.5,1,.6L56.6,47l4.7,2.8h-.1l1.6,1a3.4,3.4,0,0,0,2.2.7l.5.3.7.4a2.4,2.4,0,0,0,1.1.6,1.2,1.2,0,0,0,1.4-.2l.6.3a7.2,7.2,0,0,0,2.4,1,1.3,1.3,0,0,0,1.3-.5h0l.3.2,1,.5a2.9,2.9,0,0,0,1.6.4h.3l1.7.7,1.8.5h.6c.2.1.4,0,.6,0L79,54.7l-2.1-1.2L75,52.1l-1.9-1.5a3.9,3.9,0,0,1-1-.8l-1-.7-.6-.5-.5-.4-1-.9h0l-1.3-1.1a9.4,9.4,0,0,0-1-1l-1.1-1-1.2-1.1h0c-.5-.5-1.1-.9-1.6-1.5L62,41a4.6,4.6,0,0,0-.7-.7l-.7-.8-.3-.3-.3-.3c.1,0,.1.1.2.2L59,37.9h0l-.7-.7-.7-.8-.6-.6-1.2-1.4L54.6,33h-.7Z" fill="#ca4742"/><path id="Path_19" data-name="Path 19" d="M61.1,49.7H61A.1.1,0,0,1,61.1,49.7Z" fill="#ca4742"/><path id="Path_20" data-name="Path 20" d="M61.2,49.7h0Z" fill="#ca4742"/><path id="Path_21" data-name="Path 21" d="M56.5,48.6V51a14.8,14.8,0,0,1,.1,2.1V66.4c-.1.8-.1,1.7-.2,2.5a19.3,19.3,0,0,1-.1,2.4c0,.8-.1,1.6-.1,2.5v2.5a19.3,19.3,0,0,0-.1,2.4c0,.9-.1,1.7-.1,2.5a16.2,16.2,0,0,0-.1,2.2,14.8,14.8,0,0,1-.1,2.1V103a28,28,0,0,0,0,2.9c0,.6.1,1.2.1,1.8s.1,1.3.1,1.9.2,2.2.2,3.4v1.4a5.3,5.3,0,0,0,.1,1.3v1c.1.3.1.6.2.9v.3a1.2,1.2,0,0,0,1,.9.8.8,0,0,0,.7,0,1.6,1.6,0,0,0,.8-.6h0a1.2,1.2,0,0,0,.1-1h0v-1.7a10.3,10.3,0,0,1-.1-1.7,14.8,14.8,0,0,0-.1-2.1c0-.9-.1-1.7-.1-2.5s-.1-1.6-.2-2.4V86c0-.6.1-1.3.1-2s0-1.4.1-2.1.1-1.7.1-2.5a17.7,17.7,0,0,1,.1-2.3V74.4a21.8,21.8,0,0,1,.1-2.5c0-.8.1-1.5.1-2.3s.1-.8.1-1.2V67a15.5,15.5,0,0,0,.1-2.2V51.6a5.3,5.3,0,0,1-.1-1.3V48.6a1.3,1.3,0,0,0-1.4-1.3,1.3,1.3,0,0,0-1.3,1.3ZM59,116.4h0Zm.1.8h0v0Z" fill="#ca4742"/><path id="Path_22" data-name="Path 22" d="M51.8,108.4a11.4,11.4,0,0,0-2.5.6l-2.4.7-2.3,1-2.2.9L40,113l-2,1.6-1.9,1.6-1.8,1.6c-.5.5-1.1,1-1.6,1.6a13.3,13.3,0,0,0-2.1,4.7,18.7,18.7,0,0,0-.4,2.5,5.3,5.3,0,0,0,0,2.5,19.5,19.5,0,0,0,.8,2.2,9,9,0,0,0,1.4,2,7.5,7.5,0,0,0,1.6,1.5,9,9,0,0,0,2.4,1.2,15.1,15.1,0,0,0,5.3.9,11.4,11.4,0,0,0,2.5-.6l2-.7a13.4,13.4,0,0,0,3.7-2.5h0V133h.1l1.5-1.4,1.4-1.6,2.4-2.8a11.4,11.4,0,0,0,1-1.9l.9-1.7.4-.7.3-.8a5.8,5.8,0,0,0,.6-1.7,8,8,0,0,0,.3-1.5,7.7,7.7,0,0,0,.2-1.5,1.6,1.6,0,0,0-.5-.9,1.7,1.7,0,0,0-1-.3,1.3,1.3,0,0,0-.9.5,1.1,1.1,0,0,0-.3.8h0a5,5,0,0,1-.2,1.2,5.8,5.8,0,0,1-.3,1.4c-.1.4-.3.7-.4,1.1l-.6,1.3a24.9,24.9,0,0,1-1.5,2.8,19.9,19.9,0,0,1-2.2,2.7l-1.5,1.7-1.6,1.6.3-.3-.4.4h.2L46,132.7a20.9,20.9,0,0,1-3.5,1.3l-1.6.2a12.6,12.6,0,0,1-2.8-.5l-1-.4-1.3-.5a8.4,8.4,0,0,1-2.2-2.4,8.7,8.7,0,0,1-.7-1.7,3.4,3.4,0,0,1-.1-1,11,11,0,0,1,.2-1.8,13.3,13.3,0,0,1,.5-1.9,8.5,8.5,0,0,1,.9-2.2,7,7,0,0,1,1.3-1.6l1.4-1.2,1.9-1.7,1.8-1.5,1.9-1.3,1.6-.8,2-.8,2-.8a7.6,7.6,0,0,1,2-.6h0l1.9-.5h1.9a1.6,1.6,0,0,0,.9-.5,1.9,1.9,0,0,0,.3-1,1.3,1.3,0,0,0-.5-.9,1,1,0,0,0-1-.3h-.1a6.2,6.2,0,0,0-1.9.2Zm-5.6,24.2h0Zm-.2.1h-.1C45.9,132.7,45.9,132.7,46,132.7Zm-5,1.5h0Zm9.1-1.3Z" fill="#ca4742"/><path id="Path_23" data-name="Path 23" d="M48,107.9a21.2,21.2,0,0,0-4.5,1.1l-2.1.7-1.9.8c-1.3.6-2.6,1.2-3.8,1.9l.3-.2-1.2.7-1,.7-1.9,1.5a17.5,17.5,0,0,0-2.8,3.3,10.1,10.1,0,0,0-1.2,2.3,27.7,27.7,0,0,0-1,2.6c-.2.8-.3,1.6-.5,2.4a24.5,24.5,0,0,0-.2,2.7,15.7,15.7,0,0,0,.4,2.3,7,7,0,0,0,.8,2,4.2,4.2,0,0,0,1.1,1.8,8.6,8.6,0,0,0,1.3,1.4l1.9,1.1a11.7,11.7,0,0,0,2.5.7l2.4.4h2.5a19.5,19.5,0,0,0,4.7-1.4,11.8,11.8,0,0,0,1.9-1.1l.7-.5,1-.8h-.1l2.3-2.4a7.6,7.6,0,0,0,1.1-1.4l1.2-1.6a1.5,1.5,0,0,0-.2-1.9,1.4,1.4,0,0,0-1.9.2l-1.2,1.5a7.1,7.1,0,0,1-1,1.4l-2.2,2.3h0l-1.8,1.4a24.8,24.8,0,0,1-3.5,1.3,9.9,9.9,0,0,1-2.4.3,18.4,18.4,0,0,1-4.1-.6l-1.6-.7a6.3,6.3,0,0,1-1.2-1.1,3.9,3.9,0,0,1-.8-1,14.5,14.5,0,0,1-.9-2.2,16.4,16.4,0,0,1-.2-2.3l.3-1.8a11.8,11.8,0,0,1,.4-2,10.8,10.8,0,0,1,.8-1.9,8.9,8.9,0,0,1,.8-1.7,12.7,12.7,0,0,1,2.1-2.5l1.7-1.5,1.9-1.3.5-.3-.3.2,2.3-1.2,2.3-.9,2.6-1,2.5-.8,2.2-.3,2.1-.2H52a1.3,1.3,0,1,0,.5-2.6h0a5.2,5.2,0,0,0-1.7-.2,12.7,12.7,0,0,0-2.8.3Zm-11.2,6.9h0Zm-5.4,5a.1.1,0,0,0-.1.1Zm-2.5,7.9h0Zm16.5,4.7-.2.2Zm-7.5,3h0Zm9.2-.9h0Zm-1.6-2.1v-.2C45.6,132.3,45.5,132.3,45.5,132.4Z" fill="#ca4742"/><path id="Path_24" data-name="Path 24" d="M52.6,109.4a1.6,1.6,0,0,0-1.1.5h-1l-.9.3-.8.4a3.8,3.8,0,0,0-1.2,1,2.9,2.9,0,0,0-1.3-.1,3.5,3.5,0,0,0-1.6.8l-.3.2h-.9l-.9.2-.5.2a1.5,1.5,0,0,0-1.4-.8l-1.3.4a7.6,7.6,0,0,0-1.8.9L35.4,115l-.3.4H35l-.3.2a14.7,14.7,0,0,0-4.6,3.6,8.6,8.6,0,0,0-1,1.6,5.2,5.2,0,0,0-.6,1.3,7.3,7.3,0,0,0-.3,3,8.6,8.6,0,0,0,.1,1.6,10.4,10.4,0,0,0-.4,4.3,6.4,6.4,0,0,0,1.4,3.4l1,.7h1.4l.6.5a1.5,1.5,0,0,0,1.6-.1l.5-.6a.4.4,0,0,0,.1-.3l.4.2h.5c0,.2,0,.3.1.4a1.4,1.4,0,0,0,1.8.7l.5-.3.4-.7a1.4,1.4,0,0,0,1.6.5l.4-.2h0a1.9,1.9,0,0,0,1,.3,1.5,1.5,0,0,0,.9.2,1.7,1.7,0,0,0,1.2-.5l.9-.6.3-.3a1.4,1.4,0,0,0,1.1,0,3.2,3.2,0,0,0,1.2-.8l.9-.8a19.9,19.9,0,0,0,2.1-2l3.5-3.5a18.4,18.4,0,0,0,3-4.3,6.1,6.1,0,0,0,.5-1.2,6.6,6.6,0,0,0,.6-2,10.3,10.3,0,0,0-.1-1.7,5.2,5.2,0,0,0-.6-1.6l-.8-.5a2.1,2.1,0,0,0-.1-1.1l-.4-.5v-.4a1.1,1.1,0,0,0-.3-.8c0-.2-.2-.3-.3-.5l-.4-.2v-.6a1.6,1.6,0,0,0-.9-2.1h-.9Zm.7,2.5h0Z" fill="#ca4742"/><path id="Path_25" data-name="Path 25" d="M53.3,85.1l-.6.2a1.4,1.4,0,0,0-1.3.5,1.7,1.7,0,0,0-.3,1,27.1,27.1,0,0,0,.1,2.9,24.6,24.6,0,0,0,.2,2.8v2.3a28.1,28.1,0,0,0-.1,2.9v-.4a17.7,17.7,0,0,0-.1,2.3v-.4c0,3.8.1,7.6.4,11.4a1.3,1.3,0,0,0,1.5,1.2h.6v.2c0,.5.1.9.1,1.3v.3c0,.3.1.7.1,1a2.1,2.1,0,0,0,.7,1.1,3.8,3.8,0,0,1-.1,1,9.8,9.8,0,0,1-.5,1.6,1.5,1.5,0,0,0,.3,1,1.5,1.5,0,0,0,.9.6,1.8,1.8,0,0,0,1-.2,1.4,1.4,0,0,0,.5-.9,12.2,12.2,0,0,0,.6-2.6l.3-2.9a40.1,40.1,0,0,0-.2-6c-.1-1.9-.3-3.8-.5-5.8s-.2-2-.4-3l-.3-2.8a17.4,17.4,0,0,0-.5-2.2,1.2,1.2,0,0,0-.5-.7V91.3a12.8,12.8,0,0,1-.1-1.9c0-.5-.1-.9-.1-1.3a4.5,4.5,0,0,0-.1-1.1,1.1,1.1,0,0,0-.1-.5v-.4l-.3-.4a1.3,1.3,0,0,0-1.1-.6.1.1,0,0,0-.1.1Z" fill="#ca4742"/><path id="Path_26" data-name="Path 26" d="M53.5,45.1a1,1,0,0,0-.4.5,1.9,1.9,0,0,0-.2.7v.9h0c-.1.1-.1.3-.2.5s-.3,2.1-.4,3.1-.1,2.2-.1,3.3-.1,2.1-.1,3.2A9.7,9.7,0,0,0,52,59c0,.7-.1,1.6.5,2l.6.2v.5a1.4,1.4,0,0,0-1.2.7,11.6,11.6,0,0,0-.4,1.8c0,.5-.1.9-.1,1.4a11.5,11.5,0,0,0-.1,1.9c-.1,1-.1,2-.2,3s-.1,4-.1,6.1.1,4,.2,5.9l.3,5.8.3,3.3c.1,1.1.2,2.2.4,3.4a1.7,1.7,0,0,0,1,1.2,2.2,2.2,0,0,0,.5,1.1,1.6,1.6,0,0,0,1.2.6,1.4,1.4,0,0,0,1.2-1.2,11.5,11.5,0,0,0,.1-1.9V83l.2-.3.3-.9v-.4a1.3,1.3,0,0,1,.1-.6c0-.5.1-1,.1-1.5a26.4,26.4,0,0,0,.2-2.8c0-2.1.1-4.2.1-6.3s-.1-3.7-.1-5.5,0-4.2.1-6.3V51.1a27.1,27.1,0,0,0-.1-2.9A1.3,1.3,0,0,0,55.8,47a5.1,5.1,0,0,0-.2-1.3,1.3,1.3,0,0,0-1.3-.9,1.3,1.3,0,0,0-.8.3Z" fill="#ca4742"/><path id="Path_27" data-name="Path 27" d="M51.5,28.4a1.5,1.5,0,0,0-.6,1.8l1.4,2.1a7.6,7.6,0,0,0,1.1,1.4l2.5,3,2.8,3.1,1.6,1.7a17,17,0,0,0,1.9,1.9l4,3.6-.2-.2,3.5,2.9a34.3,34.3,0,0,0,3.3,2.4l3.8,2.5,3.8,2.3L82.5,58l2,1.1h0l.4.2L88.8,61l2.5,1.2a1.7,1.7,0,0,0,1,.1,1.3,1.3,0,0,0,1.1-1.5,1.5,1.5,0,0,0-.6-.9l-1.4-.7-1.5-.6-1.7-.8L86.4,57l-.6-.3h0l-.4-.2-3.2-1.7-3.8-2.2c-2.4-1.5-4.7-3.2-7.1-4.9l-2.5-2-1.4-1.2h-.1L65.7,43l-1.9-1.8L62,39.3l-1.6-1.7c-1.8-1.9-3.5-3.9-5.2-6L54,30.1,53.4,29a1.7,1.7,0,0,0-1.3-.7ZM68.8,45.8l.3.2ZM85.4,56.5l.3.2ZM66.3,47.1h0Zm1.1-2.6h0a.1.1,0,0,1-.1-.1Z" fill="#ca4742"/><path id="Path_28" data-name="Path 28" d="M54.4,45.6a1.4,1.4,0,0,0-.1,2,9.8,9.8,0,0,0,1.8,1.7l1.5,1.2a40.5,40.5,0,0,0,3.5,2.1l1.8.9,2.4,1.3,1.8.8,2,.8,2,.8,2.1.8,2.1.8,1.9.7a62.1,62.1,0,0,0,7.4,2l3.5.5h3.1a1.3,1.3,0,0,0,1.4-1.3,1.3,1.3,0,0,0-1.2-1.4H89.6l-1.5-.2L86.2,59l-1.7-.3a57.5,57.5,0,0,1-7.1-2l-2-.7-2.1-.8-2-.9-2-.8-3.4-1.4-2.4-1.3-2.2-1.2-2.1-1.3L57.4,47l-1.1-1.3a1.5,1.5,0,0,0-1-.4,1.4,1.4,0,0,0-.9.3ZM65.8,52h0Zm.2.1h0Zm18.2,6.5h0Z" fill="#ca4742"/><path id="Path_29" data-name="Path 29" d="M72.9,54.5a1.3,1.3,0,0,0,.8,1.7c1.7.6,3.3,1.6,5.1,2.1l2.6.8,1.2.3,1.1.4a1.4,1.4,0,0,0,1.8-.5,1.3,1.3,0,0,0-.4-1.8L83.8,57l-1.4-.5-2.5-.7c-1.9-.5-3.5-1.5-5.3-2.1h-.4a1.3,1.3,0,0,0-1.3.9Zm10.6,5.2Z" fill="#ca4742"/><path id="Path_30" data-name="Path 30" d="M55.9,49.2a1.4,1.4,0,0,0-1.1,1.6,1.5,1.5,0,0,0,.6.9l2.1,1.1,2.3,1.1h-.1c.2.1.3.3.5.3h.3l.6.2,1.2.6,2.3,1,2.3.7,4.8,1.5,4.6,1.1,3.5.9h.3l.8.2h0l3.3.4h1.5l1.6.3A1.3,1.3,0,0,0,88.7,60a1.2,1.2,0,0,0-.3-1,1.5,1.5,0,0,0-.9-.4L86,58.3H84.6l-3.2-.4h.3l-1-.2h-.2l-8.4-2c-1.6-.5-3.2-1.1-4.8-1.5a38,38,0,0,1-4.7-1.8l-.8-.4h-.3l-.3-.2h0l-2.3-1.1h.3l-2.3-1.2-.8-.2Zm24.8,8.5Z" fill="#ca4742"/><path id="Path_31" data-name="Path 31" d="M51.7,105.8h-.6l-2.3.2a10.5,10.5,0,0,0-2.4.6l-2.3.5-2.3.6-2.5.9-2.3.9-2,.9-2.4,1.1-2.4,1.3-2.1,1.6a39.2,39.2,0,0,0-3.3,2.7l-1.5,1.5a10,10,0,0,0-1.6,2,13.4,13.4,0,0,0-1.2,2.4,19.5,19.5,0,0,0-.8,2.2l-.3,1.5a10.1,10.1,0,0,0-.3,1.7,6.9,6.9,0,0,0-.1,2,3.7,3.7,0,0,0,.1,1.1l.3,1a5.6,5.6,0,0,0,.4,1.2l.6,1a8.2,8.2,0,0,0,2.5,2.4,8.2,8.2,0,0,0,2,1.2l1.9.7,2.4.4,2.4.3,1.9.2h3.6l1.6-.4a17.5,17.5,0,0,0,3.2-1.2,20.2,20.2,0,0,0,3.2-1.8l2.3-1.8,1-.6a1.3,1.3,0,0,0,0-1.9,1.3,1.3,0,0,0-1.8-.2l-.7.5-1.3.9-1.3,1.1a21.5,21.5,0,0,1-4.6,2.2l-1.6.4-1.5.2h-.9l-3.7-.3-1.7-.2-1.5-.2a13.3,13.3,0,0,1-2.4-1l-2-1.4-.9-1L22,132a11.6,11.6,0,0,1-.4-1.8,11.3,11.3,0,0,1,.3-2.5c.1-.3.1-.6.2-.9a19,19,0,0,1,1.4-4,8,8,0,0,1,1.5-2.1l1.5-1.5,1.6-1.4,1.7-1.4,2.1-1.5,2.2-1.2,2.6-1.1,2.3-1,2.3-.9,4.7-1.3,2.6-.6,2.1-.3h1.5a1.1,1.1,0,0,0,.9-.5,1.3,1.3,0,0,0-.4-1.9.9.9,0,0,0-.7-.3Zm-.7,2.7h0Zm-9.8,2.2h0Zm-16.1,9.8h0Zm-3.2,7.4h0Zm-.3,2.4v.2c-.1,0-.1-.1-.1-.2Zm.8,2.6h0Zm.8,1h0ZM19,130.6v0Z" fill="#ca4742"/><path id="Path_32" data-name="Path 32" d="M50.6,126.4l-.9,1.1-.9,1.3a1.4,1.4,0,0,0,.3,1.9,1.3,1.3,0,0,0,1.9-.3h0l.9-1.3.9-1.2a1.4,1.4,0,0,0-.3-1.9l-.8-.2a1.4,1.4,0,0,0-1.1.6Z" fill="#ca4742"/><path id="Path_33" data-name="Path 33" d="M34.8,112.7H33.4l-1.3.4-1.1.5-1.2.8a19.9,19.9,0,0,0-3.7,3.4c-.4.5-.9,1-1.3,1.6h-.2l-.6.4a1.8,1.8,0,0,0-.5.7,5.6,5.6,0,0,0-.5.8l-.7,1.4a6.9,6.9,0,0,0-.5,1.3l-.6,1.4c-.3,1-.5,2-.7,3a15.1,15.1,0,0,0-.2,3,2.4,2.4,0,0,0,1.3,1.7c0,.2.1.4.1.6a1.9,1.9,0,0,0,1.1,1.4,2.2,2.2,0,0,0,1.1.1,3.5,3.5,0,0,0,1.5.7h.5l1,.5.3.4a3.4,3.4,0,0,0,1.2.9l1.5.3h1.3a11.1,11.1,0,0,0,4.4-.3l3.1-1.3a1.4,1.4,0,0,0,.7-1.8,1.5,1.5,0,0,0-1.9-.7L35,135.3l-.9.2v-.7a2.3,2.3,0,0,0-.8-1.1h-.1a2,2,0,0,0-.8-1.2,3.8,3.8,0,0,0-1.3-.9H31a3.6,3.6,0,0,0,.2-1.1,3.4,3.4,0,0,0-1.3-2.7l-.6-.5a1.9,1.9,0,0,0,.2-.8,23.3,23.3,0,0,0,.5-2.8,2.7,2.7,0,0,0-.7-2.4c-.1-.1-.2-.1-.2-.2a2.9,2.9,0,0,1,.2-.9,3.8,3.8,0,0,0,.1-1.5l.7-.7,1.6-1.2a9.1,9.1,0,0,1,1.7-.9l.9-.2h.3a1.7,1.7,0,0,0,1-.3,1.4,1.4,0,0,0,.2-1.9h-.1a1.1,1.1,0,0,0-.9-.5Zm-6.4,17.1h.1v.5l-.3.8-.5.3h-.2l.9-1.8Zm.1.2h0Zm6.4,5.3h0Z" fill="#ca4742"/><path id="Path_34" data-name="Path 34" d="M56.4,118c0,.3-.1.7-.1,1.1a5.2,5.2,0,0,0-.2,1.1,14.2,14.2,0,0,0-.5,1.6,10.1,10.1,0,0,1-.7,1.5l-.5,1.1c0-.1.1-.1.1-.2l-.2.3h0a22,22,0,0,1-1.5,2.6l-2,2.4.2-.3-1.1,1.3a28.3,28.3,0,0,1-2.5,2.4L45,134.6l-2.2,1.2-2.2,1.1a28.2,28.2,0,0,1-5.8,1,16.3,16.3,0,0,1-3.1-.3h-.1l-.6-.2h-.2l-1.1-.3h-.3l-.3-.7a1.2,1.2,0,0,0-1.8-.6h0a1.3,1.3,0,0,0-.6,1.8,2.4,2.4,0,0,0,.6,1.1,3.5,3.5,0,0,0,1.3,1.1l2,.5a10,10,0,0,0,2.4.4h3a28.1,28.1,0,0,0,4.9-.9,13,13,0,0,0,2.5-1l1.8-1,2.1-1.3,1.8-1.4a19.3,19.3,0,0,0,3.5-3.5,28.5,28.5,0,0,0,2.3-2.6,37.9,37.9,0,0,0,2-3.4v.2l.2-.3h0a3.7,3.7,0,0,1,.5-1.1l.6-1.4.4-1.3a8,8,0,0,0,.3-1.5,2.9,2.9,0,0,0,.2-.9,2.8,2.8,0,0,0,.1-.9,1.4,1.4,0,0,0-1.3-1.5h-.1a1.3,1.3,0,0,0-1.3,1.3Zm-.1,1.2h0Zm-.2.8h0ZM44.9,134.6Zm-4.2,2.3h0Zm-.1,0h0Zm-10.2,3.2h0Zm1.3-2.5ZM57,125.3h-.1a.1.1,0,0,1,.1-.1Zm-2.7-.8Z" fill="#ca4742"/></g></g><g id="magic_music" data-name="magic music" style="isolation:isolate"><g style="isolation:isolate"><path d="M10.2,166c1.5-2.2,3.3-3.4,5.4-3.4a7.8,7.8,0,0,1,7.3,4.2,8.7,8.7,0,0,1,1.3-1.5,12.4,12.4,0,0,1,2.3-1.7,6.3,6.3,0,0,1,3.4-1,8,8,0,0,1,6.4,3c1.8,1.9,2.6,5.2,2.6,9.7v10.1a4.3,4.3,0,0,1-.5,1.3c-.4.8-1.6,1.3-3.7,1.3s-3.2-.5-3.7-1.4a3.8,3.8,0,0,1-.4-1.3c0-.3-.1-.9-.1-1.6v-8.4c0-2.8-1-4.2-2.9-4.2a2.4,2.4,0,0,0-2.3,1.1,6.8,6.8,0,0,0-.6,3.1v8.4c0,.8-.1,1.4-.1,1.7a2.7,2.7,0,0,1-.5,1.3c-.4.8-1.7,1.3-3.7,1.3s-3.2-.5-3.7-1.4a3.8,3.8,0,0,1-.4-1.3,6.7,6.7,0,0,1-.1-1.6v-8.4q0-4.2-3-4.2c-1.9,0-2.8,1.4-2.8,4.2v8.5c0,.7-.1,1.3-.1,1.6a4.3,4.3,0,0,1-.5,1.3c-.4.8-1.7,1.3-3.7,1.3s-3.3-.5-3.7-1.3a3.8,3.8,0,0,1-.4-1.3,7.2,7.2,0,0,1-.1-1.7V166.8a7.1,7.1,0,0,1,.1-1.6,2.8,2.8,0,0,1,.4-1.2c.5-.9,1.7-1.3,3.5-1.3a5.8,5.8,0,0,1,3.5.8A3.7,3.7,0,0,1,10.2,166Z" fill="#ca4742"/><path d="M59.4,165.4c.2-1.8,1.4-2.7,3.8-2.7a10.4,10.4,0,0,1,2.8.3,1.5,1.5,0,0,1,1.2,1,3.8,3.8,0,0,1,.5,1.2v20.1a4.3,4.3,0,0,1-.5,1.3c-.4.8-1.5,1.3-3.2,1.3a6.3,6.3,0,0,1-3.5-.7,2.5,2.5,0,0,1-1.1-1.9c-1.2,1.7-3.1,2.6-5.9,2.6s-5.3-1.3-7.7-3.8a12.6,12.6,0,0,1-3.6-8.8,12.2,12.2,0,0,1,3.6-8.8c2.4-2.5,5-3.8,7.9-3.8a6.8,6.8,0,0,1,2.9.6,5.2,5.2,0,0,1,1.9,1.1A2.8,2.8,0,0,1,59.4,165.4Zm-8.8,9.9a4.3,4.3,0,0,0,1.3,2.9,4.1,4.1,0,0,0,6,0,4.6,4.6,0,0,0,1.1-2.9,4.2,4.2,0,0,0-1.1-2.9,3.5,3.5,0,0,0-3-1.3,3.9,3.9,0,0,0-3.1,1.3A4.4,4.4,0,0,0,50.6,175.3Z" fill="#ca4742"/><path d="M87.8,184.8c-1.2,1.6-3.2,2.4-5.8,2.4s-5.2-1.2-7.5-3.7a12.2,12.2,0,0,1,0-17.1c2.4-2.5,4.9-3.7,7.7-3.7a7.3,7.3,0,0,1,3,.6,4.6,4.6,0,0,1,1.8,1.1,3.2,3.2,0,0,1,.8.9,3,3,0,0,1,1-2,4.1,4.1,0,0,1,2.7-.7,9.4,9.4,0,0,1,2.8.3,1.9,1.9,0,0,1,1.2.9,3.8,3.8,0,0,1,.4,1.3,6.7,6.7,0,0,1,.1,1.6v19.9a11.6,11.6,0,0,1-3.8,8.9,13.2,13.2,0,0,1-8.7,3.4,14.2,14.2,0,0,1-6.9-1.8c-2.2-1.2-3.4-2.3-3.4-3.2a4.3,4.3,0,0,1,1.5-3.3l1.4-1.4a1.6,1.6,0,0,1,1.2-.4,2.4,2.4,0,0,1,1.4.6,8.4,8.4,0,0,0,5,1.7,3.6,3.6,0,0,0,2.9-1.4,5.3,5.3,0,0,0,1.2-3.5ZM79.2,175a4.1,4.1,0,0,0,1.3,2.8,4,4,0,0,0,2.9,1.2,4.1,4.1,0,0,0,3-1.2,4.5,4.5,0,0,0,1.1-2.8,4.8,4.8,0,0,0-1.1-2.9,3.8,3.8,0,0,0-3-1.3,4.3,4.3,0,0,0-4.2,4.2Z" fill="#ca4742"/><path d="M107.9,158a2,2,0,0,1-1.2,1,9,9,0,0,1-2.5.3,7.8,7.8,0,0,1-2.4-.3,2.7,2.7,0,0,1-1.3-1,9.3,9.3,0,0,1-.4-1.3c0-.4-.1-.9-.1-1.7s.1-1.3.1-1.6a5.6,5.6,0,0,1,.4-1.2c.5-.9,1.7-1.3,3.8-1.3s3.2.4,3.6,1.3a3.8,3.8,0,0,1,.5,1.2v3.3A4.3,4.3,0,0,1,107.9,158Zm-7.9,8.9c0-.7.1-1.3.1-1.7a8.4,8.4,0,0,1,.4-1.2c.5-.9,1.7-1.3,3.8-1.3a5.1,5.1,0,0,1,3.2.8,2.6,2.6,0,0,1,.9,2.1v19.8a4.3,4.3,0,0,1-.5,1.3c-.4.8-1.6,1.3-3.7,1.3s-3.2-.5-3.7-1.3a9.3,9.3,0,0,1-.4-1.3c0-.3-.1-.9-.1-1.7Z" fill="#ca4742"/><path d="M120.4,175.3a3.9,3.9,0,0,0,1.3,3.2,4.8,4.8,0,0,0,2.9,1.1,4.9,4.9,0,0,0,2.8-.9,4.2,4.2,0,0,1,2.2-.9c.9,0,2.1.9,3.5,2.6a4.2,4.2,0,0,1,1.1,2.5c0,1.2-.9,2.3-2.7,3.4a11.1,11.1,0,0,1-6.7,1.9,14.1,14.1,0,0,1-8.6-3.2,11.1,11.1,0,0,1-3.2-4.1,12.9,12.9,0,0,1,0-11.3,11.9,11.9,0,0,1,3.2-4.1,13.5,13.5,0,0,1,8.5-3.1,11.2,11.2,0,0,1,3.6.5,7.6,7.6,0,0,1,2.5,1l.8.4,1.3,1a2.7,2.7,0,0,1,1.3,2.1,5.6,5.6,0,0,1-1,2.8c-1.2,1.8-2.3,2.6-3.4,2.6a5.7,5.7,0,0,1-2.6-1,3.1,3.1,0,0,0-2.4-.8,4.8,4.8,0,0,0-3,1.1A3.9,3.9,0,0,0,120.4,175.3Z" fill="#ca4742"/></g><g style="isolation:isolate"><path d="M10.2,211c1.5-2.2,3.3-3.4,5.4-3.4a7.8,7.8,0,0,1,7.3,4.2,8.7,8.7,0,0,1,1.3-1.5,12.4,12.4,0,0,1,2.3-1.7,6.3,6.3,0,0,1,3.4-1,8,8,0,0,1,6.4,3c1.8,1.9,2.6,5.2,2.6,9.7v10.1a4.3,4.3,0,0,1-.5,1.3c-.4.8-1.6,1.3-3.7,1.3s-3.2-.5-3.7-1.4a3.8,3.8,0,0,1-.4-1.3c0-.3-.1-.9-.1-1.6v-8.4c0-2.8-1-4.2-2.9-4.2a2.4,2.4,0,0,0-2.3,1.1,6.8,6.8,0,0,0-.6,3.1v8.4c0,.8-.1,1.4-.1,1.7a2.7,2.7,0,0,1-.5,1.3c-.4.8-1.7,1.3-3.7,1.3s-3.2-.5-3.7-1.4a3.8,3.8,0,0,1-.4-1.3,6.7,6.7,0,0,1-.1-1.6v-8.4q0-4.2-3-4.2c-1.9,0-2.8,1.4-2.8,4.2v8.5c0,.7-.1,1.3-.1,1.6a4.3,4.3,0,0,1-.5,1.3c-.4.8-1.7,1.3-3.7,1.3s-3.3-.5-3.7-1.3a3.8,3.8,0,0,1-.4-1.3,7.2,7.2,0,0,1-.1-1.7V211.8a7.1,7.1,0,0,1,.1-1.6,2.8,2.8,0,0,1,.4-1.2c.5-.9,1.7-1.3,3.5-1.3a5.8,5.8,0,0,1,3.5.8A3.7,3.7,0,0,1,10.2,211Z" fill="#ca4742"/><path d="M55.4,232.9a10.3,10.3,0,0,1-8-3.7,12.9,12.9,0,0,1-3.2-9v-10a9.3,9.3,0,0,1,.4-1.3c.5-.9,1.7-1.3,3.8-1.3s3.5.6,3.9,1.8a8.1,8.1,0,0,1,.3,2.5v8.4a3.8,3.8,0,0,0,4.2,4.2,4.1,4.1,0,0,0,4.2-4.2v-8.5a8.1,8.1,0,0,1,.1-1.7,3.4,3.4,0,0,1,.4-1.2c.5-.9,1.7-1.3,3.7-1.3s3.3.4,3.7,1.3a2.4,2.4,0,0,1,.4,1.3,7.1,7.1,0,0,1,.1,1.6v17a6.7,6.7,0,0,1-.1,1.6,3.8,3.8,0,0,1-.4,1.3c-.5.8-1.7,1.2-3.7,1.2s-3.2-.4-3.6-1.1a4.2,4.2,0,0,1-.5-2l-.9,1-1.3,1A6.1,6.1,0,0,1,55.4,232.9Z" fill="#ca4742"/><path d="M74.8,230.7a2,2,0,0,1-.9-1.8c0-.9.6-2.1,1.8-3.8a1.9,1.9,0,0,1,1.7-.8,7.6,7.6,0,0,1,3.2,1.1,7.6,7.6,0,0,0,3.7,1.2c1.9,0,2.9-.4,2.9-1.1s-1.1-1.1-3.2-1.4a16.2,16.2,0,0,1-6-2.2,6.9,6.9,0,0,1-2.3-2.7,10.2,10.2,0,0,1-.9-4.4c0-5.1,3.5-7.6,10.4-7.6a16.5,16.5,0,0,1,7,1.6c1.1.5,1.7,1.2,1.7,1.9a6.2,6.2,0,0,1-1.1,2.9c-.7,1.1-1.4,1.6-2.1,1.6a6.3,6.3,0,0,1-2.2-.7,7.2,7.2,0,0,0-3.3-.7c-1.9,0-2.9.4-2.9,1.1s1.1,1.5,3.3,1.8a19.6,19.6,0,0,1,6.1,1.9,5.3,5.3,0,0,1,2.4,2.3A8.6,8.6,0,0,1,95,225a9.4,9.4,0,0,1-.9,4.3,6.2,6.2,0,0,1-2.7,2.6,17.3,17.3,0,0,1-7.7,1.5A16.5,16.5,0,0,1,74.8,230.7Z" fill="#ca4742"/><path d="M107.4,203a2.3,2.3,0,0,1-1.3,1,9.8,9.8,0,0,1-4.8,0,2.3,2.3,0,0,1-1.3-1,3.8,3.8,0,0,1-.4-1.3,7.6,7.6,0,0,1-.1-1.7,6.7,6.7,0,0,1,.1-1.6,2.8,2.8,0,0,1,.4-1.2c.4-.9,1.7-1.3,3.7-1.3s3.3.4,3.7,1.3a3.4,3.4,0,0,1,.4,1.2,7.6,7.6,0,0,1,.1,1.7,6.7,6.7,0,0,1-.1,1.6A3.8,3.8,0,0,1,107.4,203Zm-7.9,8.9a8.1,8.1,0,0,1,.1-1.7,3.4,3.4,0,0,1,.4-1.2c.4-.9,1.7-1.3,3.7-1.3a5.3,5.3,0,0,1,3.3.8,3.4,3.4,0,0,1,.9,2.1v18.2a6.7,6.7,0,0,1-.1,1.6,3.8,3.8,0,0,1-.4,1.3c-.4.8-1.7,1.3-3.7,1.3s-3.3-.5-3.7-1.3a3.8,3.8,0,0,1-.4-1.3,7.2,7.2,0,0,1-.1-1.7Z" fill="#ca4742"/><path d="M121.1,220.3a3.9,3.9,0,0,0,1.3,3.2,4.6,4.6,0,0,0,2.9,1.1,4.9,4.9,0,0,0,2.8-.9,4.3,4.3,0,0,1,2.1-.9c1,0,2.2.9,3.5,2.6a3.7,3.7,0,0,1,1.1,2.5c0,1.2-.8,2.3-2.6,3.4a11.3,11.3,0,0,1-6.7,1.9,13.9,13.9,0,0,1-8.6-3.2,11.1,11.1,0,0,1-3.2-4.1,12,12,0,0,1-1.3-5.7,12.7,12.7,0,0,1,4.5-9.7,13.3,13.3,0,0,1,8.5-3.1,10.2,10.2,0,0,1,3.5.5,8.3,8.3,0,0,1,2.6,1l.7.4,1.4,1a2.6,2.6,0,0,1,1.2,2.1,4.8,4.8,0,0,1-1,2.8c-1.1,1.8-2.2,2.6-3.3,2.6a5.4,5.4,0,0,1-2.6-1,3.3,3.3,0,0,0-2.5-.8,5.3,5.3,0,0,0-3,1.1A4.1,4.1,0,0,0,121.1,220.3Z" fill="#ca4742"/></g></g></svg>