<svg id="Layer_1" data-name="Layer 1" xmlns="http://www.w3.org/2000/svg" width="2.5in" height="2.5in" viewBox="0 0 179.5 179.5"><title>heart-icon</title><g id="Group_40" data-name="Group 40"><path id="Path_315" data-name="Path 315" d="M.4,81.8A89.8,89.8,0,1,0,97.7.4a72.6,72.6,0,0,0-8-.4A89.7,89.7,0,0,0,.4,81.8ZM112.5,40.1a9.7,9.7,0,0,1,2.3-1.1l2.1-.7,1.5-.4,3-.2h.6l3.6.2a15.1,15.1,0,0,1,3.7.2,10.6,10.6,0,0,1,3,1,7.6,7.6,0,0,1,1.9,1.2l1,.9.9,1,1.5,1.4a12.4,12.4,0,0,1,1.8,2.2,15.9,15.9,0,0,1,1.5,2.9c.3.9.7,1.7,1,2.7s.6,3.2,1,4.8.3,1.5.4,2.2a11.5,11.5,0,0,1,.3,2.6,58.1,58.1,0,0,1,0,5.9c-.1,1.9-.2,3.9-.4,5.8s-.6,4-1.1,6-1,3.5-1.6,5.2-1.6,4-2.5,6a29.6,29.6,0,0,1-1.5,3.1c-.5.9-1,1.8-1.6,2.7s-2.3,3.7-3.3,5.6-1,1.8-1.6,2.7l-1.4,2.2c-.5.9-1.1,1.8-1.7,2.7s-1.1,1.7-1.6,2.5l-1.7,2.8-1.4,2.5a40.2,40.2,0,0,1-3,4.2l-2.8,4.1c-.4.5-.8.9-1.2,1.5l-2,2.5a25,25,0,0,1-2.2,2.4l-1.5,1.6h-.1l-2,2.4-1.1,1.2-1.9,1.7-1.9,1.8c-.5.5-1.1,1-1.6,1.6l-1.7,1.4-1.8,1.6-1.2.9a5.2,5.2,0,0,0-1.1,1l-1.1.9-1.3.9.2-.2-.9.6-.5.3h0a4.3,4.3,0,0,1-.1.5,1.3,1.3,0,0,1-1.4.6l-.7-.5-1-.6h0l-.2-.2.2.2-1.1-.9h-.3l-2-1.5H85l-.8-.6h-.1L81.6,144a25.1,25.1,0,0,1-3.1-2.6l-3-2.7.3.2c-1.1-.9-2.2-1.8-3.2-2.8l-2.8-2.6L67.2,131l-2.3-2.2-2.1-2.4L60.6,124c-1.5-1.7-2.8-3.6-4.2-5.4l-3.7-5.1-1.9-2.9c-.6-.9-1.2-1.8-1.7-2.7s-2.4-3.8-3.6-5.7-2.1-3.8-3.1-5.7l-1.5-3c-.5-.9-.9-1.9-1.4-2.8s-1.7-4.2-2.4-6.3-1.4-4.4-2-6.7l-.9-3.5L33.6,71a33.9,33.9,0,0,1-.3-6.4l.3-3.4a18.6,18.6,0,0,1,.6-3.4,10.6,10.6,0,0,1,.4-1.9,8.8,8.8,0,0,0,.5-1.5,23.3,23.3,0,0,1,1.1-2.8l1.6-2.9.8-1a8.3,8.3,0,0,1,.8-1.2l1.3-1.6,1.2-1.2,2.2-1.6,1.3-.7,1.4-.7a11.1,11.1,0,0,1,1.9-.9,7.5,7.5,0,0,1,3-.9l2.8-.2,3,.2,2,.5,1.8.5,1.8.9a49.2,49.2,0,0,1,4.5,2.8l2,1.5,1.2,1,1.4,1.1a15.4,15.4,0,0,0,1.9,1.7l1.6,1.7a15.8,15.8,0,0,1,1.2,1.5,25.6,25.6,0,0,0,2,2.6L81.1,57a13.2,13.2,0,0,1,1.6,2.5c.5,1,.9,2,1.3,3a24.4,24.4,0,0,0,1,2.4c.4.9.9,1.8,1.4,2.7l.6,1.1a5.4,5.4,0,0,1,.5,1.1,5.4,5.4,0,0,1,.7,1.3v.2c.1-.1.1-.1.1-.2a15.1,15.1,0,0,1,1.1-2.2c.8-1.6,1.6-3.2,2.5-4.8l2.8-4.8,1.2-2.2A23.9,23.9,0,0,1,97.2,55a28.3,28.3,0,0,1,3.2-4.5q1.6-1.9,3.6-3.9a24.4,24.4,0,0,1,2.9-2.7l3.1-2.2-.2.2a25.3,25.3,0,0,1,2.7-1.8Z" fill="#74c7a9"/><path id="Path_316" data-name="Path 316" d="M87,148.2Z" fill="#74c7a9"/><path id="Path_317" data-name="Path 317" d="M87,148.2Z" fill="#74c7a9"/><path id="Path_318" data-name="Path 318" d="M87,148.2Z" fill="#74c7a9"/><path id="Path_319" data-name="Path 319" d="M87,148.2h0Z" fill="#74c7a9"/><path id="Path_320" data-name="Path 320" d="M89.3,149.8h0Z" fill="#74c7a9"/><path id="Path_323" data-name="Path 323" d="M89.6,147.3Z" fill="#74c7a9"/><path id="Path_324" data-name="Path 324" d="M89.7,147.4Z" fill="#74c7a9"/></g></svg>