<svg id="Layer_1" data-name="Layer 1" xmlns="http://www.w3.org/2000/svg" width="0.8in" height="0.8in" viewBox="0 0 55.1 55.1"><title>instagram-icon</title><g id="Group_22" data-name="Group 22"><path id="Path_402" data-name="Path 402" d="M.1,25.1A27.7,27.7,0,0,0,25.1,55,27.6,27.6,0,0,0,30,.1H27.5A27.6,27.6,0,0,0,.1,25.1Zm38.8-8.3a2.3,2.3,0,0,1-1.1-.3l-.8-.8-.3-.6a4.3,4.3,0,0,1-.1-.5V14a1.5,1.5,0,0,1,.1-.7,2.6,2.6,0,0,1,1.2-1.7l.7-.2h2.1l.5.3a1.8,1.8,0,0,1,.7.5l.5.7a1.6,1.6,0,0,1,.3.9.7.7,0,0,1-.1.5c0,.2-.1.3-.2.5l-.3.5L41,16.5l-1,.4H38.9ZM25.8,51.3H24l-.9-.2-1.6-.5a11.1,11.1,0,0,1-3-1.7l-.8-.6-.5-.5a5.7,5.7,0,0,1-1.4-1.3,4.1,4.1,0,0,1-.5-.9l-.3-.7-.3-.6c-.1-.3-.1-.5-.2-.8s-.3-1-.5-1.6a8.8,8.8,0,0,1-.2-1.7c-.1-.3-.1-.6-.2-.9V38c.1-.7.1-1.4.2-2.1s.1-1.2.2-1.8l.3-1.1a3,3,0,0,1,.2-1,1.6,1.6,0,0,1,.3-.9l.3-1a10.4,10.4,0,0,0,.4-1l.5-.9c.3-.5.5-1,.8-1.4L18,25.2l.5-.6.7-.6,1.6-1.2.4-.3.5-.2.9-.4,1.9-.5,1-.2h2.9l1.2.2.8.3.9.3h1l.3.2h.9l.4.2.4.2h.1l.3.2h.1l.5.3.6.4.6.4.6.4.6.5.5.5.6.5.5.7.4.5.3.5c.2.2.3.3.3.5l.3.4c.1.2.2.3.2.5s.1.3.2.4l.2.5a1.4,1.4,0,0,1,.2.6c.1.2.1.4.2.6a.7.7,0,0,0,.1.5v2.4c0,.3-.1.6-.1.8s-.1,1.3-.1,1.9l-.3,1.9-.3.9a2.4,2.4,0,0,1-.2.8l-.3.9-.3.8-.3.6a2.5,2.5,0,0,1-.4.7,4.1,4.1,0,0,1-.5.9l-.4.7L38,46l-.6.7a5.4,5.4,0,0,1-1.5,1.5,1.8,1.8,0,0,1-.7.5,1.8,1.8,0,0,1-.7.5L33,50l-1.4.5-.7.2-.7.2-.8.2H25.8Z" fill="#ca4742"/><path id="Path_403" data-name="Path 403" d="M37.9,14.8Z" fill="#ca4742"/><path id="Path_404" data-name="Path 404" d="M26.7,26.9h-.8l-.7.3-.6.3h0l-.5.3-.4.4-.9.8-.8,1-.7,1.2h0c0,.1-.1.2-.1.4h0a5.9,5.9,0,0,0-.4.8l-.4.9c-.2.5-.3,1.1-.5,1.6s-.1.8-.2,1.2a3.4,3.4,0,0,0-.1,1,1.1,1.1,0,0,0-.1.5v1.2h0a1.9,1.9,0,0,0,.1.8c0,.3.1.5.1.7a2.5,2.5,0,0,1,.2.7c.1.2.1.4.2.6a2.5,2.5,0,0,0,.2.7l.2.3.2.3h0l.3.5.5.6h-.1l.5.4.4.4,1,.6h-.1l.7.3.6.2h.1l1.4.3h1.4l1-.2,1.1-.3h0l1.5-.7.9-.7.4-.3.3-.4h0l.6-.8.7-1.1.3-.5.3-.4.4-.9h0l.3-.6.3-.7c.1-.3.1-.5.2-.8s.1-.4.1-.6h0c.1-.3.1-.5.2-.8v-.7h0a1.3,1.3,0,0,0-.1-.6v-.6a1.3,1.3,0,0,1-.1-.6,1.1,1.1,0,0,1-.1-.5,1.4,1.4,0,0,1-.2-.6c0-.1-.1-.2-.1-.4h0l-.3-.5c-.1-.2-.1-.4-.2-.5l-.2-.5-.2-.4c0,.1,0,.1.1.1s-.2-.2-.2-.3-.1-.1-.1-.2a1,1,0,0,1-.4-.5l-.3-.2c0-.1-.1-.1-.1-.2h-.1a1,1,0,0,0-.5-.4l-.3-.2-.2-.2L31.3,28H31l-.2-.2h-.3l-.9-.2-.8-.3H26.7Zm7.7,3.8ZM19.5,39Z" fill="#ca4742"/><path id="Path_405" data-name="Path 405" d="M28.7,27h0Z" fill="#ca4742"/><path id="Path_406" data-name="Path 406" d="M30.6,27.5Z" fill="#ca4742"/><path id="Path_407" data-name="Path 407" d="M30.8,27.6Z" fill="#ca4742"/><path id="Path_408" data-name="Path 408" d="M24.6,27.7Z" fill="#ca4742"/><path id="Path_409" data-name="Path 409" d="M22.8,29.2Z" fill="#ca4742"/><path id="Path_412" data-name="Path 412" d="M20.7,43.1Z" fill="#ca4742"/><path id="Path_414" data-name="Path 414" d="M34.8,23.4h0Z" fill="#ca4742"/></g></svg>