<svg id="Layer_1" data-name="Layer 1" xmlns="http://www.w3.org/2000/svg" width="3in" height="1.4in" viewBox="0 0 216.4 103.6"><title>nav-logo-2</title><g id="Group_67" data-name="Group 67"><g id="Group_37" data-name="Group 37"><circle id="Ellipse_1" data-name="Ellipse 1" cx="39" cy="35" r="33" fill="none" stroke="#ca4742" stroke-miterlimit="10" stroke-width="4"/><g id="Group_2" data-name="Group 2"><path id="Path_2" data-name="Path 2" d="M24,22.6a1.2,1.2,0,0,0-.5.5,2,2,0,0,0-.1.7,7.6,7.6,0,0,0-.1,1.5v1.8a15,15,0,0,1-.2,2V30a4.1,4.1,0,0,0,.1,1.1v7.5a22.6,22.6,0,0,1,0,2.6,10.3,10.3,0,0,0-.1,1.7v1.6a5.6,5.6,0,0,0,0,1.3v1.1a3.4,3.4,0,0,0-.1,1v1.2c-.1,1.7-.1,3.4-.1,5s0,2.1-.1,3.2V60a19.3,19.3,0,0,1-.1,2.4v2.5a7.6,7.6,0,0,1-.1,1.5,10.3,10.3,0,0,0,.1,1.7c0,1.2-.1,2.4-.1,3.6s.1,2.1,0,3.1v3.4c0,.9,0,1.9.1,2.9a9.1,9.1,0,0,0,.1,1.7v.8c0,.5.1.9.1,1.4v1.4a1,1,0,0,0,.9,1.1,1.2,1.2,0,0,0,1.1-1V85.3c0-.5-.1-1-.1-1.4a9.2,9.2,0,0,0-.1-1.6v-.8a5.7,5.7,0,0,0-.1-1.3V70.7c0-.6.1-1.2.1-1.9s-.1-1.1-.1-1.7.1-2,.1-2.9V62.9c0-.4.1-.7.1-1.1V57.9c0-.4.1-.9.1-1.4s-.1-1.1-.1-1.7a6.1,6.1,0,0,0,.1-1.4V50.9a21.8,21.8,0,0,1,.1-2.5v-1c0-.4.1-.7.1-1.1a22.6,22.6,0,0,1,0-2.6V41.9c0-.4.1-.9.1-1.4a10.5,10.5,0,0,0,0-2.5V33.2h0v-.4h0c-.1-.7,0-1.5-.1-2.2v-.9a3.4,3.4,0,0,1,.1-1c0-.7.1-1.3.1-2V24.9a2.8,2.8,0,0,1,.1-.9h-.1a.4.4,0,0,0,.1-.3h0l-.6-.9c-.1-.1-.2-.2-.2-.3H24Zm1.4,1.2Z" fill="#ca4742"/><path id="Path_3" data-name="Path 3" d="M25.2,33.1h0Z" fill="#ca4742"/><path id="Path_5" data-name="Path 5" d="M25.2,33.4v0Z" fill="#ca4742"/><path id="Path_6" data-name="Path 6" d="M24.1,22.4a.6.6,0,0,0-.2.7,1.1,1.1,0,0,0,.3.7,8.6,8.6,0,0,1,1.4,1.3l1.5,1.6c.6.7,1.3,1.3,1.9,1.9a8,8,0,0,0,1.3,1.3l1.2,1.2,1.4,1.3,1.4,1.2,1.3,1.1,1.4,1,2.7,1.9-.8-.5-.6-.6-.5-.3-.3-.3-.8-.6h0l-.9-.9-.8-.7-.8-.7-.9-.8h.1a6.9,6.9,0,0,1-1.3-1.1l-.5-.5c-.2-.2-.4-.3-.5-.5l-.6-.6-.5-.6-.6-.6-.6-.6-.4-.5-.5-.5-.9-1-.9-1a10.5,10.5,0,0,1-.8-1.1h.1l-.6-.9-.5-.7-.2.2Z" fill="#ca4742"/><path id="Path_7" data-name="Path 7" d="M23.3,32.6a1.1,1.1,0,0,0,.2,1.4l2.4,1.6,1.5.9h0a28.7,28.7,0,0,0,3.9,2l2.1.9,2.3.8h0l1.3.5,1.5.5h0l.7.2h.2l1.5.4a18.9,18.9,0,0,0,5.3.8h1.5l-.5-.3-1.6-.9L44,40.7l-.3-.2-2-.4h-.1l-1.7-.4h0l-.8-.3h.1l-1.6-.5-1.4-.5a.1.1,0,0,0,.1.1l-2.2-.8-2-.9-3.7-1.8h-.1l-1.7-1h.2l-2.1-1.4a.7.7,0,0,0-.6-.2,1.1,1.1,0,0,0-.8.3Zm4.8,2.1h0Z" fill="#ca4742"/><path id="Path_8" data-name="Path 8" d="M27.3,36.5h-.1C27.2,36.5,27.2,36.5,27.3,36.5Z" fill="#ca4742"/><path id="Path_9" data-name="Path 9" d="M27.4,36.6h0Z" fill="#ca4742"/><path id="Path_10" data-name="Path 10" d="M40.1,39.6h0Z" fill="#ca4742"/><path id="Path_11" data-name="Path 11" d="M41.7,40.1h0Z" fill="#ca4742"/><path id="Path_12" data-name="Path 12" d="M35.7,40.2h0Z" fill="#ca4742"/><path id="Path_13" data-name="Path 13" d="M38.5,41.2Z" fill="#ca4742"/><path id="Path_14" data-name="Path 14" d="M39.3,41.4h0Z" fill="#ca4742"/><path id="Path_15" data-name="Path 15" d="M39.3,41.4Z" fill="#ca4742"/><path id="Path_17" data-name="Path 17" d="M28.4,31.8a1.4,1.4,0,0,0-.2.7.8.8,0,0,0,.4.6.9.9,0,0,0,.7.3L30,33a1.9,1.9,0,0,0,.2-.7,1,1,0,0,0-.4-.7.8.8,0,0,0-.7-.2A.8.8,0,0,0,28.4,31.8Z" fill="#ca4742"/><path id="Path_18" data-name="Path 18" d="M25.7,24.7a.9.9,0,0,0-.7.3h-.2a.8.8,0,0,0-.9.4c-.4.4-.2,1.1-.2,1.6a5.1,5.1,0,0,1,.2,1.3,20,20,0,0,1,.4,2.4l.2.5v.5a.8.8,0,0,0-.2.5v.3a1.1,1.1,0,0,0,.3.7l.7.3.7.4,1.6,1L31,37h0l1.2.7a2.2,2.2,0,0,0,1.6.5l.3.2.5.4.8.4a1.1,1.1,0,0,0,1.1-.1l.4.2,1.8.7a1,1,0,0,0,.9-.3h0l.3.2.7.3a1.4,1.4,0,0,0,1.2.3H42l1.3.5,1.2.4H45a.4.4,0,0,0,.5,0L44,40.7l-1.5-1-1.4-1-1.4-1-.7-.6-.7-.5-.5-.4-.3-.3-.8-.6h0l-.9-.8-.8-.8-.8-.7-.8-.8h0l-1.3-1-.5-.6c-.2-.2-.4-.3-.5-.5l-.6-.6-.2-.3-.2-.2c.1.1.1.2.2.2l-.9-.9h0l-.5-.6-.5-.5-.5-.5-.9-1-.8-.9Z" fill="#ca4742"/><path id="Path_19" data-name="Path 19" d="M30.9,37h-.1C30.9,36.9,30.9,36.9,30.9,37Z" fill="#ca4742"/><path id="Path_20" data-name="Path 20" d="M31,37h0Z" fill="#ca4742"/><path id="Path_21" data-name="Path 21" d="M27.5,36.2v1.7a8.6,8.6,0,0,1,.1,1.6v9.7a11.5,11.5,0,0,0-.1,1.9,10.3,10.3,0,0,1-.1,1.7c0,.6-.1,1.2-.1,1.8v1.9c0,.6-.1,1.2-.1,1.8v1.8a8.6,8.6,0,0,0-.1,1.6v1.5c-.1,1.3-.1,2.6-.1,3.9V78.2c0,.5.1.9.1,1.3a6.1,6.1,0,0,0,.1,1.4c0,.8.1,1.7.1,2.5v1.1c0,.3.1.6.1.9v.7c0,.3.1.5.1.7s0,.1.1.2a.8.8,0,0,0,.7.7h.5a1.3,1.3,0,0,0,.6-.5h0a.9.9,0,0,0,.1-.7h0V85.2a5.7,5.7,0,0,1-.1-1.3V82.3a10.9,10.9,0,0,1-.1-1.8,10.9,10.9,0,0,1-.1-1.8,12.7,12.7,0,0,1-.1-2V63.6a7.6,7.6,0,0,0,.1-1.5V60.6a11.5,11.5,0,0,0,.1-1.9,8.6,8.6,0,0,1,.1-1.6v-2a10.9,10.9,0,0,1,.1-1.8,9.1,9.1,0,0,1,.1-1.7v-.9a3.8,3.8,0,0,0,.1-1V38.4c0-.3-.1-.6-.1-1V36.2a1,1,0,0,0-.9-1.1,1.2,1.2,0,0,0-1.1.9v.2Zm1.9,49.7h0Zm.1.6h0v0Z" fill="#ca4742"/><path id="Path_22" data-name="Path 22" d="M24.1,80l-1.8.4-1.8.6-1.7.7-1.6.7-1.8,1L14,84.5l-1.4,1.3-1.3,1.1-1.2,1.2a8.7,8.7,0,0,0-1.5,3.4,10.6,10.6,0,0,0-.4,1.9,3.7,3.7,0,0,0,.1,1.8,4.4,4.4,0,0,0,.6,1.6,4,4,0,0,0,1,1.5A5.7,5.7,0,0,0,11,99.4a6.1,6.1,0,0,0,1.8.9,10,10,0,0,0,3.9.6,5.8,5.8,0,0,0,1.8-.4L20,100a12.7,12.7,0,0,0,2.7-1.8h.1l1.1-1.1a5.2,5.2,0,0,0,1-1.1l1.8-2a10,10,0,0,0,.8-1.4l.6-1.3.3-.5.3-.6c.1-.4.3-.8.4-1.3s.1-.7.2-1a4.5,4.5,0,0,0,.1-1.1.9.9,0,0,0-.3-.7l-.8-.2a.8.8,0,0,0-.6.4c-.2.1-.2.3-.2.5h0c-.1.3-.1.6-.2.9a4.4,4.4,0,0,1-.2,1l-.3.8-.5,1a18.6,18.6,0,0,1-1,2,16.3,16.3,0,0,1-1.7,2l-1,1.2-1.2,1.2.2-.2-.3.3h.1a9.1,9.1,0,0,1-1.6,1.1,8.7,8.7,0,0,1-2.5,1l-1.2.2L14,98.6l-.7-.3-1-.4a6.6,6.6,0,0,1-1.6-1.7c-.2-.4-.3-.9-.5-1.3s-.1-.5-.1-.7.1-.9.2-1.3l.3-1.4a12.2,12.2,0,0,1,.7-1.7,5.2,5.2,0,0,1,1-1.1l1-.9,1.4-1.2A6.9,6.9,0,0,1,16,85.5a7.1,7.1,0,0,1,1.4-1l1.2-.5,1.5-.7,1.4-.6,1.5-.4h0l1.4-.3,1.4-.2a.7.7,0,0,0,.6-.3.8.8,0,0,0,.2-.8.9.9,0,0,0-.3-.6.8.8,0,0,0-.8-.2H24.1ZM20,97.8h0Zm-.2,0h-.1C19.8,97.9,19.8,97.9,19.8,97.8ZM16.1,99h0Zm6.7-1Z" fill="#ca4742"/><path id="Path_23" data-name="Path 23" d="M21.3,79.6a20.2,20.2,0,0,0-3.3.9l-1.5.5-1.4.6-2.8,1.3h.2l-.9.5-.7.6L9.5,85a15.1,15.1,0,0,0-2.1,2.3l-.9,1.8c-.2.6-.5,1.2-.7,1.9l-.3,1.7a6.7,6.7,0,0,0-.1,2,9.9,9.9,0,0,0,.2,1.7,9.4,9.4,0,0,0,.6,1.5L7,99.2a9.4,9.4,0,0,0,1,1l1.4.8,1.8.5,1.8.3h1.8a13.3,13.3,0,0,0,3.4-1l1.4-.8.6-.4.6-.6h0l1.7-1.8.8-1a7.6,7.6,0,0,0,.8-1.1,1,1,0,0,0-.1-1.4,1,1,0,0,0-1.4.1h0a7.6,7.6,0,0,0-.8,1.1L21,96l-1.6,1.7h0a7.1,7.1,0,0,1-1.4,1,7.7,7.7,0,0,1-2.5,1,5.2,5.2,0,0,1-1.7.2,15.5,15.5,0,0,1-3.1-.4l-1.1-.5a3.6,3.6,0,0,1-.9-.8l-.6-.8a9.4,9.4,0,0,1-.6-1.5,11.1,11.1,0,0,1-.2-1.7c.1-.5.1-.9.2-1.4l.3-1.5.6-1.4L9,88.6a6.5,6.5,0,0,1,1.5-1.8,6.9,6.9,0,0,1,1.3-1.1,7.1,7.1,0,0,1,1.4-1l.3-.2h-.2l1.7-.8,1.7-.7,1.9-.7,1.8-.6,1.7-.2,1.5-.2h.7a.9.9,0,0,0,1.2-.7,1,1,0,0,0-.7-1.2H21.3Zm-8.2,5.1h0Zm-4,3.7h0ZM7.3,94.2h0Zm12.1,3.5h0Zm-5.5,2.2h0Zm6.8-.7h0Zm-1.2-1.6h0Z" fill="#ca4742"/><path id="Path_24" data-name="Path 24" d="M24.7,80.7l-.8.4h-.8l-.6.2-.6.3-.9.7a1.4,1.4,0,0,0-.9,0,2.2,2.2,0,0,0-1.2.5c-.1.1-.2.1-.2.2H18l-.7.2H17a1.1,1.1,0,0,0-1-.6l-1,.3-1.3.7a10.7,10.7,0,0,0-1.6,1.4l-.3.2h-.3a14,14,0,0,0-3.3,2.6l-.8,1.2A3.6,3.6,0,0,0,7,90a6,6,0,0,0-.2,2.3v1.2a8,8,0,0,0-.3,3.1,4.7,4.7,0,0,0,1.1,2.5,1.8,1.8,0,0,0,.7.5,2.1,2.1,0,0,0,1.1,0c.1.2.3.3.4.4a1.1,1.1,0,0,0,1.2-.1l.4-.4v-.2H12a.4.4,0,0,1,.1.3.9.9,0,0,0,1.3.5l.4-.2.3-.5a1.1,1.1,0,0,0,1.2.4l.3-.2h0a.9.9,0,0,0,.7.1,1,1,0,0,0,.7.2,1.6,1.6,0,0,0,.9-.3l.6-.5.3-.2h.7a2.1,2.1,0,0,0,1-.6l.6-.6,1.6-1.5a31.3,31.3,0,0,0,2.5-2.6,11.6,11.6,0,0,0,2.2-3.1l.4-.8a8.3,8.3,0,0,0,.4-1.5,6.2,6.2,0,0,0-.1-1.3,2.1,2.1,0,0,0-.4-1.1.7.7,0,0,0-.6-.4,1.1,1.1,0,0,0-.1-.8l-.3-.4v-.3a1.3,1.3,0,0,0-.1-.6l-.3-.3-.3-.2v-.4a1.3,1.3,0,0,0-.7-1.6h-.6Zm.5,1.9h0Z" fill="#ca4742"/><path id="Path_25" data-name="Path 25" d="M25.2,63h-.4a1,1,0,0,0-1,.4,1.4,1.4,0,0,0-.2.7v2.1c.1.7.1,1.4.2,2v1.8c0,.7-.1,1.4-.1,2.1v1.1a59,59,0,0,0,.3,8.4,1,1,0,0,0,1.1.9l.4-.2v.2a2.8,2.8,0,0,0,.1.9v.2a1.9,1.9,0,0,0,.1.8,1,1,0,0,0,.5.8c0,.2-.1.5-.1.7a5.6,5.6,0,0,1-.4,1.2,1.9,1.9,0,0,0,.2.8l.7.4a1,1,0,0,0,.7-.2.8.8,0,0,0,.4-.6,7.2,7.2,0,0,0,.4-1.9,14.9,14.9,0,0,0,.2-2.1,21.4,21.4,0,0,0-.1-4.4l-.3-4.3-.3-2.2-.3-2L27,69a1,1,0,0,0-.4-.5v-1a7.1,7.1,0,0,1-.1-1.4v-.9a2.5,2.5,0,0,1-.1-.8.9.9,0,0,0-.1-.5v-.2l-.2-.3a.9.9,0,0,0-.8-.4Z" fill="#ca4742"/><path id="Path_26" data-name="Path 26" d="M25.4,33.6a.8.8,0,0,0-.4.4c0,.2-.1.3-.1.5v.6h0a.4.4,0,0,0-.1.3,9.1,9.1,0,0,0-.3,2.3,19.3,19.3,0,0,0-.1,2.4,17.7,17.7,0,0,0-.1,2.3c0,.5-.1.9-.1,1.3s0,1.1.4,1.4l.4.2v.3a1,1,0,0,0-.8.6,3.5,3.5,0,0,0-.3,1.3,3.8,3.8,0,0,0-.1,1c0,.5-.1,1-.1,1.4a16.2,16.2,0,0,0-.1,2.2c-.1,1.5-.1,3-.1,4.5s.1,2.9.2,4.4.1,2.8.2,4.2.1,1.6.2,2.4a21.3,21.3,0,0,0,.3,2.5,1.1,1.1,0,0,0,.7.9,3,3,0,0,0,.4.8,1,1,0,0,0,.9.4,1.2,1.2,0,0,0,.9-.8V61.4l.2-.2a1.7,1.7,0,0,0,.1-.7.3.3,0,0,0,.1-.2v-.5c.1-.4.1-.7.2-1.1a12.7,12.7,0,0,1,.1-2V43.4c0-1.3,0-2.5.1-3.7V38c-.1-.7,0-1.4-.1-2.1a1.1,1.1,0,0,0-1-.9,3.4,3.4,0,0,0-.1-1,1,1,0,0,0-1-.6l-.5.2Z" fill="#ca4742"/><path id="Path_27" data-name="Path 27" d="M23.9,21.4a.9.9,0,0,0-.4,1.3l.9,1.5.9,1.1,1.8,2.1,2.1,2.3A6.9,6.9,0,0,1,30.3,31l1.4,1.3L34.6,35h-.1L37.1,37l2.4,1.8,2.7,1.8,2.9,1.7,1.5.8,1.5.7h.3l2.8,1.3,1.9.8a1,1,0,0,0,.7.2,1.1,1.1,0,0,0,.8-1.2.9.9,0,0,0-.4-.6L53.1,44,52,43.5l-1.2-.6-1.3-.6-.5-.2h-.2l-2.4-1.3-2.8-1.6a60.3,60.3,0,0,1-5.2-3.6l-1.8-1.4-1-.9h-.1L34.3,32a8.6,8.6,0,0,1-1.4-1.3,15.9,15.9,0,0,1-1.3-1.3l-1.2-1.3c-1.3-1.4-2.6-2.9-3.8-4.4l-.9-1.1a3.5,3.5,0,0,0-.5-.8,1.1,1.1,0,0,0-.9-.5ZM36.6,34.1h0ZM48.8,42h0ZM34.7,35.1h0Zm.8-1.9h.1a.1.1,0,0,1-.1-.1Z" fill="#ca4742"/><path id="Path_28" data-name="Path 28" d="M26,34a1.1,1.1,0,0,0-.1,1.4l1.3,1.3,1.1.8,2.6,1.6,1.3.7,1.8.9,1.3.6,1.5.6,1.4.6,1.6.6,1.5.6,1.4.5a53.6,53.6,0,0,0,5.4,1.4l2.6.4H53a1,1,0,0,0,1-1,.9.9,0,0,0-.9-1H50.7l-1.4-.2-1.2-.2a52.6,52.6,0,0,1-5.3-1.5l-1.4-.5L39.9,41l-1.5-.6-1.5-.6-2.5-1.1-1.7-.9-1.6-.9-1.6-1L28.2,35l-.8-.9a1,1,0,0,0-.7-.4.9.9,0,0,0-.7.3Zm8.3,4.7h0Zm.2.1h0Zm13.4,4.8Z" fill="#ca4742"/><path id="Path_29" data-name="Path 29" d="M39.5,40.5a1.1,1.1,0,0,0,.7,1.3c1.2.4,2.4,1.1,3.7,1.5l1.9.5.9.3.8.3a1,1,0,0,0,1.3-.5,1,1,0,0,0-.3-1.2l-1-.4-1-.3-1.8-.5c-1.4-.4-2.6-1.2-3.9-1.6h-.3a1.2,1.2,0,0,0-1,.7Zm7.8,3.8h0Z" fill="#ca4742"/><path id="Path_30" data-name="Path 30" d="M27.1,36.6a1.1,1.1,0,0,0-.8,1.2.7.7,0,0,0,.4.6l1.6.9,1.6.8h-.1l.5.2h.6l.9.4,1.7.8,1.7.5,3.5,1.1,3.3.8a13.1,13.1,0,0,0,2.7.6h.7l2.5.3h1l1.2.2a1,1,0,0,0,.8-1.7.7.7,0,0,0-.6-.3l-1.1-.2H48.1a9.1,9.1,0,0,1-2.3-.3H46l-.7-.2a.1.1,0,0,0,.1.1.1.1,0,0,1-.1-.1h-.2L39,41.3l-3.5-1.1A20.9,20.9,0,0,1,32,38.9l-.6-.3H31l-1.7-.8h.2l-1.7-.9-.6-.2Zm18.2,6.2Z" fill="#ca4742"/><path id="Path_31" data-name="Path 31" d="M24,78.1h-.4l-1.7.2-1.8.4-1.7.4-1.6.4-1.9.7-1.6.6-1.5.7-1.8.8-1.7.9L6.7,84.4l-2.4,2a5.7,5.7,0,0,0-1.1,1.1A4.4,4.4,0,0,0,2,89a9.1,9.1,0,0,0-.9,1.7,10.9,10.9,0,0,0-.5,1.7L.3,93.5a5,5,0,0,0-.2,1.2A7.6,7.6,0,0,0,0,96.2c0,.3.1.5.1.8s.1.5.2.7l.3.9a1.8,1.8,0,0,0,.5.7,7.7,7.7,0,0,0,1.8,1.8l1.4.8,1.4.6,1.8.2,1.7.3h4.1l1.2-.3a11.7,11.7,0,0,0,2.4-.9l2.3-1.3,1.7-1.3.7-.5a1,1,0,0,0,0-1.4.9.9,0,0,0-1.3-.1l-.5.4-1,.6a3.9,3.9,0,0,1-1,.8,18,18,0,0,1-3.4,1.7l-1.1.3H11.6a12.3,12.3,0,0,1-2.7-.2l-1.3-.2H6.5l-1.8-.7a7.1,7.1,0,0,1-1.4-1l-.7-.8-.4-.8A5.1,5.1,0,0,1,2,96a5.5,5.5,0,0,1,.2-1.8c0-.2.1-.4.1-.7a10.2,10.2,0,0,1,1.1-2.9,8.6,8.6,0,0,1,1-1.6l1.1-1.1,1.2-1,1.3-1,1.5-1.1,1.6-.9,1.9-.8,1.7-.7,1.7-.7a21.4,21.4,0,0,1,3.4-.9l1.9-.5,1.6-.2h1.1a.7.7,0,0,0,.6-.4,1.1,1.1,0,0,0-.2-1.4H24Zm-.5,2h0Zm-7.2,1.6h0ZM4.5,88.9h0ZM2.1,94.3h0ZM2,96.1v0ZM2.5,98h0Zm.6.7h0ZM0,96.3H0Z" fill="#ca4742"/><path id="Path_32" data-name="Path 32" d="M23.2,93.2l-.6.8-.7,1a1,1,0,0,0,.2,1.4,1.1,1.1,0,0,0,1.4-.2h0a3.6,3.6,0,0,1,.7-1l.6-.9a1,1,0,0,0-.2-1.4H24A.9.9,0,0,0,23.2,93.2Z" fill="#ca4742"/><path id="Path_33" data-name="Path 33" d="M11.6,83.2h-1l-.9.2-.8.4-.9.6A12.7,12.7,0,0,0,5.3,87l-1,1.2H4.1l-.4.3-.4.5-.3.6a5.4,5.4,0,0,0-.5,1.1,3.6,3.6,0,0,0-.4.9,4.9,4.9,0,0,0-.4,1.1,7.9,7.9,0,0,0-.5,2.2A7.5,7.5,0,0,0,1,97a1.7,1.7,0,0,0,1,1.3v.4a1.5,1.5,0,0,0,.8,1.1,1.4,1.4,0,0,0,.9,0,1.4,1.4,0,0,0,1,.5h.4l.7.4.2.3a2.1,2.1,0,0,0,1,.6,2,2,0,0,0,1.1.2H9a8.8,8.8,0,0,0,3.2-.2l2.3-1a1,1,0,0,0,.3-1.4.9.9,0,0,0-1.2-.4l-1.9.8-.6.2v-.5a2.2,2.2,0,0,0-.5-.8h-.1a2.1,2.1,0,0,0-.6-1,3.3,3.3,0,0,0-1-.6h0c0-.3.1-.6.1-.9a2.3,2.3,0,0,0-1-2l-.4-.3a1.3,1.3,0,0,0,.1-.6,14.2,14.2,0,0,0,.4-2,2.2,2.2,0,0,0-.5-1.9H7.4c.1-.3.1-.5.2-.8a1.7,1.7,0,0,0,0-1l.6-.5L9.3,86l1.3-.7h.9a1.1,1.1,0,0,0,.7-.3.9.9,0,0,0,.1-1.3h0a.9.9,0,0,0-.7-.3ZM6.9,95.7H7v.3l-.2.6-.4.2H6.3l.6-1.3Zm.1.2Zm4.7,3.9h0Z" fill="#ca4742"/><path id="Path_34" data-name="Path 34" d="M27.5,87a2.8,2.8,0,0,0-.1.9c-.1.3-.1.5-.2.8a5.6,5.6,0,0,1-.4,1.2,4.9,4.9,0,0,1-.4,1.1,2,2,0,0,0-.4.8v-.2c-.1.1-.1.2-.2.2h0a19.8,19.8,0,0,1-1.1,2l-1.5,1.7.2-.2-.8.9A10.7,10.7,0,0,1,20.8,98l-1.7,1.3-1.6.9-1.6.7a15.5,15.5,0,0,1-4.3.7,6.2,6.2,0,0,1-2.3-.2H8.7l-.8-.2H7.7a.8.8,0,0,1-.2-.5,1.1,1.1,0,0,0-1.4-.5h0a.9.9,0,0,0-.4,1.3,2,2,0,0,0,.4.8,2.5,2.5,0,0,0,1,.8l1.5.4,1.7.3a16.2,16.2,0,0,0,2.2,0,22.9,22.9,0,0,0,3.6-.7l1.8-.7,1.4-.8,1.5-.9,1.3-1a16,16,0,0,0,2.6-2.6L26.4,95a20.1,20.1,0,0,0,1.4-2.5h-.1l.2-.2h0a3,3,0,0,1,.4-.8,10.4,10.4,0,0,0,.4-1l.3-1a3.6,3.6,0,0,0,.2-1,6.4,6.4,0,0,1,.2-.7v-.7a.9.9,0,0,0-.9-1.1h-.1a1.1,1.1,0,0,0-1,.9Zm-.1,1Zm-.1.5h0ZM19.1,99.3ZM16,100.9h0Zm-.1,0h0Zm-7.5,2.4Zm.9-1.9h0Zm18.6-9h0ZM26,91.8Z" fill="#ca4742"/></g></g><g id="music_magic" data-name="music magic" style="isolation:isolate"><g style="isolation:isolate"><path d="M99.2,31.9c1.5-2.1,3.2-3.2,5.2-3.2a7.4,7.4,0,0,1,7,4l1.3-1.5a8.9,8.9,0,0,1,2.2-1.6,6.6,6.6,0,0,1,3.3-.9,7.7,7.7,0,0,1,6.1,2.8c1.7,1.9,2.5,5,2.5,9.4v8a6.7,6.7,0,0,1-.1,1.6,2.8,2.8,0,0,1-.4,1.2c-.4.9-1.6,1.3-3.5,1.3s-3.2-.5-3.6-1.3-.3-.9-.4-1.2V40.8c0-2.6-1-4-2.9-4a2.3,2.3,0,0,0-2.2,1.1,6.1,6.1,0,0,0-.6,3v9.6a3.1,3.1,0,0,1-.5,1.2c-.4.9-1.6,1.3-3.6,1.3s-3.1-.5-3.5-1.3-.3-.9-.4-1.2-.1-.9-.1-1.6V40.8c0-2.6-.9-4-2.8-4s-2.8,1.4-2.8,4v9.8a5.1,5.1,0,0,1-.5,1.2Q98.3,53,95.3,53c-1.9,0-3.1-.4-3.5-1.3a5.6,5.6,0,0,1-.4-1.2c0-.3-.1-.8-.1-1.6V32.7c0-.7.1-1.2.1-1.6a7.6,7.6,0,0,1,.4-1.1c.5-.9,1.6-1.3,3.3-1.3s2.8.3,3.4.9A3.2,3.2,0,0,1,99.2,31.9Z" fill="#ca4742"/><path d="M141.6,52.9a9.8,9.8,0,0,1-7.7-3.5,13,13,0,0,1-3.1-8.6V32.7c0-.7.1-1.2.1-1.6s.2-.7.4-1.2,1.6-1.2,3.6-1.2,3.4.6,3.8,1.7a7.6,7.6,0,0,1,.2,2.4v8a4.1,4.1,0,0,0,1.1,3,3.9,3.9,0,0,0,2.9,1,3.8,3.8,0,0,0,4.1-4V32.7a7.1,7.1,0,0,1,.1-1.6,2.8,2.8,0,0,1,.4-1.2c.4-.8,1.6-1.2,3.5-1.2s3.2.4,3.6,1.2.3.9.4,1.2V50.6a3.4,3.4,0,0,1-.5,1.1c-.4.8-1.6,1.2-3.5,1.2s-3-.3-3.5-1.1a3.6,3.6,0,0,1-.4-1.9l-.8,1-1.3,1A6.7,6.7,0,0,1,141.6,52.9Z" fill="#ca4742"/><path d="M159.3,50.8a1.9,1.9,0,0,1-.9-1.7c0-.8.6-2,1.8-3.7a1.7,1.7,0,0,1,1.6-.8,6.2,6.2,0,0,1,3,1.2,7.8,7.8,0,0,0,3.5,1.1c1.9,0,2.8-.4,2.8-1.1s-1-1-3-1.3a14.8,14.8,0,0,1-5.8-2.2,5.8,5.8,0,0,1-2.2-2.6,8.7,8.7,0,0,1-.9-4.2c0-4.8,3.4-7.2,10-7.2a16.6,16.6,0,0,1,6.7,1.5c1.1.5,1.6,1.1,1.6,1.9a5.3,5.3,0,0,1-1,2.7c-.6,1.1-1.3,1.6-2,1.6a5.5,5.5,0,0,1-2.1-.7,7.1,7.1,0,0,0-3.2-.7c-1.8,0-2.7.4-2.7,1s1,1.5,3.1,1.8a16.1,16.1,0,0,1,5.9,1.8,4.7,4.7,0,0,1,2.2,2.2,8.2,8.2,0,0,1,.9,4,8.8,8.8,0,0,1-.9,4.1,6,6,0,0,1-2.5,2.5,17.8,17.8,0,0,1-7.4,1.4A15.9,15.9,0,0,1,159.3,50.8Z" fill="#ca4742"/><path d="M189.5,24.2a1.8,1.8,0,0,1-1.2,1,7.5,7.5,0,0,1-2.3.3,6.7,6.7,0,0,1-2.3-.3,2.2,2.2,0,0,1-1.3-1A5.6,5.6,0,0,1,182,23V19.8a7.6,7.6,0,0,1,.4-1.1c.4-.9,1.6-1.3,3.6-1.3s3.1.4,3.5,1.3a2.8,2.8,0,0,1,.4,1.2,6.7,6.7,0,0,1,.1,1.6,5.8,5.8,0,0,1-.1,1.5A1.9,1.9,0,0,1,189.5,24.2ZM182,32.8V31.2a5.6,5.6,0,0,1,.4-1.2q.6-1.2,3.6-1.2c1.5,0,2.5.2,3.1.8a2.3,2.3,0,0,1,.9,1.9V49a7.1,7.1,0,0,1-.1,1.6,4.1,4.1,0,0,1-.4,1.2c-.4.8-1.6,1.2-3.5,1.2s-3.2-.4-3.6-1.3a5.6,5.6,0,0,1-.4-1.2V32.8Z" fill="#ca4742"/><path d="M201.6,40.8a3.9,3.9,0,0,0,1.3,3.1,4.5,4.5,0,0,0,2.8,1.1,4.8,4.8,0,0,0,2.7-.9,3.5,3.5,0,0,1,2-.8c.9,0,2.1.8,3.4,2.4a4,4,0,0,1,1,2.4c0,1.2-.8,2.2-2.5,3.3a11,11,0,0,1-6.4,1.8,13.2,13.2,0,0,1-8.3-3.1,11.9,11.9,0,0,1-3-3.9,12.5,12.5,0,0,1-1.2-5.4,12.1,12.1,0,0,1,4.2-9.3,13.2,13.2,0,0,1,11.6-2.6l2.4,1,.8.4,1.2.9a2.6,2.6,0,0,1,1.2,2.1,5.4,5.4,0,0,1-.9,2.7c-1.1,1.6-2.2,2.5-3.2,2.5a6.3,6.3,0,0,1-2.5-1,2.8,2.8,0,0,0-2.3-.8,4.6,4.6,0,0,0-2.9,1.1A3.6,3.6,0,0,0,201.6,40.8Z" fill="#ca4742"/></g><g style="isolation:isolate"><path d="M99.2,71.7c1.5-2.2,3.2-3.3,5.2-3.3a7.6,7.6,0,0,1,7,4l1.3-1.4a8.8,8.8,0,0,1,2.2-1.7,6.6,6.6,0,0,1,3.3-.9,7.8,7.8,0,0,1,6.1,2.9c1.7,1.8,2.5,5,2.5,9.3v8.1a7.1,7.1,0,0,1-.1,1.6,4.1,4.1,0,0,1-.4,1.2c-.4.8-1.6,1.2-3.5,1.2s-3.2-.4-3.6-1.3a5.6,5.6,0,0,1-.4-1.2V80.6c0-2.7-1-4-2.9-4a2.3,2.3,0,0,0-2.2,1,6.1,6.1,0,0,0-.6,3v9.7a5.1,5.1,0,0,1-.5,1.2q-.6,1.2-3.6,1.2c-1.9,0-3.1-.4-3.5-1.3a5.6,5.6,0,0,1-.4-1.2c0-.3-.1-.9-.1-1.6v-8c0-2.7-.9-4-2.8-4s-2.8,1.3-2.8,4v9.7a3.1,3.1,0,0,1-.5,1.2q-.6,1.2-3.6,1.2c-1.9,0-3.1-.4-3.5-1.2s-.3-.9-.4-1.2-.1-.9-.1-1.6V72.5c0-.7.1-1.3.1-1.6a8.4,8.4,0,0,1,.4-1.2q.8-1.2,3.3-1.2a5.4,5.4,0,0,1,3.4.8A3.6,3.6,0,0,1,99.2,71.7Z" fill="#ca4742"/><path d="M145.5,71.1c.2-1.8,1.4-2.6,3.6-2.6a9.1,9.1,0,0,1,2.7.3,1.6,1.6,0,0,1,1.2.9,4.1,4.1,0,0,1,.4,1.2,7.1,7.1,0,0,1,.1,1.6V88.6a6.7,6.7,0,0,1-.1,1.6,2.8,2.8,0,0,1-.4,1.2c-.4.8-1.5,1.2-3.1,1.2a6.6,6.6,0,0,1-3.4-.6,2.4,2.4,0,0,1-1-1.8q-1.6,2.4-5.7,2.4a9.9,9.9,0,0,1-7.3-3.6,12.2,12.2,0,0,1,0-16.9,10.3,10.3,0,0,1,7.5-3.6,7.2,7.2,0,0,1,2.9.6,5,5,0,0,1,1.7,1A2.8,2.8,0,0,1,145.5,71.1Zm-8.4,9.5a4.1,4.1,0,0,0,1.2,2.8,4,4,0,0,0,2.9,1.2,3.4,3.4,0,0,0,2.8-1.3,3.7,3.7,0,0,0,1.2-2.7,4.5,4.5,0,0,0-1.1-2.8,3.8,3.8,0,0,0-2.9-1.3,4.2,4.2,0,0,0-3,1.3A4.5,4.5,0,0,0,137.1,80.6Z" fill="#ca4742"/><path d="M171.8,89.7c-1.2,1.5-3,2.3-5.6,2.3s-4.9-1.2-7.1-3.5a11.4,11.4,0,0,1-3.4-8.2,11.9,11.9,0,0,1,3.4-8.3,10.2,10.2,0,0,1,7.4-3.5,6.7,6.7,0,0,1,2.8.6,4.7,4.7,0,0,1,1.8,1,2.8,2.8,0,0,1,.7.9,2.6,2.6,0,0,1,1-1.9,3.7,3.7,0,0,1,2.6-.7,8.4,8.4,0,0,1,2.6.3,1.9,1.9,0,0,1,1.2.9,8.4,8.4,0,0,1,.4,1.2c0,.3.1.8.1,1.5V91.4a10.9,10.9,0,0,1-3.7,8.5,12.2,12.2,0,0,1-8.3,3.3,14.5,14.5,0,0,1-6.7-1.7c-2.1-1.2-3.1-2.2-3.1-3.1a4.4,4.4,0,0,1,1.3-3.2l1.4-1.3a1.5,1.5,0,0,1,1.1-.4,1.9,1.9,0,0,1,1.3.6,8,8,0,0,0,4.8,1.7,3.7,3.7,0,0,0,2.9-1.4,5.2,5.2,0,0,0,1.1-3.3Zm-8.2-9.4a3.7,3.7,0,0,0,1.2,2.7,3.8,3.8,0,0,0,2.8,1.2,3.4,3.4,0,0,0,2.8-1.3,4,4,0,0,0,1.1-2.6,3.9,3.9,0,0,0-1-2.7,3.6,3.6,0,0,0-2.9-1.3,3.7,3.7,0,0,0-2.9,1.2A4.5,4.5,0,0,0,163.6,80.3Z" fill="#ca4742"/><path d="M190.2,64a2.1,2.1,0,0,1-1.3.9,6.7,6.7,0,0,1-2.3.3,7.5,7.5,0,0,1-2.3-.3,1.6,1.6,0,0,1-1.2-.9,4.1,4.1,0,0,1-.4-1.2,7.1,7.1,0,0,1-.1-1.6,6.7,6.7,0,0,1,.1-1.6,1.9,1.9,0,0,1,.4-1.2c.4-.8,1.6-1.2,3.5-1.2s3.1.4,3.5,1.2a5.1,5.1,0,0,1,.5,1.2v3.2A5.6,5.6,0,0,1,190.2,64Zm-7.6,8.5a7.1,7.1,0,0,1,.1-1.6,2.4,2.4,0,0,1,.4-1.2c.4-.8,1.6-1.2,3.5-1.2a5.1,5.1,0,0,1,3.2.8,2.5,2.5,0,0,1,.8,2v19a3.1,3.1,0,0,1-.5,1.2c-.4.8-1.5,1.2-3.5,1.2s-3.1-.4-3.5-1.2a2.4,2.4,0,0,1-.4-1.2,7.1,7.1,0,0,1-.1-1.6Z" fill="#ca4742"/><path d="M201.2,80.6a3.5,3.5,0,0,0,1.3,3,3.6,3.6,0,0,0,2.7,1.1,5,5,0,0,0,2.7-.8A4,4,0,0,1,210,83c.9,0,2,.8,3.3,2.5a3.7,3.7,0,0,1,1.1,2.3c0,1.2-.9,2.3-2.5,3.3a11.3,11.3,0,0,1-6.5,1.9,13.5,13.5,0,0,1-8.2-3.1,10.5,10.5,0,0,1-3.1-4,12.8,12.8,0,0,1,0-10.8,11,11,0,0,1,3.1-3.9,12.3,12.3,0,0,1,11.5-2.5l2.5.9.7.5,1.3.9a2.6,2.6,0,0,1,1.2,2.1,4.8,4.8,0,0,1-1,2.6c-1.1,1.7-2.1,2.5-3.2,2.5a4.8,4.8,0,0,1-2.4-1,3.6,3.6,0,0,0-2.4-.8,4.8,4.8,0,0,0-2.9,1.1A3.9,3.9,0,0,0,201.2,80.6Z" fill="#ca4742"/></g></g></g></svg>