<svg id="Layer_1" data-name="Layer 1" xmlns="http://www.w3.org/2000/svg" width="2.5in" height="2.5in" viewBox="0 0 178.9 178.9"><title>planet-icon</title><g id="Group_39" data-name="Group 39"><path id="Path_193" data-name="Path 193" d="M59.6,5.1l1,.7a4.4,4.4,0,0,1,.8,1.1L62.1,8a6.1,6.1,0,0,1,.8,2.6,11.3,11.3,0,0,1,0,2.6,4.6,4.6,0,0,1-.6,2.3,10.1,10.1,0,0,1-1.2,2.3l-1.2,2V20a.3.3,0,0,1-.1.2L59,21.6a16.2,16.2,0,0,1-1,1.8l-1.9,3.3c0-.1.1-.2.1-.3L55.5,28l-.9,1.9c-1.2,2-2.4,4-3.5,6.1l.2-.3a12.3,12.3,0,0,0-1.2,2.6v1.1c.1.1.1.2.2.2l.3.3.8.2h1a4,4,0,0,0,1.5-.3l1.9-.2H59a13.5,13.5,0,0,0,2.9-.5h-.3a18.7,18.7,0,0,0,3.2-1.5l1.4-.7,1.6-.6a8.6,8.6,0,0,1,1.7-.3,4.1,4.1,0,0,1,1.6.3l1.1.4,1.1.5,1.3.7a4.3,4.3,0,0,1,.9,1,5.6,5.6,0,0,1,1,2.4,15,15,0,0,1,0,3L75.9,47h-.1a8.1,8.1,0,0,0-.1,1.6,5.9,5.9,0,0,0,.2,1.3,9.9,9.9,0,0,1,.2,1.7,9.7,9.7,0,0,1-.1,1.7,10.5,10.5,0,0,1-.6,2.4,23.3,23.3,0,0,1-1.1,2.8A25.5,25.5,0,0,0,73,61.5a26.4,26.4,0,0,0-1.2,4l-.3,1.3h0a7.9,7.9,0,0,1-.6,2.2A12.3,12.3,0,0,1,69,72c-.9,1.2-1.9,2.3-2.9,3.4l-2.5,3.2-1.1,1.6-1.1,1.2a10.9,10.9,0,0,1-1.7,1.3l-1.1.4-1.6.2a9.7,9.7,0,0,1-2.4.1H52.3l-2-.3-1.6-.2-1.1.2-.6.3a21.6,21.6,0,0,0-2.7,2.5c-.1,0-.1,0-.1.1h-.1l-1.5,1.7a10.6,10.6,0,0,1-1.5,1.5,7.8,7.8,0,0,1-1.8,1.1l-2.1.7a19.3,19.3,0,0,1-4.2.4H29.3l-1.8.3-.4.3a1,1,0,0,0-.5.4l-.4.5a8.4,8.4,0,0,0-.5,1.7,13.6,13.6,0,0,0-.2,2c.1.4.1.8.2,1.2a3.8,3.8,0,0,1,0,1.5,10.5,10.5,0,0,1-.6,2.4v.2h.1a5.7,5.7,0,0,1,1.8,1.2,5.1,5.1,0,0,1,1.4,2.6,4.5,4.5,0,0,1,.3,1.6,5.1,5.1,0,0,1-.2,1.3l-.3,1.1-.3.8c0,.3-.1.6-.1.9s.1.7.2,1.1.1.8.2,1.2h0a3.7,3.7,0,0,1-.1,1.1c-.1.4-.1.8-.2,1.2a1.5,1.5,0,0,0-.1.7,1.1,1.1,0,0,0,.1.5l.2.5h0l.2.2h0a3.5,3.5,0,0,1,.5.8,7.2,7.2,0,0,1,1.3,2.8,6.4,6.4,0,0,1-1.1,5.5l-2.2,2.2-1.2.9-.9.8-1.1.8a2.7,2.7,0,0,1-.8.7,16.7,16.7,0,0,1-2.8,1.8l-2.8,1.1a7.1,7.1,0,0,0-1.5,1.5l.2-.3-.5.6h-.1v.2h.1l-.8.8a94.6,94.6,0,0,0,17.2,19.6l1.5-.4,1.6-.4c1.5-.5,2.8-1.4,4.4-1.9l2.7-.4,1.7-.2,2-.4,2.6-1.1a12.9,12.9,0,0,0,1.7-1.6,13.6,13.6,0,0,0,2.4-3.5v.3a21.1,21.1,0,0,1,1.8-3.3,11.2,11.2,0,0,0,1.6-2.2l.3-.7a8.6,8.6,0,0,0,.1-1.6h0a.1.1,0,0,1-.1-.1v-.6a4.9,4.9,0,0,1-.1-1.2,3.6,3.6,0,0,1,.7-1.8l1.2-.9a8.5,8.5,0,0,1,1.7-.6l1.5-.4h-.3l1.7-.7a5.2,5.2,0,0,0,1.1-1l1.3-1.8h0c.1,0,.1-.1.1-.2a11.9,11.9,0,0,0,.8-2,22.9,22.9,0,0,1,1-2.3,10.7,10.7,0,0,1,1.8-1.9l1.8-1.7h.1a5.2,5.2,0,0,1,1-1.1,2.7,2.7,0,0,1,1.7-1,3.8,3.8,0,0,1,1.5-.1h1.4l1.8.5,1.3.5,1.2.7.7.5H81l1.1.4h1.4l2.1-.3h1a3.3,3.3,0,0,1,1.7.1l1.1.6a4.6,4.6,0,0,1,.7.7,9.8,9.8,0,0,1,1.8,1.7,6.9,6.9,0,0,1,1.6,2.2,10.2,10.2,0,0,1,.6,2.5v2.4a12.1,12.1,0,0,0-.1,1.9,5.1,5.1,0,0,0,.3,1.7l.3,2a11,11,0,0,1-.2,1.8,7.1,7.1,0,0,0-.2,2c0,.2.1.4.1.6l.4.9h.1l.6.9.3,1a5.8,5.8,0,0,1,.2,1.9,9.7,9.7,0,0,1-.1,1.7V152l.2.2.4.3.9.3h1l1.1-.2,1-.5,1-.8a3.5,3.5,0,0,0,.6-.9,4.9,4.9,0,0,0,.6-1.7,18.2,18.2,0,0,1,.7-2.5,4.3,4.3,0,0,1,2.8-2.1,8.4,8.4,0,0,1,2.7-.4l3.1-.4.9-.4.4-.3v-.5l.9-2.6.3-1,.3-1.1c.1-.4.3-.8.4-1.2s.3-.8.4-1.2a22.4,22.4,0,0,1,2.4-4.7,5.2,5.2,0,0,1,1-1.1l.8-.8a6.7,6.7,0,0,1,2.3-1h2.2l1.5-.4h.1a30,30,0,0,0,3.9-2.2c.8-.5,1.4-1.1,2.1-1.6A8,8,0,0,1,134,122a4.3,4.3,0,0,1,2.2-.6h.1a3.1,3.1,0,0,1,2.4,1.2,4,4,0,0,1,1.3,1.6,4.9,4.9,0,0,1,.5,2.9,5.9,5.9,0,0,1-.2,1.3l-.3,1.2a13,13,0,0,0-.8,1.7h.2a10.4,10.4,0,0,1,2.5,0,4.7,4.7,0,0,1,1.5.6l.8.5a1,1,0,0,1,.4.5h.4l2.7.8a13.7,13.7,0,0,0,3.5.2h-.3l1.6-.2,1.2-.6.9-.8,2-2.5.8-.9.9-.6a4.4,4.4,0,0,1,1.6-.6h1.7l1.4.2,1.5.3,1.3.4h1.8l2,.5a91.1,91.1,0,0,0,9-31.9c.1-1.2.1-2.3.2-3.4a7.5,7.5,0,0,1-2.1-.2H176a1,1,0,0,1-.9-.2c-.1-.1-.2-.1-.2-.2a5.7,5.7,0,0,1-1.3-.8l-1.1-1-.8-.9-.3-.2-.5-.2h-.8l-4.4.8a12.4,12.4,0,0,1-2.7.3h-2.4l-.5.3a5.8,5.8,0,0,0-1.2,1l-1.1,1.3-.7,1.1a10.3,10.3,0,0,0-.7,2.1,18.2,18.2,0,0,1-1.5,2.7l.2-.3c-.5,1.1-1,2.2-1.6,3.3l-.5.7a2.8,2.8,0,0,1-1,.9,4,4,0,0,1-1.5.3l-1.1-.3a14.1,14.1,0,0,1-3.8-2.1l-2.1-1.6-2.2-1.3h-.1l-1.5-.6h-.6l-1,.2-1.3.3a8.7,8.7,0,0,1-3.6-.1,6.9,6.9,0,0,1-3.5-2,21.3,21.3,0,0,1-1.6-2.5l-.9-1.2-.6-.4h-1.4l-3.6.5a12.2,12.2,0,0,1-3.3.1l-1.7-.3-1.4-.5-1.6-.5-1.3-.3-1.7-.5a8.4,8.4,0,0,1-1.4-.6l-1.2-1a3,3,0,0,1-.9-1.3,6.4,6.4,0,0,1-.7-3.1c0-.9.1-1.8.1-2.7s-.1-.5-.2-.8a.4.4,0,0,1,.1.3l-.6-1.7a6.9,6.9,0,0,1-.2-1.3c0-.5.1-.9.1-1.4a7.4,7.4,0,0,1,.4-1.4,4.7,4.7,0,0,1,.6-1.5,3.5,3.5,0,0,1,1.9-1.7,11.8,11.8,0,0,1,4.2-.5h.2l1.3-.2.6-.3c.1-.1.2-.1.2-.2l.8-.9,1-1.1a13.3,13.3,0,0,0,1.4-1.9c.5-.9.7-1.9,1.2-2.8a27.1,27.1,0,0,0,1.3-3v-.5a2.7,2.7,0,0,0-.3-1.2,6.8,6.8,0,0,1-.2-1.4,6.3,6.3,0,0,1,1-3,15.9,15.9,0,0,1,2-2.4,11.2,11.2,0,0,0,1.6-2.2l.3-.8v-.5c0-.2,0-.3-.1-.4s0-.2-.1-.2l-1.1-1.2A6,6,0,0,1,123,47l-.4-.5-1-.7-.5-.7a2.2,2.2,0,0,1-.2-1.1V42.3h0c-.1-.6-.1-1.2-.2-1.8V38.2h-.2l-.4-.2-2.5-.2h-2.4l-1.6.2-1.3.4-2.5.7h.3l-1.8.7-2.2.7a13.2,13.2,0,0,1-3.4.4,4.1,4.1,0,0,1-1.9-.4l-1-.6a3.1,3.1,0,0,1-.9-1.1,16.9,16.9,0,0,1-.8-2.4h0a5.6,5.6,0,0,0-.9-1.7,14.8,14.8,0,0,0-.8-1.3,4.9,4.9,0,0,1-.5-1.6,9.7,9.7,0,0,1,.5-3.8,25.8,25.8,0,0,1,.8-2.6l.9-2.8.7-2.5.6-2.6h0c.3-1.2.4-2.3.6-3.5a7.7,7.7,0,0,0,.2-1.5V11.2h0V11h0c-.1-.6-.1-1.2-.2-1.9a5.7,5.7,0,0,1,.3-1.8,10,10,0,0,1,2-2.9l.4-.5a1,1,0,0,1,.4-.7c0-.1.1-.1.2-.2l.3-1c.1-.3.1-.6.2-.9C101.6.8,99.5.5,97.4.4a72.6,72.6,0,0,0-8-.4A88.9,88.9,0,0,0,59.6,5.1ZM71.5,66.8Zm41.4,5.7Z" fill="#74c7a9"/><path id="Path_194" data-name="Path 194" d="M166.9,131.5a2.1,2.1,0,0,0-.4.6l.2-.2a4.1,4.1,0,0,0-.5.9l-.6.8h.1l-.2.2h.1a.3.3,0,0,0-.1.2h-.1l-.8,1.2-.8,1.3-1,1.4a8.3,8.3,0,0,0-.8,1.2c-.5.6-.9,1.3-1.4,2l-1.5,1.9-2.6,3.1-1.3,1.5-1.5,1.6-1.6,1.7-1.9,1.8h.2l-1.1,1-1,.9-2.1,1.7-1.8,1.5-1.9,1.4-1.8,1.3-1.9,1.4-1.8,1.2-2,1.1h-.2l-1.4.7-1.7,1-1.3.7-.6.4h-.3a50.5,50.5,0,0,1-5.3,2.4l-.5.3h.1l-2.1,1.1-1.9.8a8.7,8.7,0,0,1-3.1,1h-.2l-3.2.7h0l-3.8.7-5.6,1-5.8.8-1.2.2H95.2l-3.2.3H85a17.2,17.2,0,0,1-3.2-.2l-2.5-.3-2.8-.5-2.8-.4a33.3,33.3,0,0,1-5.5-1l-2.1-.4-2.5-.5h.3l-2-.6h.3a66.7,66.7,0,0,1-7.4-2.9l-1-.5-1-.5a11.1,11.1,0,0,1-1.9-.9l-1.8-1-1-.7-.4-.2h0l-1.2-.7h.1l-.5-.3-.9-.6-1.1-.5-1.2-.7h.2l-.7-.4h.1l-.4-.2-.6-.3h.1l-.3-.2h.1l-.8-.4-.7-.4L38,160.3l-1.5-1,.3.2-.7-.4-.7.2a3.1,3.1,0,0,1-1.3.3,88.6,88.6,0,0,0,47.4,18.9,89.5,89.5,0,0,0,86.9-47.1l-.8-.2h-.5l-.2.3ZM36.1,159.1h0Zm4.5,2.8h0Zm.5.3h.2C41.2,162.3,41.1,162.3,41.1,162.2Z" fill="#74c7a9"/><path id="Path_197" data-name="Path 197" d="M169.5,129.3Z" fill="#74c7a9"/><path id="Path_198" data-name="Path 198" d="M147.8,133.7Z" fill="#74c7a9"/><path id="Path_199" data-name="Path 199" d="M97.1,34.4Z" fill="#74c7a9"/><path id="Path_200" data-name="Path 200" d="M97.1,34.5h0Z" fill="#74c7a9"/><path id="Path_201" data-name="Path 201" d="M126,127h0Z" fill="#74c7a9"/><path id="Path_206" data-name="Path 206" d="M97.3,34.6h-.1A.1.1,0,0,0,97.3,34.6Z" fill="#74c7a9"/><path id="Path_210" data-name="Path 210" d="M81,123.1Z" fill="#74c7a9"/><path id="Path_211" data-name="Path 211" d="M81.2,123.2h0Z" fill="#74c7a9"/><path id="Path_212" data-name="Path 212" d="M64.8,131v.2h0V131Z" fill="#74c7a9"/><path id="Path_213" data-name="Path 213" d="M63.3,133.2h0Z" fill="#74c7a9"/><path id="Path_214" data-name="Path 214" d="M55.9,140.2H56c0-.1,0-.2-.1-.2Z" fill="#74c7a9"/><path id="Path_216" data-name="Path 216" d="M94.7,144.3Z" fill="#74c7a9"/><path id="Path_217" data-name="Path 217" d="M94.8,144.3h0Z" fill="#74c7a9"/><path id="Path_218" data-name="Path 218" d="M94.8,144.3Z" fill="#74c7a9"/><path id="Path_219" data-name="Path 219" d="M94.9,144.5h0Z" fill="#74c7a9"/><path id="Path_220" data-name="Path 220" d="M96,152.1h0Z" fill="#74c7a9"/><path id="Path_221" data-name="Path 221" d="M105.7,3l1.4.4,1.1.3,1.3.3,1.7.5a10.6,10.6,0,0,0,1.9.6l1.7.6,1.7.6L121.2,8l5,2.1h.2l.8.3,2.2,1,2,1.1,2.3,1.2,1,.5,1,.6a26.4,26.4,0,0,1,3.5,2.3l2.1,1.5,1.8,1.4-.2-.2,1.6,1.3h.2a6.9,6.9,0,0,0,1.3,1.1h-.1a.1.1,0,0,1,.1.1h.2l.9.7.7.8,1.4,1.4,1.2,1.2.2.3.7.6,1,1h.1l1,.8a3.9,3.9,0,0,1,.8,1l1.2,1.4,1.2,1.5h0c.8,1.2,1.7,2.3,2.6,3.4a31.1,31.1,0,0,1,2.3,2.8h0c.1,0,.1,0,.1.1s0-.1-.1-.1.1,0,.1.1h.1l1.2,1.6a8.6,8.6,0,0,1,1.3,2,.3.3,0,0,0,.1.2h.1l.5.9a1.7,1.7,0,0,1,.2.5.8.8,0,0,1,.2.4h0c.1.1.1.1.1.2h0l.3.6h.1l.3.6.7,1.4a5.2,5.2,0,0,1,.6,1.3l.7,1.2.6,1.4c.5,1.1,1.1,2.1,1.6,3.2l1.5,3.8c.3.7.5,1.3.7,1.9l.6,1.9h0v.2h0a.1.1,0,0,1,.1.1h0a.1.1,0,0,0,.1.1v.2h0l.6,1.9c0-.1,0-.1-.1-.3s.6,2.3.9,3.5a.4.4,0,0,0-.1-.3c0,.1.1.1.1.2h0v.2a1.4,1.4,0,0,0,.2.6l.3,1.2.3,1.4a9.3,9.3,0,0,1,.4,1.3l.3,1.3c.1,1,.3,1.9.4,2.9a7.8,7.8,0,0,0,.2,1.4,6.1,6.1,0,0,1,.1,1.4h0V81h0v.1c0,.3.1.6.1.9v1.7h0a.4.4,0,0,1,.1.3h0v1.9a5.7,5.7,0,0,0,0,1.3.4.4,0,0,1-.1-.3v.7h.1v1.2a2.8,2.8,0,0,0-.1.9c0,.5-.1,1-.1,1.5v.2h1.9A89.4,89.4,0,0,0,106,1.5L105.7,3Zm50.9,30.4.2.2Zm4.9,6.1Zm4.2,6.8h0Z" fill="#74c7a9"/><path id="Path_222" data-name="Path 222" d="M161.6,39.7h0Z" fill="#74c7a9"/><path id="Path_223" data-name="Path 223" d="M161.6,39.7h0Z" fill="#74c7a9"/><path id="Path_224" data-name="Path 224" d="M164.3,43.6h0Z" fill="#74c7a9"/><path id="Path_227" data-name="Path 227" d="M126.2,10.2Z" fill="#74c7a9"/><path id="Path_228" data-name="Path 228" d="M146.1,22.6h0Z" fill="#74c7a9"/><path id="Path_229" data-name="Path 229" d="M146.1,22.6Z" fill="#74c7a9"/><path id="Path_230" data-name="Path 230" d="M146.1,22.6Z" fill="#74c7a9"/><path id="Path_231" data-name="Path 231" d="M146.1,22.7h0Z" fill="#74c7a9"/><path id="Path_236" data-name="Path 236" d="M146.1,22.7Z" fill="#74c7a9"/><path id="Path_237" data-name="Path 237" d="M173.2,63.5h0Z" fill="#74c7a9"/><path id="Path_240" data-name="Path 240" d="M100.6,36.7h0Z" fill="#74c7a9"/><path id="Path_243" data-name="Path 243" d="M173.2,63.4Z" fill="#74c7a9"/><path id="Path_245" data-name="Path 245" d="M177.2,88.1v-.2h0v.3Z" fill="#74c7a9"/><path id="Path_247" data-name="Path 247" d="M98,36.2h0Z" fill="#74c7a9"/><path id="Path_248" data-name="Path 248" d="M123.2,44.1h0Z" fill="#74c7a9"/><path id="Path_249" data-name="Path 249" d="M122.9,46.9h0Z" fill="#74c7a9"/><path id="Path_250" data-name="Path 250" d="M75.8,47.1h0Z" fill="#74c7a9"/><path id="Path_251" data-name="Path 251" d="M125,49.4v-.2C124.9,49.3,125,49.3,125,49.4Z" fill="#74c7a9"/><path id="Path_252" data-name="Path 252" d="M120.8,61.7h0Z" fill="#74c7a9"/><path id="Path_253" data-name="Path 253" d="M116.9,69.7h0Z" fill="#74c7a9"/><path id="Path_254" data-name="Path 254" d="M44.2,85.8h0Z" fill="#74c7a9"/><path id="Path_255" data-name="Path 255" d="M44.1,85.9Z" fill="#74c7a9"/><path id="Path_256" data-name="Path 256" d="M141.2,99.2Z" fill="#74c7a9"/><path id="Path_258" data-name="Path 258" d="M.4,81.5a88.5,88.5,0,0,0,12.8,54.7l.3-.4h0l.3-.3h0l1-1-.3-.5h0l-.2-.2v.2a.5.5,0,0,0-.2-.4h0l-.8-1.3-.8-1.6c.1.1.1.1.1.2a.3.3,0,0,0-.1-.2h0l-.2-.2h.1v-.2h0l-1.1-2.2h-.1a5.6,5.6,0,0,0-.5-.8,6.9,6.9,0,0,1-.4-1l-.9-2-.8-1.8c-.5-1.3-.9-2.6-1.4-3.8a9.3,9.3,0,0,0-.5-1l-.3-1a4.9,4.9,0,0,1-.4-1.1c0-.3-.2-.6-.2-.8a15.2,15.2,0,0,1-.6-2,4.2,4.2,0,0,0-.4-1c-.1-.3-.1-.7-.2-1h0v-.2L4.2,109a4.6,4.6,0,0,1-.3-.9h0c-.3-1-.5-2.1-.7-3.1s-.2-2.3-.4-3.5-.1-1.3-.2-2a13.4,13.4,0,0,1-.1-2,22.9,22.9,0,0,1-.1-3.7H2.3c0-.2.1-.3.1-.4s-.1-2.8-.1-4.3v.4c0-.6-.1-1.1-.1-1.6a5.7,5.7,0,0,0,.1-1.3l.3-2.7c.1-1.6.3-3.1.5-4.7s.5-2.9.8-4.3a3,3,0,0,0,.2-1,2.9,2.9,0,0,0,.2-.9l.6-2.2a17.4,17.4,0,0,1,.5-2.2,14.2,14.2,0,0,1,.5-2.2c0,.1-.1.2-.1.3A1.4,1.4,0,0,1,6,66H6l.3-1c.1-.2.1-.5.2-.8a.4.4,0,0,1-.1.3,1.9,1.9,0,0,0,.2-.7.4.4,0,0,1-.1.3l.3-.9a2.9,2.9,0,0,1,.3-1c0-.1.1-.2.1-.3a5.8,5.8,0,0,0,.5-1.4l.3-.8a6.1,6.1,0,0,1,.5-1.2l-.2.3.3-.5a.4.4,0,0,1,.1-.3l-.2.3.3-.6c0-.1.1-.2.1-.3h0l.9-1.9c0-.2.1-.3.2-.5v-.2c.3-.6.5-1.3.8-1.9a18,18,0,0,1,.8-2.1c.6-1.4,1.3-2.7,2-4a.3.3,0,0,0-.1.2.3.3,0,0,1,.1-.2h.1a.5.5,0,0,1,.2-.4h-.1c.1-.1.2-.2.2-.3l.8-1.3.7-1.2c.6-.8,1-1.6,1.6-2.5l3.2-4.5,1.7-2.2,1.8-2.2c1.3-1.5,2.7-2.9,4-4.2l-.2.2A23.9,23.9,0,0,1,30,26l1-.9,1-.8,1-.9.9-.8.9-.8,1-.8,2.1-1.6,1-.8,1-.7,1.1-.8,1.1-.7a12,12,0,0,1,2.4-1.5h-.3l1.5-.7,1.2-.6h-.3l.7-.4h.1a6.6,6.6,0,0,1,1.9-.9,7.1,7.1,0,0,0,1.8-.8l1-.5,1-.5,1.7-.9-.3.2,1-.6h0a6.7,6.7,0,0,1,1.2-.6l1.1-.6,1.1-.5a.1.1,0,0,1,.1-.1h-.1l-1.3-.9-1-.4A89.5,89.5,0,0,0,.4,81.5Zm55-72h0Zm-8,3.9ZM14,46.3ZM8.9,57.4a.3.3,0,0,0-.1.2A.3.3,0,0,1,8.9,57.4Z" fill="#74c7a9"/><path id="Path_260" data-name="Path 260" d="M4.6,110.6Z" fill="#74c7a9"/><path id="Path_261" data-name="Path 261" d="M14.2,133.5Z" fill="#74c7a9"/><path id="Path_262" data-name="Path 262" d="M13.8,46.7h0Z" fill="#74c7a9"/><path id="Path_263" data-name="Path 263" d="M6.7,63.4c0-.1,0-.1.1-.2S6.7,63.3,6.7,63.4Z" fill="#74c7a9"/><path id="Path_264" data-name="Path 264" d="M3.9,108h0v-.2Z" fill="#74c7a9"/><path id="Path_265" data-name="Path 265" d="M11.3,128Z" fill="#74c7a9"/><path id="Path_266" data-name="Path 266" d="M11.3,128Z" fill="#74c7a9"/><path id="Path_267" data-name="Path 267" d="M11.3,128.1h0Z" fill="#74c7a9"/><path id="Path_270" data-name="Path 270" d="M12.6,130.6Z" fill="#74c7a9"/><path id="Path_271" data-name="Path 271" d="M47.3,13.4Z" fill="#74c7a9"/><path id="Path_272" data-name="Path 272" d="M50.1,39.1Z" fill="#74c7a9"/><path id="Path_273" data-name="Path 273" d="M75.9,47Z" fill="#74c7a9"/><path id="Path_274" data-name="Path 274" d="M25,101.8h0Z" fill="#74c7a9"/><path id="Path_275" data-name="Path 275" d="M25.3,102h0Z" fill="#74c7a9"/><path id="Path_277" data-name="Path 277" d="M28.3,118.1v0Z" fill="#74c7a9"/><path id="Path_278" data-name="Path 278" d="M15.4,137.3h0Z" fill="#74c7a9"/><path id="Path_279" data-name="Path 279" d="M12.5,132.4a1.2,1.2,0,0,0-.6,1.6,4.1,4.1,0,0,0,.5.9l.4.6a2,2,0,0,0,.4.8l.3.5h0v.2h0a3.5,3.5,0,0,0,.5.8c0,.1.1.2.2.3s.2.2.2.3h.2l.2.2-.2-.2h.1l.3.3-.2-.2,1.5,1.9.3.3h-.1l.2.2h.1l.6.7A1.2,1.2,0,1,0,19,140h0l-.4-.4-.2-.2-.2-.2h-.1l-.7-.9-.9-1.1h-.1a1,1,0,0,1-.4-.5,4.3,4.3,0,0,1-.4-.7v.3a4.1,4.1,0,0,1-.5-.9l-.5-.9-.6-1h0a1.4,1.4,0,0,0-1.1-.7Zm2.7,2.6v0Zm-2.4.5h0Zm3.4,1.2a.1.1,0,0,1,.1.1h-.1Zm.1.1h0Zm2,2.3v0Zm-1.8,1.6h0Zm.4.4h-.2l.2.2Zm1.7-1.6h.1l-.2-.3v.2Zm-.2-.2h0Zm0,0v0Zm-.3-.3h0Zm-3.1-.2-.2-.2Zm-.3-.2h0l-.2-.2.2.3Zm-.1-.2Zm-1-1.5Z" fill="#74c7a9"/><path id="Path_280" data-name="Path 280" d="M65.8,3.4a19.8,19.8,0,0,0-3.5.8l-3.1.9h.3l-1.2.5h.1l-.9.4-.6.2h-.2l-.7.3A1.2,1.2,0,0,0,55.5,8a1.2,1.2,0,0,0,1.6.5h.2l.4-.2-.3.2.4-.2h-.3l1.3-.5H59l.5-.2.7-.2h-.1l1.2-.4,1.4-.4,1.4-.4,1.6-.3h.1a1.1,1.1,0,0,0,.8-.3,1.3,1.3,0,0,0,.4-.9,1.3,1.3,0,0,0-1.1-1.2ZM56.7,6.1Zm1.4-.6h0Z" fill="#74c7a9"/><path id="Path_281" data-name="Path 281" d="M100,2a1.2,1.2,0,0,0,1.2,1.2h1.7a.1.1,0,0,1,.1-.1,1.1,1.1,0,0,1,.8-.3h1.5l1.8.5,1.1.3,1.3.3,1.2.4V4.2a1.1,1.1,0,0,0-.1-1,1.8,1.8,0,0,0-.7-.5L107.9,2a7,7,0,0,0-1.9-.6h-4.8A1.2,1.2,0,0,0,100,2Zm5.7-.7h0ZM105,2.9h0Z" fill="#74c7a9"/><path id="Path_283" data-name="Path 283" d="M106,1.4h0Z" fill="#74c7a9"/><path id="Path_285" data-name="Path 285" d="M105.1,2.9Z" fill="#74c7a9"/><path id="Path_286" data-name="Path 286" d="M177.3,89.4h-.2v.3c0,.5-.1,1-.1,1.5v.9a1.9,1.9,0,0,1-.3,1l-.3.3a1.9,1.9,0,0,1-.1.8h0a2,2,0,0,1-.1.7h0a2.8,2.8,0,0,1-.1.9v.3a1.4,1.4,0,0,0,0,.9,1.6,1.6,0,0,0,.8.6.8.8,0,0,0,.8-.1,1.1,1.1,0,0,0,.6-.7,3,3,0,0,0,.2-1v-.5h0v-.2h0a19.5,19.5,0,0,0,.2-2.3,4.9,4.9,0,0,0,.1-1.2v-.5c0-.3-.1-.6-.1-.9a1.3,1.3,0,0,0-1.2-.9Zm-1.1,5.5Z" fill="#74c7a9"/><path id="Path_287" data-name="Path 287" d="M176.2,95.2v0Z" fill="#74c7a9"/><path id="Path_289" data-name="Path 289" d="M178.6,95.3Z" fill="#74c7a9"/><path id="Path_290" data-name="Path 290" d="M178.6,95.3h0Z" fill="#74c7a9"/><path id="Path_291" data-name="Path 291" d="M178.5,95.3h0Z" fill="#74c7a9"/><path id="Path_292" data-name="Path 292" d="M178.5,95.4h0a.1.1,0,0,0,.1-.1Z" fill="#74c7a9"/><path id="Path_293" data-name="Path 293" d="M167.9,127l-.3.7h0v.2h.1l-.2.3.2-.3-.5,1.1a.9.9,0,0,1,.4.6h.1a1,1,0,0,1-.1.9,6.1,6.1,0,0,1-.7,1l-.3.6.2-.2-.6.9a3.5,3.5,0,0,1-.5.8h.1l-.2.2h-.1l-.6.9a1.1,1.1,0,0,0,.8.3.9.9,0,0,0,.8-.4,13.4,13.4,0,0,0,2.2-3.6h0l.4-.8c.1-.2.2-.3.2-.5a2,2,0,0,0,.4-.8h0c0-.1.1-.2.1-.4h.1v-.2h0l.3-.8a1.2,1.2,0,0,0-.9-1.4H169a1.2,1.2,0,0,0-1.1.9Zm2,1.5h0Z" fill="#74c7a9"/><path id="Path_294" data-name="Path 294" d="M167.6,127.8h0Z" fill="#74c7a9"/><path id="Path_295" data-name="Path 295" d="M169.8,128.7Z" fill="#74c7a9"/><path id="Path_296" data-name="Path 296" d="M165.5,133.7h0Z" fill="#74c7a9"/><path id="Path_297" data-name="Path 297" d="M165.5,133.7Z" fill="#74c7a9"/><path id="Path_298" data-name="Path 298" d="M167.1,128.8h0v-.3c0,.1,0,.2-.1.2Z" fill="#74c7a9"/><path id="Path_300" data-name="Path 300" d="M169.7,128.8a.1.1,0,0,1,.1-.1Z" fill="#74c7a9"/><path id="Path_301" data-name="Path 301" d="M169.7,128.9h0Z" fill="#74c7a9"/><path id="Path_302" data-name="Path 302" d="M29.4,154a1.4,1.4,0,0,0,0,1.7,13.7,13.7,0,0,0,1.7,1.7l.7.6.9.7H33l.3.2h.4a10,10,0,0,0,1.9,1.2l3.4,1.8a1.2,1.2,0,0,0,1.6-.4h.1l-.8-.5a19.9,19.9,0,0,1-1.9-1.2l-1.5-1,.2.2-.8-.5H36l-.5-.4a.9.9,0,0,1-.4-1.1h-.3c-.1-.2-.3-.3-.4-.4h-.1v-.2h0l-.5-.4-1.1-1L31.1,154a1.1,1.1,0,0,0-.8-.3l-.9.3Zm6.7,5.1h0Z" fill="#74c7a9"/><path id="Path_303" data-name="Path 303" d="M34.9,157.4Z" fill="#74c7a9"/><path id="Path_304" data-name="Path 304" d="M35,157.5Z" fill="#74c7a9"/><path id="Path_305" data-name="Path 305" d="M35,157.5Z" fill="#74c7a9"/><path id="Path_306" data-name="Path 306" d="M35.1,157.6h0Z" fill="#74c7a9"/><path id="Path_307" data-name="Path 307" d="M32.7,158.7h0Z" fill="#74c7a9"/><path id="Path_308" data-name="Path 308" d="M33.5,159.4Z" fill="#74c7a9"/><path id="Path_309" data-name="Path 309" d="M64.1,5.4H64l-.8.2-2.8.8L56.9,7.5a27.1,27.1,0,0,0-3,1.3l-4.1,1.9A56.2,56.2,0,0,0,40.6,16l-2.8,2L35,20.3a29.8,29.8,0,0,0-2.7,2.3,31.9,31.9,0,0,0-2.6,2.6L30,25l-.4.4h0a17,17,0,0,0-1.9,1.9c0-.1.1-.1.1-.2a54.9,54.9,0,0,0-4,4.3c-.9,1.3-1.9,2.5-2.9,3.7l-1.7,2.1a25.3,25.3,0,0,0-1.8,2.7c-1.2,1.8-2.4,3.7-3.5,5.6l-.6,1c0-.1.1-.2.1-.3-1.1,2-2.2,4.2-3.2,6.3s-1.9,3.8-2.7,5.7a14.8,14.8,0,0,0-1.2,2.9L5.1,64.2a24.7,24.7,0,0,0-1,2.9,33.7,33.7,0,0,0-1,3.4A4.9,4.9,0,0,0,3,71.7a2.2,2.2,0,0,0,2,2.6,2.4,2.4,0,0,0,2.7-2h0a7.8,7.8,0,0,1,.2-1.6,38.2,38.2,0,0,1,1.8-5.1c.8-2,1.4-4,2.3-5.9,1.8-3.7,3.5-7.4,5.5-11.1,1-1.6,2-3.3,3.1-4.9a40.7,40.7,0,0,1,3.3-4.8c1-1.1,1.9-2.2,2.8-3.4l1.7-2.2,1.8-1.8-.4.4,2.3-2.4-.4.4,2.6-2.7-.4.5a53.3,53.3,0,0,1,6.2-5.4l3.3-2.4,3.3-2.3h0a31.4,31.4,0,0,1,3.1-1.8A31.3,31.3,0,0,0,53,14.4l3.3-1.5L59,11.8c.9-.3,1.8-.7,2.7-.9l.6-.2,1.1-.2,1.3-.4L66,9.7a2.5,2.5,0,0,0,1.3-1.2,3.1,3.1,0,0,0,0-1.9A3.3,3.3,0,0,0,66,5.3h-.8l-1.1.2Zm-46.5,43a.8.8,0,0,1-.2.4C17.5,48.7,17.5,48.5,17.6,48.4Zm-.3.5ZM27.4,27.5h0Zm.2-.1h0Zm2-2h.1v.2ZM64,5.4h0l.6-.2Z" fill="#74c7a9"/><path id="Path_310" data-name="Path 310" d="M4.4,68.8a3.3,3.3,0,0,0-1.1,1.5c-.3,1.1-.6,2.3-.8,3.4s-.6,3-.8,4.4h.1c-.2,1.1-.3,2.2-.4,3.3a13.8,13.8,0,0,0-.1,2.9c0,1.9-.1,3.9-.1,5.9A19.5,19.5,0,0,1,1,92.4v2.5c0,1,.1,1.9.1,2.8l.3,3a40.1,40.1,0,0,0,.9,5.9c.5,1.8.9,3.6,1.5,5.4s.5,1.4.7,2.2a15.9,15.9,0,0,0,.7,2l.3.6a4.3,4.3,0,0,0,.1.5v.2a4.9,4.9,0,0,1,.4,1.1l2.7,7.1-.2-.6a16.3,16.3,0,0,0,.9,1.9l.9,1.8c.6,1.3,1.3,2.6,2,3.9l1.9,2.9c.7,1.2,1.3,2.4,1.9,3.6a2.4,2.4,0,0,0,3.3.8,2.3,2.3,0,0,0,.8-3.2c-.5-1.1-1.1-2.2-1.7-3.3s-1.1-1.7-1.6-2.5a39.7,39.7,0,0,1-2.2-4l-1.4-2.8-.7-1.6c0,.1.1.2.2.4-1-2.4-1.8-4.9-2.8-7.3a1.7,1.7,0,0,0-.2-.5L9,112.6,8.4,111c-.2-.6-.3-1.2-.5-1.9s-.6-2.5-1-3.8l-.6-3.2L6,99.2c-.1-.9-.1-1.9-.2-2.8a29.9,29.9,0,0,1,.1-5.2V88.9c0-1.1.1-2.1.1-3.2v-3l.3-2.8v-.7a7.7,7.7,0,0,1,.2-1.5,1.3,1.3,0,0,0-.1.6c.2-1.2.5-2.4.7-3.6a16.5,16.5,0,0,1,.7-3.2,2.4,2.4,0,0,0-1.7-2.9H5.6a2.7,2.7,0,0,0-1.2.3ZM1.8,77.5v0Zm4.4,24.1a.4.4,0,0,0,.1.3ZM9.8,115h0Zm3.1,8.1h0Z" fill="#74c7a9"/><path id="Path_311" data-name="Path 311" d="M167,122.8a17.3,17.3,0,0,1-1.4,3.1v-.2a31.1,31.1,0,0,1-2.2,4,35.1,35.1,0,0,1-2.7,4c-.8,1.2-1.8,2.3-2.7,3.5l-2.1,2.7-1.6,1.8h.1l-.2.2-.2.3v-.2l-3.5,3.6-1.6,1.7-1.7,1.6c-2.7,2.5-5.7,4.6-8.5,7a39.2,39.2,0,0,1-3.2,2.5l-2.9,2.1-1.1.7h.2l-2.2,1.5a46.8,46.8,0,0,1-5.4,3l-3.4,1.6-5,2h.2l-1.2.4.6-.2-1.1.4-.9.3.6-.2-3.3,1a31,31,0,0,1-4.2.8l-2,.4-2.3.3a34.4,34.4,0,0,1-4.5.5H79.1l-3.7-.5-1.5-.3-3.4-.7H69.1l-1.3-.3a36.2,36.2,0,0,1-5.5-2,23.9,23.9,0,0,0-3.7-1.5,18.2,18.2,0,0,1-3.9-1.4l.3.2-1.5-.7-.6-.3L50,163.7l-1.8-1-2.1-1.2-3.5-2a35.3,35.3,0,0,1-3.2-2.1l-3.2-2.5a8,8,0,0,1-1.5-1.7,5.6,5.6,0,0,1-.5-.8,2.3,2.3,0,0,0-3.1-1,2.4,2.4,0,0,0-1.1,3.2,7.2,7.2,0,0,0,1.8,2.5l2.2,2.1a37.2,37.2,0,0,0,4.5,3.3c1.3.8,2.6,1.7,4,2.4l2.6,1.4,1.4.9,1.5.8-.4-.2,2.2,1.3,1.8.9-.6-.3,1,.5h.1l.4.2h-.2a16.7,16.7,0,0,0,4.4,1.7,29,29,0,0,1,4.1,1.6l2.6,1.1a21.7,21.7,0,0,0,5,1.3h0l.8.2h.4l1.7.3,1.5.4h.5a33.6,33.6,0,0,0,10,.9h-.1l5.7-.2h.4l1.7-.2h2.1l4.4-.2h.4a70,70,0,0,0,9.2-1.1l2.1-.4,2.4-.5,3.7-1.2h-.2l.5-.2h.1l.7-.2,1.3-.5h-.3l5.8-2.3,3.8-1.7,3.4-1.9,1.5-.9,2-1.4.8-.5-.5.3c1.6-1,3.1-2.2,4.6-3.3l2.3-1.6,1.8-1.5a35.7,35.7,0,0,1,3.8-3l2.4-2.1,2.2-2,3.6-3.6c1.5-1.5,2.9-3.1,4.3-4.7l-.4.5,3-3.7,2.9-3.6a61.4,61.4,0,0,0,5.3-8.9,12.2,12.2,0,0,0,1.4-3.3,2.3,2.3,0,0,0-1.4-3h-.8a2.1,2.1,0,0,0-2.2,1.6ZM34.4,152.9l.2.2Zm15.1,10.6.5.2Zm84.3,1.9-.4.2Zm-60.3,6.9h0Zm-4.1,3.9h0Zm19.7,1.7h0Zm3.9-.3Zm4.8-.2h0Zm-24.5-.3h0Zm43.1-3.2h0Zm0,0h0Zm.2-.1h0ZM83,173.3h0Zm5.6-.1h0Zm4.1-.3h0Zm-22.2-1.2h0Zm-.2-.1h0Zm0,0h0Zm-.1,0Zm-17.9-1.3h0Zm101.9-28.4h.2l-.2.2Zm11.3-15.6v0Z" fill="#74c7a9"/><path id="Path_312" data-name="Path 312" d="M152,145.2c-.7.9-1.3,1.9-2,2.7l-3.3,3.2-2.5,2.2-2.3,1.7-2.2,1.6-1.3.7a2.6,2.6,0,0,0-1.1,3.2,2.4,2.4,0,0,0,3.2,1.1h.1l2.1-1.3,1.6-1.2,3-2.2,3.1-2.7,2.1-2a33.7,33.7,0,0,0,3.4-4.3,2.4,2.4,0,0,0-.6-3.3,2.4,2.4,0,0,0-3.3.6Zm-2.1,2.8-.2.3C149.7,148.2,149.8,148.1,149.9,148Z" fill="#74c7a9"/><path id="Path_313" data-name="Path 313" d="M98.1,2.9a2.4,2.4,0,0,0-2.2,2.5,2.3,2.3,0,0,0,2.5,2.2h.5l3.1.3,1.6.3,1.7.2,7,1.2,2,.5,2.1.6a45.8,45.8,0,0,1,5.3,1.4l.6.2,3.8,1.6,4.3,2.3,6.1,3.7h.1l1.1.7,1.2.8-.5-.3.7.4,1.4.9.7.5h0l1.1.8-.6-.4a32.6,32.6,0,0,1,4,3.4l1.2,1.2a13.1,13.1,0,0,0,1.2,1.1l2.1,2.2h-.1c.7.8,1.5,1.6,2.2,2.5s-.1-.2-.2-.3l.9,1-.4-.5.9,1.1.5.6h-.1l1.6,2-.2-.2a55.4,55.4,0,0,1,5.5,7.5c.8,1.3,1.5,2.6,2.2,3.9s1.5,2.7,2.1,4h0l.3.6V53l.6,1.4a10.9,10.9,0,0,1,.8,1.5,27.5,27.5,0,0,1,1.7,4.5c.5,1.5,1.1,2.9,1.5,4.4s1.1,4.2,1.6,6.4.5,1.9.7,2.9a12.9,12.9,0,0,0,.4,1.9c.2,1.5.4,3.1.5,4.7s.1,1.9.2,3v2.5h0V87c0,.5-.1,1.1-.1,1.6v3.9l-.3,2.2a14.3,14.3,0,0,1-.4,2.2,2.3,2.3,0,0,0,1.8,2.8h0a2.3,2.3,0,0,0,1.8-.3,2.5,2.5,0,0,0,1-1.5,18,18,0,0,0,.5-1.9,15,15,0,0,1,.2-2.2,30.3,30.3,0,0,0,.2-3.1,12.2,12.2,0,0,1,0-2.7v.6a6.6,6.6,0,0,0,.1-1.4h0a38.7,38.7,0,0,0-.1-7.6,29.1,29.1,0,0,0-.9-5.8c-.4-2.1-.8-4.1-1.3-6.1a34.1,34.1,0,0,0-1.6-5.7c-.5-1.5-1-3-1.4-4.4l-1-2.4a31.3,31.3,0,0,0-1.5-3.2l-.6-1.2h.1l-.2-.3v-.2h0q-1.1-2.2-2.1-4.2l-1.3-2.3a17.4,17.4,0,0,0-1.1-1.8,60.5,60.5,0,0,0-5.6-7.7h0l-.4-.5.3.3c-.5-.6-1-1.3-1.6-1.9l.2.2-1.2-1.4h0l-.8-.9c.1.1.2.1.2.2l-1.8-2a24.4,24.4,0,0,0-2.7-2.9l-1.3-1.3-1.4-1.3-2.4-2.2-2-1.4h0l-.5-.4.4.3-1.1-.8.5.4-1.1-.8h.1l-.3-.2h-.1l-.8-.6.6.4-1.6-1.1.6.4-1.6-1h0l-.5-.3.4.2a70.2,70.2,0,0,0-8.8-5.2,53.8,53.8,0,0,0-6-2.8l-3-1-2.8-.8L115,5.4,113.3,5l-3.1-.6-2.8-.5-3-.4-2.9-.4L100,2.9H98.1Zm23.8,9.3h0Zm15.9,8.5.2.2Zm1.6,1.1.2.2C139.6,21.9,139.5,21.9,139.4,21.8Zm33.7,70.1v0Zm.2-5.4v-.2h0v.3Zm-8.1-33.7h0v-.2Zm.1.2v-.2h-.1l.2.3Zm-.2-.4h0ZM153.9,35.5v0Zm5.3-.9h0v0ZM144.3,19.5Zm-2-1.4h.2l-.3-.2Zm-2.8-1.9Z" fill="#74c7a9"/><path id="Path_314" data-name="Path 314" d="M97.7,1a3,3,0,0,0-1.6.8,2.2,2.2,0,0,0-.6,1.7,2.3,2.3,0,0,0,.8,1.7,2.5,2.5,0,0,0,1.7.6h1.3a19.1,19.1,0,0,1,3.3.6l2.5.5c2.1.6,4.2,1.1,6.2,1.8l-.6-.2.9.3a2.8,2.8,0,0,0,1.8.2,2.4,2.4,0,0,0,1.5-3,1.9,1.9,0,0,0-1.2-1.4,34.5,34.5,0,0,0-4.2-1.4l-3.8-1-3-.7A22.3,22.3,0,0,0,99.1.9Zm1.7,4.7h0Z" fill="#74c7a9"/></g></svg>