<svg id="Layer_1" data-name="Layer 1" xmlns="http://www.w3.org/2000/svg" width="2.5in" height="2.5in" viewBox="0 0 179.1 179.2"><title>stats-icon</title><g id="Group_38" data-name="Group 38"><path id="Path_144" data-name="Path 144" d="M.4,81.7a88.3,88.3,0,0,0,8.8,47.4l1.3-2.4c.7-1.2,1.2-2.4,1.8-3.7s1.2-2.3,1.7-3.5,2.5-4.6,3.7-7l1.9-3.8,1.7-3.6c1-2.2,2-4.3,3.2-6.5l1.6-3c.6-1.1,1.2-2.1,1.7-3.2s1.2-2.1,1.7-3.2l1.4-2.7,3.3-5.9,1.7-2.9,1.5-2.6L39.2,72l1.2-2.1,1.8-2.8.9-1.5.6-.8h0v-.2l.3-.3a1.1,1.1,0,0,1,.1-.8,1.2,1.2,0,0,1,1.6-.5.9.9,0,0,1,.6.6l.3.6.6,1,.7,1.1.8,1.3,1,1.5,1.1,1.6,1.3,2,1.4,2.1a5.7,5.7,0,0,0,.8,1.3c.2.5.5.9.7,1.3a7.8,7.8,0,0,0,1,1.5l.9,1.4a25.4,25.4,0,0,0,1.6,2.8c.6,1,1.2,2,1.7,3L62.8,90l1.5,2.3,1.5,2.5,1.4,2.3a21.2,21.2,0,0,1,1.2,2c.4.7.9,1.4,1.3,2.2s1.3,1.9,1.9,3a24.9,24.9,0,0,1,1.5,2.8l1.1,2,.2.3.7-1.6h0a.4.4,0,0,1,.1-.3h.1l.3-1.2.5-1.2,1.2-2.9a.4.4,0,0,1-.1.3l.4-.9h0v-.2a3.6,3.6,0,0,0,.4-.9v.2c.3-.6.5-1.2.8-1.9V99l.4-1h.1l.6-1.6v.3l.7-1.8c0,.1-.1.2-.1.3l.5-1.3.7-1.8v.3l.9-2.3.9-2.1v.3c.8-2,1.4-4,2.2-6A14.3,14.3,0,0,0,86,80l1-2.2v.3c.1-.2.1-.4.2-.6a7.7,7.7,0,0,1,.7-1.6,7.8,7.8,0,0,1,.5-1.4v.3a6.9,6.9,0,0,0,.5-1.3l1.5-3.9c.4-1,.9-1.9,1.3-2.9a10.4,10.4,0,0,1,.4-1v.2l.6-1.5c.2-.5.5-.9.7-1.4s.7-1.5,1-2.3a10.4,10.4,0,0,0,.4-1l.6-1.4.6-1.3.6-1.2a11.7,11.7,0,0,0,.5-1.1l.7-1.2,1-2.2v.3a12.1,12.1,0,0,1,.9-2,7,7,0,0,0,.9-1.7l.5-1.2v-.2l.3-.3a3.4,3.4,0,0,1,1.1-1.7h.1a1.1,1.1,0,0,1,1-.6h.3a1.1,1.1,0,0,1,.7.6,22.9,22.9,0,0,1,1,2.3l.6,1.4h.1l.6,1.5v-.3a25,25,0,0,1,.9,2.5l.6,1.6,1.2,2.4c.5,1,.9,2,1.3,2.9v-.2l.9,2.1a16.7,16.7,0,0,1,.8,2v-.3c1,2.2,1.8,4.5,2.7,6.7s.7,1.8,1.1,2.8a19.5,19.5,0,0,0,.8,2.2c.3.9.7,1.8,1.1,2.7h0a3,3,0,0,1,.4.8v-.3c.2.6.5,1.1.7,1.7h-.1a9.3,9.3,0,0,1,.5,1v-.3l.9,2.3h.1l.2.3.4-.9.9-2c0,.1-.1.2-.1.3l1.8-4.5v.3c.7-1.7,1.5-3.5,2.3-5.2s1-2,1.4-3a11.1,11.1,0,0,0,.7-1.6,3,3,0,0,0,.4-.8v-.4a.1.1,0,0,0,.1-.1h0l.3-.8v.3c.6-1.2,1.1-2.4,1.6-3.6l.2-.3a.1.1,0,0,1-.1.1h0l1.8-4.4v.3c.4-1,.8-2.1,1.3-3.1s1-2.2,1.6-3.3,1.9-4.1,2.8-6.2V44l1.3-3.3,1.2-3h0c.5-1,.8-2,1.2-3s1.4-3.1,2-4.7a.4.4,0,0,1-.1.3,12.2,12.2,0,0,0,.7-1.7h0l.6-1.5.6-1.5V26a6.1,6.1,0,0,0,.5-1.2.4.4,0,0,1-.1.3,6.1,6.1,0,0,0,.5-1.2h0l.2-.3.2-.4a2.1,2.1,0,0,1,.3-.7l-.2.3.9-1.9A88.4,88.4,0,0,0,97.5.4a71.4,71.4,0,0,0-8-.4A89.6,89.6,0,0,0,.4,81.7ZM139.9,37.4l-.2.3Zm-.2.4a.3.3,0,0,1-.1.2A.3.3,0,0,1,139.7,37.8Zm-39,8.8h0Zm-.1.1v0Zm29.3,13.8h0Zm-52.4,41v0Zm-2.4,6.3v0Z" fill="#74c7a9"/><path id="Path_145" data-name="Path 145" d="M79,98Z" fill="#74c7a9"/><path id="Path_147" data-name="Path 147" d="M75.2,107.5h0Z" fill="#74c7a9"/><path id="Path_148" data-name="Path 148" d="M105.8,48.3Z" fill="#74c7a9"/><path id="Path_150" data-name="Path 150" d="M117.6,77Z" fill="#74c7a9"/><path id="Path_151" data-name="Path 151" d="M77.6,101.3h0Z" fill="#74c7a9"/><path id="Path_152" data-name="Path 152" d="M154.8,31.7c-.5,1-1.2,1.9-1.7,2.9l-1.5,3c-.4.9-.7,1.7-1.1,2.5s-1.6,3.3-2.5,4.9l-1.4,2.6c-.4.8-.7,1.5-1.1,2.2s-1.3,2.7-1.9,4l-1.5,3c-.8,1.6-1.5,3.2-2.3,4.7s-1.2,2.4-1.7,3.7l-.3.8c-.2.3-.3.7-.5,1h.1v.2h0l-.3.6h0l-.3.7v-.3l-.9,2-.8,2.1v-.3c-.1.2-.1.4-.2.6l-.4.9h.1c-.5,1.1-.9,2.2-1.3,3.3v-.3c-.5,1.1-1,2.2-1.4,3.3v-.3c-.4,1-.9,1.9-1.3,2.8l-1,2.1v-.2c-.5,1.1-.9,2.3-1.5,3.4l-.8,1.6c-.3.5-.5,1.1-.8,1.7a21.2,21.2,0,0,0-1.1,2.1c-.3.6-.5,1.2-.8,1.7s-1.2,2.3-1.7,3.5v-.3a9,9,0,0,1-1.2,2.4l-.8,1.2-.2.3-1.2,1.9a1.3,1.3,0,0,1-.7.6,1.4,1.4,0,0,1-.9-.1,1.1,1.1,0,0,1-.6-.9l-.6-1.1c-.2-.4-.3-.8-.5-1.3l-.4-1.2a.8.8,0,0,1-.2-.5h0l-.3-.7h0c-.1-.1-.1-.3-.2-.4h0v-.2c-.2-.6-.5-1.1-.7-1.7a22.9,22.9,0,0,1-1-2.3v.3a10.1,10.1,0,0,0-.7-1.5c-.2-.7-.5-1.3-.7-2h-.1c-.3-.6-.5-1.2-.8-1.9l-.9-1.7-1.5-3.6c0,.1.1.2.1.3l-.9-2.2c0,.1.1.2.1.3a36.8,36.8,0,0,0-1.5-3.5v.2a18,18,0,0,1-.8-2.1l-.3-.6a14.2,14.2,0,0,1-.8-1.8l-.9-1.9a15.4,15.4,0,0,1-.8-1.9.4.4,0,0,0,.1.3l-.6-1.3a9.3,9.3,0,0,0-.5-1v.3h.1c-.2.3-.3.7-.5,1l-.9,2.3A25.6,25.6,0,0,0,100,74l-.6,1.4-.5,1c-.3.9-.7,1.8-1.1,2.7l-1.3,3.1-1.1,2.7-1.8,4.4a27.2,27.2,0,0,0-1.1,2.5c-.3.9-.7,1.7-1.1,2.6l-2,4.9-.9,2.4a30.9,30.9,0,0,0-1.4,3.2,24.4,24.4,0,0,1-1,2.4l-.9,2.5-.5,1.2-.6,1.4c-.3.9-.7,1.8-1,2.8l-.6,1.3-.6,1.4-.5,1.2-.5,1h0l-1.3,2.6-1.2,3-1.2,2.6-.6,1.2-.7,1a1.4,1.4,0,0,1-.8.5,1.2,1.2,0,0,1-1.4-.9h0v-.4l-.4-.6h0l-.3-.5h-.1v-.2a6.1,6.1,0,0,0-.7-1l-.6-.9-.4-.7H71v-.2h0l-1.3-2.2c-.3-.5-.7-1-1-1.6l-.6-1.1v.2l-.9-1.4-1-1.6-1.5-2.3-1.4-2.1-1.5-2.5h0c-.6-1.1-1.4-2.1-2.1-3.2l-.9-1.6-1.2-2v.2c-.6-1-1.2-1.9-1.7-2.9h0l-1.5-2.4-1.2-2.2h-.1c-.4-.8-.9-1.5-1.3-2.2a19.6,19.6,0,0,0-1.3-2.5h0L50,90.6h-.1a25.3,25.3,0,0,1-1.3-2.2h0a1.6,1.6,0,0,0-.4-.7v.2a4.7,4.7,0,0,1-.5-1l-.3-.4h-.1a4.1,4.1,0,0,0-.5-.9,3.6,3.6,0,0,0-.4-.9l-.7-1.3h-.1a8.3,8.3,0,0,1-.9-1.6h-.1l-.6,1.4L43.3,84l-.9,1.9-.7,1.2a11.7,11.7,0,0,1-.5,1.1l-.8,1.2-.6,1.2-1.3,2.7-1.2,2.6c-.4.9-.8,1.9-1.3,2.8l-1.5,2.9a20.6,20.6,0,0,1-1.2,2.6l-2.7,5.4c-.9,1.6-1.8,3.3-2.6,5l-1.2,2.6a24,24,0,0,0-1.1,2.3l-2.2,4.3-2,4L20.4,130l-1.1,2.4-2.1,4.5-1,2.1-.5,1.2A89.5,89.5,0,1,0,163.4,39a74.6,74.6,0,0,0-7.4-9.4ZM102.5,68.2h0Zm-.4.8v0ZM48.5,87.9v0Zm1.4,2.6h0Zm.1,0Zm3.3,6Zm4.4,7.6h0Z" fill="#74c7a9"/><path id="Path_153" data-name="Path 153" d="M137.2,67.2h0Z" fill="#74c7a9"/><path id="Path_154" data-name="Path 154" d="M137,67.9h0Z" fill="#74c7a9"/><path id="Path_155" data-name="Path 155" d="M137.3,67.2v0Z" fill="#74c7a9"/><path id="Path_156" data-name="Path 156" d="M137.3,67.2Z" fill="#74c7a9"/><path id="Path_157" data-name="Path 157" d="M137,67.8Z" fill="#74c7a9"/><path id="Path_158" data-name="Path 158" d="M112.4,90.5h0Z" fill="#74c7a9"/><path id="Path_159" data-name="Path 159" d="M112.5,90.7Z" fill="#74c7a9"/><path id="Path_161" data-name="Path 161" d="M116.1,99.2h0Z" fill="#74c7a9"/><path id="Path_164" data-name="Path 164" d="M50,90.6h0Z" fill="#74c7a9"/><path id="Path_166" data-name="Path 166" d="M80.9,120.3Z" fill="#74c7a9"/><path id="Path_168" data-name="Path 168" d="M49.4,84.7Z" fill="#74c7a9"/><path id="Path_169" data-name="Path 169" d="M48.7,88.1h0Z" fill="#74c7a9"/><path id="Path_170" data-name="Path 170" d="M50,90.5Z" fill="#74c7a9"/><path id="Path_171" data-name="Path 171" d="M53.3,96.5h0Z" fill="#74c7a9"/><path id="Path_172" data-name="Path 172" d="M61.9,110.8h0Z" fill="#74c7a9"/><path id="Path_173" data-name="Path 173" d="M80.9,120.2h0Z" fill="#74c7a9"/><path id="Path_174" data-name="Path 174" d="M80.9,120.2Z" fill="#74c7a9"/><path id="Path_175" data-name="Path 175" d="M71,125.5h0Z" fill="#74c7a9"/><path id="Path_176" data-name="Path 176" d="M75.1,127.5h0Z" fill="#74c7a9"/><path id="Path_177" data-name="Path 177" d="M45.8,82.8Z" fill="#74c7a9"/><path id="Path_179" data-name="Path 179" d="M49.9,90.4Z" fill="#74c7a9"/><path id="Path_180" data-name="Path 180" d="M49.9,90.4Z" fill="#74c7a9"/><path id="Path_181" data-name="Path 181" d="M53.2,96.3Z" fill="#74c7a9"/><path id="Path_183" data-name="Path 183" d="M71,125.3Z" fill="#74c7a9"/><path id="Path_184" data-name="Path 184" d="M72.9,128.5h0v0Z" fill="#74c7a9"/><path id="Path_185" data-name="Path 185" d="M73,128.5h0Z" fill="#74c7a9"/><path id="Path_187" data-name="Path 187" d="M73,128.5h0Z" fill="#74c7a9"/><path id="Path_190" data-name="Path 190" d="M119.9,82.3Z" fill="#74c7a9"/><path id="Path_191" data-name="Path 191" d="M43.7,64.7Z" fill="#74c7a9"/><path id="Path_192" data-name="Path 192" d="M43.7,64.8Z" fill="#74c7a9"/></g></svg>