<svg id="Layer_1" data-name="Layer 1" xmlns="http://www.w3.org/2000/svg" width="0.8in" height="0.8in" viewBox="0 0 55.1 55.1"><title>twitter-icon</title><g id="Group_21" data-name="Group 21"><path id="Path_383" data-name="Path 383" d="M.1,25.1A27.7,27.7,0,0,0,25.1,55,27.6,27.6,0,0,0,30,.1H27.5A27.6,27.6,0,0,0,.1,25.1Zm28.4-6.9a7.6,7.6,0,0,1,.8-1.1l.8-.9.6-.5.6-.4a3.8,3.8,0,0,1,1.3-.6l.9-.2h1.8a1.6,1.6,0,0,1,.9.3h.5l.4.2.7.5c.1.2.3.3.4.4s.2.2.2.3a2.2,2.2,0,0,1,.5.8h0l.6,1.1a2.9,2.9,0,0,1,.2.9h.5l.5.2,1,.4h.1l1.2.3.9.3h.8l.2.3a.8.8,0,0,1-.2.4l-.3.2h-.3l-.6.3-.5.3-1.1.5-.5.3H41a.4.4,0,0,1,.1.3c0,.1,0,.1-.1.2V25a7.6,7.6,0,0,0-.1,1.5h0v1.2h0v.8c0,.3-.1.5-.1.8a8.8,8.8,0,0,1-.2,1.6,1.9,1.9,0,0,1-.1.8,2.8,2.8,0,0,1-.1.9c0,.3-.1.6-.1.9s-.1.5-.2.8l-.3,1a6.9,6.9,0,0,0-.5,1.3l-.6,1.1a7.1,7.1,0,0,1-1,1.4l-.6.7-.6.5-1.2.9-.6.4-.6.3-1.2.6-1.1.4-1.1.2-.8.2h-.6l-1.4.2H23.5l-.7-.2H22l-.8-.2h-.1L20,42.7l-.8-.3L18.1,42l-.5-.2-.4-.3a.1.1,0,0,0,.1.1l-1.2-.7a3.1,3.1,0,0,1-1-.5l-.4-.3-.4-.2-.9-.8h.1l-.6-.6a1.2,1.2,0,0,1-.5-.5l-.4-.4a.5.5,0,0,0-.2-.4l-.3-.4a.6.6,0,0,1-.1-.6.2.2,0,0,1,.2-.2H12l.4.2h-.1l1.1.4h.8l2.5-.2h1l.9-.2h0l.9-.4.7-.3h-.1l.7-.5.4-.6h-1l-1.4-.3-.5-.2-.6-.2a3.1,3.1,0,0,0-1-.5h0l-.6-.2a1.9,1.9,0,0,1-.7-.6.6.6,0,0,1,0-.9l.6-.4h.9l-.9-.6a.8.8,0,0,1-.4-.4l-.4-.2-.8-.9v-.5l.2-.3h.5a2.2,2.2,0,0,1,1.1-.2h1.3c.2-.1.4,0,.6,0h.2l-.5-.4-.8-.6-.4-.3-.3-.4-.8-.9a3,3,0,0,1-.8-.8,1,1,0,0,1-.4-.5v-.3c0-.1.1-.1.1-.2h.2a.1.1,0,0,1,.1-.1h.8l.9.3h0l1.3.3,1.1.3h6.9l1.1-.2h0a.6.6,0,0,0,.1-.4h0c.1,0,.1-.1.1-.2a.4.4,0,0,1,.1-.3h0v-.3a.4.4,0,0,0,.1-.3h0c.1-.2.1-.5.2-.8l.3-.8a2,2,0,0,1,.4-.8l.3-.7h0l.2-.3Zm0,0h0Zm-.2.4h0Zm15.6,2ZM24.1,24Zm-2.2.1ZM16.7,33Zm5.2,10.1c.1,0,.1,0,.1.1S22,43.1,21.9,43.1Z" fill="#ca4742"/><path id="Path_385" data-name="Path 385" d="M21.1,42.9Z" fill="#ca4742"/><path id="Path_386" data-name="Path 386" d="M14.6,23.4Z" fill="#ca4742"/><path id="Path_387" data-name="Path 387" d="M19.2,27.2Z" fill="#ca4742"/><path id="Path_388" data-name="Path 388" d="M15,28.2h0Z" fill="#ca4742"/><path id="Path_389" data-name="Path 389" d="M16,31.6Z" fill="#ca4742"/><path id="Path_390" data-name="Path 390" d="M16,31.7Z" fill="#ca4742"/><path id="Path_391" data-name="Path 391" d="M16.7,33Z" fill="#ca4742"/><path id="Path_392" data-name="Path 392" d="M27,22.4Z" fill="#ca4742"/><path id="Path_393" data-name="Path 393" d="M27,22.5Z" fill="#ca4742"/><path id="Path_395" data-name="Path 395" d="M26.7,23.5Z" fill="#ca4742"/><path id="Path_400" data-name="Path 400" d="M41.8,20Z" fill="#ca4742"/><path id="Path_401" data-name="Path 401" d="M44.4,21.5h0Z" fill="#ca4742"/></g></svg>